<svg width="60" height="24" viewBox="0 0 60 24" fill="none" xmlns="http://www.w3.org/2000/svg">
<path d="M0.994141 23.1187V8.71874H3.00306V10.425H3.17526C3.30282 10.2062 3.4782 9.95312 3.70141 9.66563C3.93101 9.37812 4.24988 9.12812 4.65805 8.91562C5.06621 8.69688 5.59874 8.5875 6.25563 8.5875C7.11659 8.5875 7.8819 8.79999 8.55155 9.225C9.22756 9.65 9.76008 10.2656 10.1491 11.0719C10.5381 11.8781 10.7327 12.85 10.7327 13.9874C10.7327 15.1126 10.5413 16.0812 10.1587 16.8937C9.77604 17.7 9.24669 18.3218 8.57067 18.7594C7.90102 19.1906 7.13253 19.4063 6.26519 19.4063C5.62106 19.4063 5.09171 19.3 4.67717 19.0874C4.26901 18.8688 3.94695 18.6156 3.71098 18.3281C3.48139 18.0407 3.30282 17.7875 3.17526 17.5687H3.06047V23.1187H0.994141ZM5.81557 17.6719C6.43419 17.6719 6.95077 17.5093 7.36531 17.1844C7.77986 16.8594 8.09236 16.4188 8.30281 15.8626C8.51965 15.3 8.62808 14.6688 8.62808 13.9687C8.62808 13.275 8.52284 12.6532 8.31238 12.1031C8.10193 11.5531 7.78942 11.1187 7.37488 10.8C6.96035 10.4813 6.44057 10.3219 5.81557 10.3219C5.2097 10.3219 4.6995 10.475 4.28496 10.7813C3.87042 11.0813 3.55473 11.5062 3.33789 12.0563C3.12743 12.6 3.0222 13.2374 3.0222 13.9687C3.0222 14.7 3.13062 15.3438 3.34746 15.9C3.5643 16.4562 3.87998 16.8906 4.29452 17.2031C4.71544 17.5157 5.22245 17.6719 5.81557 17.6719ZM11.2645 19.2V8.71874H13.2639V10.3969H13.3788C13.5764 9.83437 13.9208 9.39062 14.4119 9.06562C14.9094 8.73438 15.4706 8.56874 16.0955 8.56874C16.2231 8.56874 16.373 8.57499 16.5452 8.5875C16.7237 8.59375 16.8672 8.60312 16.9757 8.61562V10.5656C16.8928 10.5406 16.7429 10.5156 16.5261 10.4906C16.3156 10.4656 16.1019 10.4531 15.885 10.4531C15.394 10.4531 14.9539 10.5563 14.5649 10.7625C14.1823 10.9625 13.8793 11.2406 13.6561 11.5969C13.4392 11.9469 13.3309 12.3532 13.3309 12.8156V19.2H11.2645Z" fill="#D2D2D2"/>
<path d="M27.3976 15.6469L27.369 13.1626H27.742L31.999 8.71874H34.4863L29.6361 13.7813H29.2918L27.3976 15.6469ZM25.4844 19.2V5.23125H27.5507V19.2H25.4844ZM32.2191 19.2L28.3925 14.2313L29.8275 12.7969L34.7828 19.2H32.2191ZM36.654 12.9844V19.2H34.5877V5.23125H36.6253V10.4437H36.7688C37.0175 9.875 37.3969 9.425 37.9072 9.09374C38.4238 8.75626 39.0967 8.5875 39.9256 8.5875C40.6591 8.5875 41.3 8.73438 41.8486 9.02813C42.397 9.32188 42.8243 9.7625 43.1304 10.35C43.4429 10.9375 43.5991 11.6688 43.5991 12.5437V19.2H41.5137V12.7874C41.5137 12.0125 41.3097 11.4125 40.9014 10.9875C40.4997 10.5625 39.9385 10.35 39.2178 10.35C38.7204 10.35 38.2803 10.4562 37.8976 10.6687C37.515 10.875 37.212 11.1719 36.9888 11.5594C36.7656 11.9469 36.654 12.4219 36.654 12.9844ZM47.7089 19.425C47.0328 19.425 46.4206 19.3031 45.8721 19.0594C45.3237 18.8094 44.89 18.4469 44.5711 17.9719C44.2523 17.4968 44.0928 16.9188 44.0928 16.2374C44.0928 15.6438 44.2076 15.1594 44.4372 14.7844C44.6731 14.4031 44.9888 14.1 45.3843 13.875C45.7797 13.65 46.2198 13.4813 46.7044 13.3687C47.1891 13.2563 47.6866 13.1688 48.1967 13.1063C48.8409 13.0375 49.3607 12.9781 49.7561 12.9281C50.1515 12.8782 50.4385 12.8 50.617 12.6937C50.8019 12.5813 50.8945 12.4031 50.8945 12.1594V12.1126C50.8945 11.5188 50.7222 11.0594 50.3779 10.7344C50.0398 10.4094 49.536 10.2469 48.8664 10.2469C48.1712 10.2469 47.6196 10.3969 47.2114 10.6969C46.8096 10.9906 46.5323 11.325 46.3792 11.7L44.4181 11.2594C44.654 10.6219 44.9953 10.1094 45.4416 9.72187C45.8944 9.32813 46.411 9.04062 46.9914 8.85937C47.5781 8.67812 48.1903 8.5875 48.8282 8.5875C49.2554 8.5875 49.7082 8.6375 50.1865 8.7375C50.6649 8.83126 51.1144 9.00937 51.5354 9.27187C51.9627 9.52812 52.3103 9.89688 52.5782 10.3781C52.846 10.8594 52.9799 11.4813 52.9799 12.2437V19.2H50.9423V17.7656H50.8657C50.7383 18.0218 50.5373 18.2782 50.263 18.5344C49.9952 18.7907 49.6508 19.0031 49.2299 19.1719C48.8089 19.3406 48.302 19.425 47.7089 19.425ZM48.1585 17.7937C48.7388 17.7937 49.2331 17.6844 49.6412 17.4656C50.0495 17.2406 50.362 16.9469 50.5787 16.5844C50.7956 16.2218 50.904 15.8375 50.904 15.4313V14.0719C50.8275 14.1407 50.684 14.2062 50.4735 14.2687C50.263 14.3312 50.0239 14.3844 49.7561 14.4281C49.4882 14.4719 49.2267 14.5126 48.9716 14.55C48.7165 14.5812 48.5028 14.6063 48.3307 14.625C47.9289 14.6813 47.5622 14.7688 47.2306 14.8874C46.8989 15 46.6311 15.1687 46.4269 15.3937C46.2293 15.6125 46.1304 15.9031 46.1304 16.2656C46.1304 16.7719 46.3218 17.1532 46.7044 17.4094C47.0871 17.6657 47.5717 17.7937 48.1585 17.7937ZM53.9997 19.2V8.71874H55.999V10.3969H56.1139C56.3115 9.83437 56.656 9.39062 57.147 9.06563C57.6445 8.73438 58.2057 8.56874 58.8307 8.56874C58.9583 8.56874 59.1081 8.575 59.2803 8.5875C59.4588 8.59375 59.6023 8.60312 59.7108 8.61563V10.5656C59.6279 10.5406 59.4781 10.5156 59.2612 10.4906C59.0507 10.4656 58.837 10.4531 58.6202 10.4531C58.1292 10.4531 57.6891 10.5563 57.3 10.7625C56.9174 10.9625 56.6145 11.2406 56.3912 11.5969C56.1744 11.9469 56.066 12.3532 56.066 12.8156V19.2H53.9997Z" fill="#D2D2D2"/>
<path d="M18.221 20.376C17.8129 20.376 17.4129 20.304 17.021 20.16C16.6455 20 16.3435 19.816 16.1149 19.608C15.8863 19.4 15.7803 19.2 15.7965 19.008C15.8128 18.752 15.9027 18.552 16.0659 18.408C16.2292 18.264 16.4905 18.216 16.8496 18.264C17.4047 18.376 17.9679 18.416 18.5394 18.384C19.1109 18.336 19.6414 18.224 20.1312 18.048C20.6373 17.872 21.0456 17.632 21.3557 17.328C21.7965 16.912 22.0252 16.56 22.0414 16.272C22.0577 15.968 21.8292 15.664 21.3557 15.36C21.1435 15.216 20.8822 15.08 20.5721 14.952C20.2619 14.824 19.9516 14.728 19.6414 14.664C19.3476 14.584 19.0864 14.552 18.8578 14.568C18.7108 14.584 18.5312 14.56 18.319 14.496C18.1068 14.416 17.8945 14.32 17.6823 14.208C17.5843 14.096 17.4945 13.912 17.4129 13.656C17.3312 13.4 17.2741 13.24 17.2414 13.176C17.2252 13.096 17.2822 13 17.4129 12.888C17.5435 12.776 17.8047 12.608 18.1965 12.384C18.5884 12.144 19.1599 11.824 19.9108 11.424C20.5965 11.056 21.119 10.776 21.4782 10.584C21.8537 10.376 22.1394 10.216 22.3353 10.104C22.5475 9.976 22.7272 9.84801 22.8741 9.72C23.07 9.496 23.1598 9.328 23.1435 9.216C23.1272 9.10401 22.9068 9.00801 22.4823 8.928C22.0741 8.896 21.7476 8.896 21.5027 8.928C21.2578 8.944 21.1353 8.98401 21.1353 9.048C21.1353 9.048 21.1271 9.048 21.1108 9.048C21.1108 9.048 21.0863 9.048 21.0374 9.048C20.9557 9.016 20.7762 9.024 20.4986 9.072C20.221 9.12 19.9516 9.17601 19.6904 9.24C19.4455 9.304 19.3149 9.36 19.2986 9.408C19.2823 9.44001 19.1679 9.496 18.9557 9.576C18.7598 9.64 18.5557 9.696 18.3435 9.744C18.1476 9.792 18.0251 9.816 17.9761 9.816C17.8945 9.784 17.7965 9.672 17.6823 9.48C17.5843 9.288 17.5026 9.088 17.4374 8.88C17.3721 8.656 17.3557 8.50401 17.3884 8.424C17.4211 8.36001 17.5353 8.26401 17.7312 8.136C17.9434 7.992 18.1803 7.848 18.4414 7.704C18.7026 7.54401 18.923 7.42401 19.1027 7.344C19.3313 7.28001 19.6659 7.224 20.1068 7.176C20.5639 7.11201 21.0129 7.06401 21.4537 7.032C21.9108 6.984 22.2374 6.96801 22.4333 6.984C23.1843 7.06401 23.7884 7.25601 24.2455 7.56C24.7026 7.848 24.9965 8.31201 25.1272 8.952C25.1761 9.17601 25.1761 9.408 25.1272 9.648C25.0782 9.888 24.972 10.128 24.8088 10.368C24.6456 10.608 24.4007 10.872 24.0741 11.16C23.666 11.416 23.3476 11.632 23.119 11.808C22.9068 11.968 22.6129 12.136 22.2374 12.312C22.1231 12.392 21.9435 12.48 21.6986 12.576C21.4537 12.672 21.2251 12.76 21.0129 12.84C20.8007 12.92 20.6945 12.976 20.6945 13.008C20.6945 13.008 20.768 13.024 20.9149 13.056C21.0781 13.072 21.2496 13.104 21.4292 13.152C21.6251 13.184 21.7639 13.24 21.8455 13.32C22.319 13.48 22.7517 13.76 23.1435 14.16C23.5516 14.544 23.8374 14.848 24.0006 15.072C24.2292 15.568 24.2537 16.112 24.0741 16.704C23.9109 17.28 23.6088 17.832 23.168 18.36C22.7434 18.872 22.2456 19.296 21.6741 19.632C21.217 19.888 20.6537 20.072 19.9843 20.184C19.3313 20.28 18.7435 20.344 18.221 20.376Z" fill="#7D7D7D"/>
</svg>
