<svg width="49" height="20" viewBox="0 0 49 20" fill="none" xmlns="http://www.w3.org/2000/svg">
<path d="M0.8125 19.2656V7.26562H2.45312V8.6875H2.59375C2.69792 8.50521 2.84115 8.29427 3.02344 8.05469C3.21094 7.8151 3.47135 7.60677 3.80469 7.42969C4.13802 7.2474 4.57292 7.15625 5.10938 7.15625C5.8125 7.15625 6.4375 7.33333 6.98438 7.6875C7.53646 8.04167 7.97135 8.55469 8.28906 9.22656C8.60677 9.89844 8.76562 10.7083 8.76562 11.6562C8.76562 12.5938 8.60938 13.401 8.29688 14.0781C7.98438 14.75 7.55208 15.2682 7 15.6328C6.45312 15.9922 5.82552 16.1719 5.11719 16.1719C4.59115 16.1719 4.15885 16.0833 3.82031 15.9062C3.48698 15.724 3.22396 15.513 3.03125 15.2734C2.84375 15.0339 2.69792 14.8229 2.59375 14.6406H2.5V19.2656H0.8125ZM4.75 14.7266C5.25521 14.7266 5.67708 14.5911 6.01562 14.3203C6.35417 14.0495 6.60938 13.6823 6.78125 13.2188C6.95833 12.75 7.04688 12.224 7.04688 11.6406C7.04688 11.0625 6.96094 10.5443 6.78906 10.0859C6.61719 9.6276 6.36198 9.26562 6.02344 9C5.6849 8.73438 5.26042 8.60156 4.75 8.60156C4.25521 8.60156 3.83854 8.72917 3.5 8.98438C3.16146 9.23438 2.90365 9.58854 2.72656 10.0469C2.55469 10.5 2.46875 11.0312 2.46875 11.6406C2.46875 12.25 2.55729 12.7865 2.73438 13.25C2.91146 13.7135 3.16927 14.0755 3.50781 14.3359C3.85156 14.5964 4.26562 14.7266 4.75 14.7266ZM9.2 16V7.26562H10.8328V8.66406H10.9266C11.088 8.19531 11.3693 7.82552 11.7703 7.55469C12.1766 7.27865 12.6349 7.14062 13.1453 7.14062C13.2495 7.14062 13.3719 7.14583 13.5125 7.15625C13.6583 7.16146 13.7755 7.16927 13.8641 7.17969V8.80469C13.7964 8.78385 13.674 8.76302 13.4969 8.74219C13.325 8.72135 13.1505 8.71094 12.9734 8.71094C12.5724 8.71094 12.213 8.79688 11.8953 8.96875C11.5828 9.13542 11.3354 9.36719 11.1531 9.66406C10.976 9.95573 10.8875 10.2943 10.8875 10.6797V16H9.2Z" fill="black"/>
<path d="M22.375 13.0391L22.3516 10.9688H22.6562L26.1328 7.26562H28.1641L24.2031 11.4844H23.9219L22.375 13.0391ZM20.8125 16V4.35938H22.5V16H20.8125ZM26.3125 16L23.1875 11.8594L24.3594 10.6641L28.4062 16H26.3125ZM29.9344 10.8203V16H28.2469V4.35938H29.9109V8.70312H30.0281C30.2312 8.22917 30.5411 7.85417 30.9578 7.57812C31.3797 7.29688 31.9292 7.15625 32.6062 7.15625C33.2052 7.15625 33.7286 7.27865 34.1766 7.52344C34.6245 7.76823 34.9734 8.13542 35.2234 8.625C35.4786 9.11458 35.6062 9.72396 35.6062 10.4531V16H33.9031V10.6562C33.9031 10.0104 33.7365 9.51042 33.4031 9.15625C33.075 8.80208 32.6167 8.625 32.0281 8.625C31.6219 8.625 31.2625 8.71354 30.95 8.89062C30.6375 9.0625 30.3901 9.3099 30.2078 9.63281C30.0255 9.95573 29.9344 10.3516 29.9344 10.8203ZM38.9625 16.1875C38.4104 16.1875 37.9104 16.0859 37.4625 15.8828C37.0146 15.6745 36.6604 15.3724 36.4 14.9766C36.1396 14.5807 36.0094 14.099 36.0094 13.5312C36.0094 13.0365 36.1031 12.6328 36.2906 12.3203C36.4833 12.0026 36.7411 11.75 37.0641 11.5625C37.387 11.375 37.7464 11.2344 38.1422 11.1406C38.538 11.0469 38.9443 10.974 39.3609 10.9219C39.887 10.8646 40.3115 10.8151 40.6344 10.7734C40.9573 10.7318 41.1917 10.6667 41.3375 10.5781C41.4885 10.4844 41.5641 10.3359 41.5641 10.1328V10.0938C41.5641 9.59896 41.4234 9.21615 41.1422 8.94531C40.8661 8.67448 40.4547 8.53906 39.9078 8.53906C39.3401 8.53906 38.8896 8.66406 38.5562 8.91406C38.2281 9.15885 38.0016 9.4375 37.8766 9.75L36.275 9.38281C36.4677 8.85156 36.7464 8.42448 37.1109 8.10156C37.4807 7.77344 37.9026 7.53385 38.3766 7.38281C38.8557 7.23177 39.3557 7.15625 39.8766 7.15625C40.2255 7.15625 40.5953 7.19792 40.9859 7.28125C41.3766 7.35938 41.7437 7.50781 42.0875 7.72656C42.4365 7.9401 42.7203 8.2474 42.9391 8.64844C43.1578 9.04948 43.2672 9.56771 43.2672 10.2031V16H41.6031V14.8047H41.5406C41.4365 15.0182 41.2724 15.2318 41.0484 15.4453C40.8297 15.6589 40.5484 15.8359 40.2047 15.9766C39.8609 16.1172 39.4469 16.1875 38.9625 16.1875ZM39.3297 14.8281C39.8036 14.8281 40.2073 14.737 40.5406 14.5547C40.874 14.3672 41.1292 14.1224 41.3062 13.8203C41.4833 13.5182 41.5719 13.1979 41.5719 12.8594V11.7266C41.5094 11.7839 41.3922 11.8385 41.2203 11.8906C41.0484 11.9427 40.8531 11.987 40.6344 12.0234C40.4156 12.0599 40.2021 12.0938 39.9937 12.125C39.7854 12.151 39.6109 12.1719 39.4703 12.1875C39.1422 12.2344 38.8427 12.3073 38.5719 12.4062C38.301 12.5 38.0823 12.6406 37.9156 12.8281C37.7542 13.0104 37.6734 13.2526 37.6734 13.5547C37.6734 13.9766 37.8297 14.2943 38.1422 14.5078C38.4547 14.7214 38.8505 14.8281 39.3297 14.8281ZM44.1 16V7.26562H45.7328V8.66406H45.8266C45.988 8.19531 46.2693 7.82552 46.6703 7.55469C47.0766 7.27865 47.5349 7.14062 48.0453 7.14062C48.1495 7.14062 48.2719 7.14583 48.4125 7.15625C48.5583 7.16146 48.6755 7.16927 48.7641 7.17969V8.80469C48.6964 8.78385 48.574 8.76302 48.3969 8.74219C48.225 8.72135 48.0505 8.71094 47.8734 8.71094C47.4724 8.71094 47.113 8.79688 46.7953 8.96875C46.4828 9.13542 46.2354 9.36719 46.0531 9.66406C45.876 9.95573 45.7875 10.2943 45.7875 10.6797V16H44.1Z" fill="black"/>
<path d="M14.88 16.98C14.5467 16.98 14.22 16.92 13.9 16.8C13.5933 16.6667 13.3467 16.5133 13.16 16.34C12.9733 16.1667 12.8867 16 12.9 15.84C12.9133 15.6267 12.9867 15.46 13.12 15.34C13.2533 15.22 13.4667 15.18 13.76 15.22C14.2133 15.3133 14.6733 15.3467 15.14 15.32C15.6067 15.28 16.04 15.1867 16.44 15.04C16.8533 14.8933 17.1867 14.6933 17.44 14.44C17.8 14.0933 17.9867 13.8 18 13.56C18.0133 13.3067 17.8267 13.0533 17.44 12.8C17.2667 12.68 17.0533 12.5667 16.8 12.46C16.5467 12.3533 16.2933 12.2733 16.04 12.22C15.8 12.1533 15.5867 12.1267 15.4 12.14C15.28 12.1533 15.1333 12.1333 14.96 12.08C14.7867 12.0133 14.6133 11.9333 14.44 11.84C14.36 11.7467 14.2867 11.5933 14.22 11.38C14.1533 11.1667 14.1067 11.0333 14.08 10.98C14.0667 10.9133 14.1133 10.8333 14.22 10.74C14.3267 10.6467 14.54 10.5067 14.86 10.32C15.18 10.12 15.6467 9.85333 16.26 9.52C16.82 9.21333 17.2467 8.98 17.54 8.82C17.8467 8.64667 18.08 8.51333 18.24 8.42C18.4133 8.31333 18.56 8.20667 18.68 8.1C18.84 7.91333 18.9133 7.77333 18.9 7.68C18.8867 7.58667 18.7067 7.50667 18.36 7.44C18.0267 7.41333 17.76 7.41333 17.56 7.44C17.36 7.45333 17.26 7.48667 17.26 7.54C17.26 7.54 17.2533 7.54 17.24 7.54C17.24 7.54 17.22 7.54 17.18 7.54C17.1133 7.51333 16.9667 7.52 16.74 7.56C16.5133 7.6 16.2933 7.64667 16.08 7.7C15.88 7.75333 15.7733 7.8 15.76 7.84C15.7467 7.86667 15.6533 7.91333 15.48 7.98C15.32 8.03333 15.1533 8.08 14.98 8.12C14.82 8.16 14.72 8.18 14.68 8.18C14.6133 8.15333 14.5333 8.06 14.44 7.9C14.36 7.74 14.2933 7.57333 14.24 7.4C14.1867 7.21333 14.1733 7.08667 14.2 7.02C14.2267 6.96667 14.32 6.88667 14.48 6.78C14.6533 6.66 14.8467 6.54 15.06 6.42C15.2733 6.28667 15.4533 6.18667 15.6 6.12C15.7867 6.06667 16.06 6.02 16.42 5.98C16.7933 5.92667 17.16 5.88667 17.52 5.86C17.8933 5.82 18.16 5.80667 18.32 5.82C18.9333 5.88667 19.4267 6.04667 19.8 6.3C20.1733 6.54 20.4133 6.92667 20.52 7.46C20.56 7.64667 20.56 7.84 20.52 8.04C20.48 8.24 20.3933 8.44 20.26 8.64C20.1267 8.84 19.9267 9.06 19.66 9.3C19.3267 9.51333 19.0667 9.69333 18.88 9.84C18.7067 9.97333 18.4667 10.1133 18.16 10.26C18.0667 10.3267 17.92 10.4 17.72 10.48C17.52 10.56 17.3333 10.6333 17.16 10.7C16.9867 10.7667 16.9 10.8133 16.9 10.84C16.9 10.84 16.96 10.8533 17.08 10.88C17.2133 10.8933 17.3533 10.92 17.5 10.96C17.66 10.9867 17.7733 11.0333 17.84 11.1C18.2267 11.2333 18.58 11.4667 18.9 11.8C19.2333 12.12 19.4667 12.3733 19.6 12.56C19.7867 12.9733 19.8067 13.4267 19.66 13.92C19.5267 14.4 19.28 14.86 18.92 15.3C18.5733 15.7267 18.1667 16.08 17.7 16.36C17.3267 16.5733 16.8667 16.7267 16.32 16.82C15.7867 16.9 15.3067 16.9533 14.88 16.98Z" fill="#9A9A9A"/>
</svg>
