<svg width="404" height="756" viewBox="0 0 404 756" fill="none" xmlns="http://www.w3.org/2000/svg">
<path d="M341.056 755.745C277.369 755.745 213.681 755.745 149.547 755.34C149.949 749.353 150.836 743.776 151.637 738.188C153.122 727.831 155.002 717.506 155.92 707.097C157.8 685.768 158.043 664.248 164.519 643.535C165.029 641.902 164.586 639.971 164.586 638.179C164.148 638.044 163.709 637.91 163.271 637.776C162.44 638.658 161.2 639.404 160.852 640.448C159.76 643.724 158.45 647.074 158.218 650.464C157.395 662.479 153.781 665.132 142.4 661.463C140.973 661.003 139.592 660.324 138.133 660.057C126.702 657.963 115.305 655.587 103.798 654.035C96.7847 653.089 96.3611 652.942 97.3783 646C100.007 628.061 108.516 612.48 118.02 597.716C129.449 579.963 143.04 563.753 159.14 549.797C164.012 545.574 168.161 540.497 172.474 535.663C173.375 534.653 173.539 532.986 174.425 531.652C176.428 532.375 178.151 532.897 179.65 533.794C183.319 535.99 186.629 539.008 190.536 540.547C208.326 547.556 226.556 548.353 245.335 544.623C253.735 542.955 261.964 541.912 268.672 535.94C269.301 535.38 271.982 535.971 272.7 536.851C277.189 542.355 281.787 547.843 285.575 553.826C289.207 559.566 291.658 566.04 295.051 571.948C306.55 591.972 315.817 612.98 320.875 635.496C326.699 661.427 331.857 687.528 336.47 713.701C338.912 727.555 339.585 741.721 341.056 755.745Z" fill="#1F1E69"/>
<path d="M143.057 755.745C108.036 755.745 73.0149 755.745 37.584 755.365C39.5852 754.015 41.9532 752.362 44.4159 752.206C51.3764 751.765 58.377 751.82 65.3594 751.897C75.0318 752.005 77.1027 750.49 79.4078 740.862C85.3317 716.118 91.2355 691.369 97.1441 666.622C98.7177 660.031 99.263 659.55 105.909 660.959C119.55 663.85 133.162 666.883 146.775 669.91C153.514 671.408 153.582 671.466 153.1 678.597C152.665 685.024 152.029 691.437 151.377 698.171C151.294 698.924 151.315 699.362 151.127 700.141C150.495 704.616 150.229 708.773 149.619 712.879C147.496 727.177 145.254 741.458 143.057 755.745Z" fill="#E1B087"/>
<path d="M151.335 699.8C151.314 699.362 151.294 698.924 151.684 697.979C153.049 690.28 153.956 683.08 154.975 675.896C155.594 671.531 153.463 669.465 149.468 668.536C137.525 665.762 125.634 662.755 113.657 660.145C109.471 659.232 105.076 658.814 100.808 658.98C99.1551 659.044 96.5859 661.081 96.1563 662.682C94.2681 669.717 93.1541 676.956 91.4932 684.058C87.7544 700.046 83.9086 716.01 79.9884 731.954C79.0437 735.796 77.7982 739.587 76.3698 743.277C75.7948 744.763 74.5254 747.336 72.9912 743.347C74.338 738.656 75.7222 734.38 76.8184 730.032C81.7772 710.36 86.8395 690.711 91.4311 670.952C92.5773 666.02 95.0891 660.716 91.4569 655.541C91.0092 654.903 91.3669 653.583 91.5704 652.625C92.6364 647.605 93.7532 642.597 94.8886 637.592C99.7469 616.179 110.63 597.811 123.718 580.552C128.2 574.64 132.608 568.672 137.051 562.729C137.687 561.906 138.324 561.083 139.555 560.065C144.184 555.696 148.219 551.522 152.254 547.349C152.679 546.915 153.103 546.482 154.143 545.902C156.855 543.962 158.863 542.046 161.071 540.401C165.348 537.216 169.739 534.182 174.073 531.22C174.064 531.354 174.043 531.621 174.043 531.621C173.539 532.985 173.375 534.652 172.474 535.662C168.161 540.497 164.012 545.573 159.14 549.797C143.04 563.752 129.449 579.962 118.02 597.715C108.516 612.48 100.007 628.06 97.3784 645.999C96.3612 652.941 96.7848 653.089 103.798 654.035C115.305 655.587 126.702 657.962 138.134 660.056C139.592 660.324 140.973 661.002 142.4 661.462C153.781 665.131 157.395 662.479 158.218 650.463C158.451 647.073 159.76 643.723 160.852 640.447C161.2 639.404 162.44 638.657 163.271 637.775C163.71 637.909 164.148 638.044 164.586 638.178C164.586 639.971 165.029 641.901 164.519 643.534C158.043 664.247 157.8 685.767 155.92 707.096C155.002 717.505 153.122 727.83 151.637 738.187C150.836 743.776 149.949 749.352 149.079 755.339C147.99 755.745 146.923 755.745 145.426 755.326C147.108 741.296 149.4 727.709 151.232 714.06C151.86 709.386 151.334 704.558 151.335 699.8Z" fill="#05040C"/>
<path d="M174.425 531.652C174.043 531.622 174.064 531.354 174.136 530.721C174.065 525.189 173.921 520.29 173.778 515.392C173.76 514.735 173.742 514.079 174.099 512.798C174.415 505.276 174.496 498.371 174.158 491.487C174.103 490.364 172.389 488.878 171.112 488.332C163.398 485.031 155.588 481.956 147.936 478.521C147.981 477.268 147.9 476.3 148.182 475.39C151.305 476.526 154.064 477.605 156.948 478.944C157.782 479.349 158.491 479.494 159.5 479.719C160.144 480.026 160.487 480.254 160.934 480.763C161.754 481.248 162.469 481.451 163.453 481.695C164.041 481.904 164.36 482.072 164.656 482.234C164.634 482.229 164.626 482.275 164.454 482.355C164.531 482.864 164.78 483.293 165.149 483.812C165.27 483.902 165.697 483.956 165.697 483.956C165.697 483.956 166.07 483.723 166.486 483.729C167.433 483.598 167.965 483.461 168.772 483.354C169.382 483.534 169.716 483.685 170.001 484.071C169.952 484.304 170.081 484.763 170.022 484.777C169.962 484.79 170.044 484.726 170.305 484.772C171.033 484.646 171.5 484.475 172.361 484.291C173.783 484.457 174.811 484.635 175.988 485.064C177.76 485.586 179.383 485.858 181.375 486.123C184.185 486.699 186.628 487.281 189.292 488.156C191.168 488.748 192.821 489.047 194.861 489.327C197.526 489.849 199.804 490.391 202.239 491.189C203.285 491.877 204.175 492.311 204.963 493.114C203.055 493.796 201.136 494.659 199.458 494.322C193.752 493.176 188.146 491.542 182.47 490.23C180.136 489.691 177.592 489.308 177.528 493C177.358 502.79 177.352 512.586 176.987 522.368C176.829 526.594 178.622 529.054 182.027 531.282C190.02 536.513 198.886 538.773 208.115 540.625C224.337 543.88 240.138 543.101 255.787 537.798C260.508 536.198 263.896 533.816 262.95 527.644C264.045 528.457 264.791 529.412 265.251 529.29C270.89 527.796 274.009 531.688 276.895 535.13C281.251 540.324 285.356 545.794 288.975 551.521C292.158 556.56 294.436 562.163 297.275 567.43C306.682 584.884 316.196 602.384 321.159 621.677C327.369 645.82 333.349 670.075 337.963 694.558C341.768 714.745 343.439 735.334 346.056 755.745C344.668 755.745 343.279 755.745 341.473 755.745C339.585 741.72 338.912 727.555 336.47 713.701C331.857 687.527 326.7 661.426 320.875 635.496C315.818 612.979 306.55 591.971 295.051 571.947C291.658 566.039 289.208 559.565 285.575 553.826C281.787 547.842 277.189 542.355 272.7 536.851C271.982 535.97 269.302 535.379 268.672 535.94C261.965 541.912 253.735 542.954 245.335 544.623C226.556 548.353 208.326 547.556 190.537 540.547C186.63 539.008 183.32 535.989 179.65 533.793C178.152 532.896 176.428 532.375 174.425 531.652Z" fill="#05040C"/>
<path d="M346.432 755.745C343.44 735.334 341.768 714.745 337.963 694.558C333.349 670.075 327.369 645.82 321.159 621.677C316.196 602.384 306.682 584.884 297.276 567.43C294.437 562.163 292.159 556.56 288.975 551.52C285.356 545.793 281.252 540.323 276.896 535.13C274.009 531.688 270.891 527.796 265.251 529.29C264.791 529.412 264.046 528.457 262.95 527.643C263.897 533.816 260.508 536.198 255.788 537.798C240.138 543.101 224.338 543.879 208.116 540.624C198.887 538.772 190.021 536.512 182.027 531.282C178.622 529.054 176.829 526.594 176.987 522.368C177.352 512.586 177.358 502.79 177.529 493C177.593 489.307 180.137 489.69 182.471 490.23C188.146 491.542 193.752 493.176 199.459 494.322C201.136 494.659 203.055 493.796 205.36 493.076C206.371 492.544 206.886 492.417 207.394 492.425C207.389 492.558 207.122 492.552 207.153 492.967C208.215 494.183 209.26 495.694 210.274 495.673C218.364 495.513 226.454 495.152 234.524 494.577C235.433 494.513 236.219 492.736 237.412 491.849C240.408 493.408 243.264 496.287 245.191 490.846C245.663 490.778 245.853 490.764 246.302 491.012C250.787 491.173 255.135 491.658 259.207 490.812C263.586 489.902 266.466 489.903 266.331 496.082C267.159 493.575 267.706 491.922 268.415 490.337C268.579 490.404 268.916 490.509 268.916 490.509C268.429 499.779 268.07 509.058 267.4 518.314C267.08 522.742 267.64 525.421 271.976 528.672C278.732 533.736 285.007 540.432 289.179 547.751C298.478 564.062 306.885 580.942 314.673 598.038C325.016 620.743 330.268 645.082 334.918 669.449C339.435 693.123 343.215 716.939 347.163 740.718C347.949 745.456 348.032 750.312 348.748 755.429C348.307 755.745 347.557 755.745 346.432 755.745ZM182.115 492.132C181.32 493.403 179.905 494.638 179.83 495.951C179.343 504.416 179.376 512.915 178.764 521.369C178.452 525.678 179.934 528.679 183.642 530.21C190.519 533.048 197.382 536.305 204.581 537.903C222.008 541.773 239.489 542.642 256.49 535.31C259.553 533.989 261.262 532.369 261.41 528.762C261.785 519.644 262.548 510.542 263.173 501.434C263.37 498.563 263.622 495.694 263.89 492.302C236.411 496.893 209.627 501.38 182.115 492.132Z" fill="#362C16"/>
<path d="M72.8965 743.729C74.5259 747.336 75.7952 744.762 76.3703 743.277C77.7986 739.587 79.0442 735.796 79.9888 731.954C83.909 716.01 87.7549 700.046 91.4936 684.058C93.1546 676.956 94.2685 669.717 96.1568 662.681C96.5863 661.081 99.1556 659.044 100.809 658.98C105.077 658.814 109.472 659.232 113.657 660.144C125.635 662.755 137.526 665.761 149.469 668.536C153.464 669.465 155.594 671.531 154.975 675.896C153.956 683.08 153.05 690.28 151.789 697.664C152.029 691.437 152.665 685.024 153.1 678.597C153.582 671.466 153.514 671.408 146.775 669.91C133.162 666.883 119.551 663.85 105.909 660.959C99.2632 659.55 98.7178 660.031 97.1443 666.622C91.2356 691.369 85.3318 716.118 79.4079 740.861C77.1028 750.49 75.032 752.005 65.3595 751.897C58.3771 751.819 51.3765 751.765 44.416 752.206C41.9533 752.362 39.5853 754.015 37.1154 755.364C35.9901 755.745 34.9234 755.745 33.6367 755.456C38.2034 751.561 43.3896 749.611 49.5885 749.782C55.1317 749.935 60.7026 749.083 66.6544 748.684C69.5706 748.683 72.1591 748.754 71.6964 744.993C71.4116 744.787 71.3288 744.52 71.8752 743.987C72.5004 743.766 72.6984 743.748 72.8965 743.729Z" fill="#3D311C"/>
<path d="M66.2611 748.675C60.7025 749.084 55.1316 749.935 49.5884 749.782C43.3895 749.611 38.2033 751.561 33.2366 755.456C31.015 755.745 28.9733 755.745 26.5354 755.442C26.5099 754.199 26.8806 753.26 27.2513 752.321C27.3655 752.195 27.4796 752.068 28.1972 751.882C37.1964 747.264 45.7813 743.82 55.6125 746.852C56.4389 747.107 57.5126 746.56 58.4714 746.385C58.8207 746.365 59.17 746.345 59.9878 746.709C62.3912 747.621 64.3262 748.148 66.2611 748.675Z" fill="#030302"/>
<path d="M151.127 700.142C151.334 704.558 151.86 709.387 151.233 714.061C149.401 727.71 147.108 741.297 145.027 755.327C144.612 755.746 144.168 755.746 143.39 755.746C145.254 741.458 147.496 727.178 149.62 712.88C150.229 708.773 150.495 704.616 151.127 700.142Z" fill="#3D311C"/>
<path d="M26.9409 752.28C26.8806 753.26 26.5099 754.199 26.0979 755.442C25.3066 755.745 24.5566 755.745 23.4316 755.745C24.2479 754.576 25.4392 753.408 26.9409 752.28Z" fill="#493D18"/>
<path d="M344.366 5.51726C345.085 5.88021 345.804 6.24317 346.83 7.12417C347.753 8.19315 348.392 8.72089 348.983 9.29857C355.509 15.6857 363.932 21.0454 368.105 28.7159C374.38 40.251 378.723 53.1433 381.936 65.9482C384.887 77.7075 385.063 90.1425 386.807 102.23C389.679 122.139 396.968 141.039 399.075 161.295C400.741 177.321 401.241 193.08 399.863 208.997C399.689 211.015 398.028 212.904 397.063 214.504C397.054 213.694 397.038 213.233 396.975 212.426C395.413 211.203 393.986 210.072 392.362 209.518C390.547 208.899 388.445 209.089 386.664 208.411C384.257 207.495 382.038 206.087 379.445 204.738C377.416 209.285 374.375 212.958 377.164 218.062C377.824 219.506 378.436 220.626 379.073 222.04C379.125 222.531 379.152 222.727 379.007 222.983C378.631 223.187 378.479 223.371 377.98 223.629C377.053 223.689 376.523 223.716 375.831 223.425C370.141 212.207 364.926 201.128 358.923 190.495C356.598 186.376 352.487 183.265 349.041 179.596C348.893 179.497 348.807 179.151 348.847 178.774C346.197 173.444 343.412 168.541 340.845 163.526C338.317 158.586 334.747 156.689 328.923 156.577C318.229 156.371 307.284 158.954 296.805 154.507C295.662 154.022 293.902 154.782 292.488 155.177C278.53 159.077 264.423 159.831 250.043 157.957C237.056 156.265 223.999 155.098 210.96 153.83C209.052 153.644 207.074 154.184 204.798 154.435C204.035 154.379 203.605 154.276 202.958 153.872C195.547 153.148 188.325 152.188 181.167 152.536C177.723 152.703 175.241 152.942 173.423 149.297C173.374 148.262 173.465 147.56 173.861 146.699C174.211 145.176 174.256 143.813 174.301 142.45C172.882 142.424 171.395 142.122 170.065 142.453C168.836 142.758 167.751 143.705 166.645 144.433C161.939 147.533 157.148 148.601 151.206 148.261C144.118 147.855 136.345 148.609 129.836 151.248C118.306 155.923 109.69 164.865 101.781 174.5C92.3033 186.046 86.3699 199.447 79.8518 212.828C77.9561 213.69 76.4057 214.502 74.5027 215.498C73.7381 213.68 73.4585 211.846 72.4073 210.753C69.9857 208.235 67.5038 204.818 64.4734 204.062C59.5477 202.832 56.4105 200.396 54.6848 196.009C53.0785 191.926 51.935 187.662 50.4719 183.117C46.2294 184.724 44.393 182.296 43.5214 177.94C43.0083 175.376 41.8892 172.873 40.6962 170.519C38.9423 167.057 36.0296 167.018 33.8439 170.215C30.5173 175.081 30.0481 180.268 32.0527 186.077C32.0526 186.854 32.0525 187.298 32.0373 187.992C32.0064 188.41 31.9906 188.577 31.6147 188.652C30.5194 187.047 29.7811 185.535 29.0499 184.019C28.0411 181.928 27.0376 179.834 26.0264 177.332C27.2383 170.394 28.6291 163.893 29.6406 157.334C32.6583 137.764 42.1538 122.635 59.3419 112.365C62.1343 110.697 65.4582 107.796 66.0648 104.939C69.6875 87.8823 81.2407 77.0777 94.6853 68.0346C102.335 62.8895 110.91 59.0655 119.239 54.9972C139.912 44.9005 161.32 36.8549 183.802 31.6383C199.199 28.0657 214.542 24.0685 226.965 13.2785C227.797 12.5555 229.74 12.4108 230.854 12.8292C236.885 15.0944 242.793 17.6857 248.791 20.0429C256.788 23.1857 264.364 21.2959 270.986 16.7418C275.981 13.3069 280.166 8.66298 284.569 4.40925C287.578 1.50143 291.117 1.28668 294.197 3.25196C305.174 10.2582 318.681 13.8413 325.989 26.9705C327.082 24.8418 328.211 23.3516 328.635 21.6824C329.738 17.3398 330.61 12.9329 331.428 8.5245C332.145 4.65603 332.527 0.882395 338.074 4.311C339.771 5.36019 342.247 5.15047 344.366 5.51726Z" fill="#060505"/>
<path d="M344.237 5.20566C342.246 5.15085 339.771 5.36057 338.073 4.31138C332.527 0.882775 332.145 4.65641 331.427 8.52488C330.609 12.9333 329.738 17.3402 328.635 21.6828C328.21 23.352 327.082 24.8422 325.988 26.9709C318.681 13.8417 305.174 10.2586 294.196 3.25234C291.117 1.28707 287.578 1.50181 284.569 4.40963C280.166 8.66336 275.981 13.3073 270.986 16.7422C264.363 21.2963 256.787 23.1861 248.79 20.0433C242.792 17.6861 236.885 15.0948 230.854 12.8296C229.74 12.4112 227.797 12.5559 226.964 13.2788C214.542 24.0689 199.198 28.0661 183.802 31.6387C161.319 36.8553 139.912 44.9009 119.239 54.9976C110.91 59.0658 102.334 62.8898 94.6849 68.035C81.2403 77.078 69.6871 87.8826 66.0645 104.94C65.4579 107.796 62.134 110.697 59.3415 112.366C42.1534 122.635 32.658 137.765 29.6402 157.334C28.6287 163.894 27.238 170.395 25.9821 177.757C25.4386 191.018 23.7691 203.535 24.7312 215.848C25.8646 230.352 29.2672 244.679 31.7104 259.08C32.2481 262.249 31.3181 264.137 28.2331 265.846C24.4054 267.968 20.8465 270.866 17.7853 274.023C9.14227 282.938 5.24937 293.947 3.1469 306.129C0.19559 323.229 2.72521 339.265 10.0234 354.684C11.0094 356.767 13.9186 357.94 16.0354 359.72C18.2288 362.408 20.324 364.908 22.6604 367.705C29.8816 375.267 36.8254 376.686 45.8288 372.477C49.1286 370.934 52.1834 368.857 55.5123 367.392C56.6309 366.9 59.3579 367.268 59.474 367.722C60.7706 372.793 61.6998 377.958 62.728 383.098C61.0954 378.474 59.4627 373.849 57.6466 368.705C54.5272 370.313 51.8562 371.555 49.3149 373.022C39.4272 378.73 28.6294 375.524 20.1919 368.513C8.14056 358.5 2.32609 345.883 0.752978 331.555C-1.90072 307.386 1.86071 284.587 21.7337 267.444C21.9861 267.227 22.2108 266.909 22.5045 266.817C30.2442 264.382 29.9528 259.215 28.4345 252.473C26.1041 242.124 25.168 231.471 23.2507 221.018C20.2148 204.467 22.4188 188.135 24.993 171.841C26.3387 163.322 28.3589 154.903 30.26 146.481C33.6136 131.625 42.8499 120.965 55.2246 112.869C60.7153 109.277 64.663 105.25 66.3848 98.5366C70.2606 83.4252 81.7524 73.8557 94.0769 66.3204C107.617 58.0419 122.4 51.7459 136.828 44.9842C153.652 37.0997 171.581 32.6507 189.572 28.2226C202.285 25.0938 214.937 20.992 225.142 12.0421C227.909 9.61517 230.063 10.1837 233.17 11.7197C242.042 16.1041 251.004 21.4838 261.471 18.48C265.754 17.2507 269.718 14.4934 273.451 11.8924C276.564 9.72444 279.021 6.64214 281.957 4.18946C288.072 -0.920568 291.078 -1.33426 297.69 2.82952C306.805 8.56892 315.674 14.6975 324.661 20.6402C325.05 20.8975 325.566 20.9633 326.669 21.3376C327.419 18.0637 328.162 14.9198 328.851 11.7642C329.278 9.81365 329.533 7.82256 330.022 5.88935C331.491 0.0820866 332.689 -0.573934 337.964 1.68632C340.082 2.59341 342.064 3.81516 344.237 5.20566Z" fill="#493D18"/>
<path d="M397.056 214.853C398.028 212.904 399.689 211.015 399.863 208.997C401.241 193.08 400.742 177.322 399.075 161.296C396.968 141.04 389.68 122.14 386.807 102.23C385.063 90.143 384.887 77.708 381.936 65.9487C378.723 53.1438 374.38 40.2515 368.105 28.7164C363.932 21.046 355.51 15.6863 348.983 9.29909C348.392 8.72141 347.753 8.19366 347.056 7.3291C350.315 9.36651 353.914 11.4259 356.956 14.1158C377.129 31.9581 384.471 55.157 385.316 81.3127C385.564 88.9734 387.479 96.632 389.122 104.185C392.231 118.477 396.076 132.617 398.887 146.963C400.929 157.38 402.678 168.003 402.958 178.577C403.279 190.647 402.122 202.79 401.082 214.856C398.886 240.352 389.185 263.82 380.45 287.421C382.582 279.06 385.206 270.945 387.512 262.742C387.966 261.13 387.192 259.174 387.022 257.022C387.426 255.399 387.857 254.146 388.146 252.86C390.765 241.193 393.36 229.52 396.19 217.605C396.63 216.525 396.843 215.689 397.056 214.853Z" fill="#3D3315"/>
<path d="M350.923 440.215C350.271 440.869 349.618 441.523 348.436 442.336C347.589 442.551 347.281 442.642 346.742 442.738C346.218 442.879 345.936 443.05 345.042 443.108C345.157 441.426 345.581 439.596 346.668 438.336C350.888 433.442 355.319 428.729 359.959 423.856C360.489 423.054 360.732 422.343 361.094 421.304C364.309 414.285 367.404 407.594 370.796 400.753C375.419 391.298 378.212 381.655 377.476 371.086C377.381 370.683 377.419 370.456 377.699 369.768C377.451 363.72 377.644 358.017 376.494 352.599C374.3 342.267 371.34 332.098 369.057 321.834C369.893 321.78 370.371 321.754 370.914 322.118C373.998 331.252 377.016 339.997 380.035 348.741C380.163 349.074 380.292 349.407 380.272 350.458C380.809 356.708 381.493 362.239 382.178 367.77C382.26 369.484 382.341 371.197 381.983 373.606C381.494 375.943 381.447 377.584 381.399 379.225C381.385 379.864 381.371 380.503 380.95 381.695C380.477 383.22 380.411 384.191 380.345 385.162C380.363 385.518 380.381 385.873 380.004 386.73C377.502 394.523 375.395 401.813 373.288 409.104C372.838 410.116 372.389 411.129 371.385 412.473C368.915 416.467 367 420.13 365.084 423.793C365.036 423.953 364.988 424.113 364.463 424.521C363.7 425.468 363.414 426.167 363.127 426.866C363.127 426.866 362.993 427.32 362.513 427.535C361.72 428.438 361.408 429.126 361.096 429.813C361.096 429.813 360.956 430.292 360.456 430.501C359.31 431.697 358.664 432.684 358.019 433.672C356.56 435.28 355.102 436.888 353.046 438.591C351.94 439.195 351.432 439.705 350.923 440.215Z" fill="#080705"/>
<path d="M62.7252 383.383C61.7005 377.959 60.7713 372.793 59.4747 367.722C59.3586 367.268 56.6316 366.901 55.513 367.393C52.1841 368.857 49.1293 370.934 45.8295 372.477C36.8261 376.686 29.8823 375.267 23.1094 367.752C23.9607 367.651 24.7331 367.617 25.2301 367.97C33.3677 373.756 41.4791 372.554 49.5006 367.828C53.7229 365.34 57.7966 362.6 62.2303 359.788C62.5928 360.762 62.9345 361.327 63.0062 361.924C65.5488 383.115 71.7955 403.062 83.0124 421.318C83.7984 422.598 85.2001 423.499 86.5375 424.775C87.2274 425.846 87.6952 426.717 88.1172 427.898C88.6022 428.766 89.1329 429.324 89.8251 430.04C89.9864 430.199 90.1376 430.624 90.1012 430.933C90.6049 431.787 91.145 432.332 91.9174 433.114C93.1162 434.82 94.0828 436.289 95.0282 438.055C95.5377 438.868 96.0684 439.384 96.8496 440.133C99.1435 442.771 101.187 445.176 103.104 447.911C101.735 448.29 100.264 448.782 99.2999 448.288C97.5107 447.37 96.0172 445.875 94.4006 444.621C93.4014 443.477 92.4023 442.334 91.2869 440.583C90.3214 439.174 89.4722 438.373 88.6229 437.572C88.4981 437.455 88.3734 437.338 88.1784 436.668C87.2804 435.268 86.4524 434.42 85.6245 433.572C85.4976 433.46 85.3707 433.347 85.1584 432.648C83.232 429.571 81.3911 427.081 79.5502 424.591C79.0854 423.884 78.6207 423.177 78.1178 421.828C77.2418 419.987 76.404 418.788 75.5661 417.59C74.7114 415.957 73.8568 414.323 72.9933 411.973C70.0295 403.756 67.0747 396.257 64.1197 388.757C63.9886 388.407 63.8575 388.058 63.8356 387.1C63.652 385.91 63.3592 385.328 63.0665 384.747C62.9516 384.388 62.8366 384.028 62.7252 383.383Z" fill="#090706"/>
<path d="M370.849 321.728C370.371 321.754 369.893 321.78 368.877 321.469C368.409 317.865 368.049 314.52 368.637 311.35C370.108 303.419 372.098 295.585 373.694 287.675C374.317 284.586 375.011 281.091 370.041 280.457C370.066 279.343 370.081 278.6 370.471 277.826C371.958 276.789 373.072 275.784 374.467 274.678C374.538 273.626 374.327 272.673 373.897 271.514C373.119 270.485 372.562 269.661 372.026 268.475C372.062 267.87 372.077 267.628 372.484 267.443C375.911 267.594 377.62 266.555 376.504 262.878C376.498 261.997 376.577 261.405 376.97 260.525C378.902 247.999 379.588 235.795 375.993 223.743C376.523 223.715 377.053 223.688 378.197 223.586C378.811 223.511 379.233 223.358 379.264 223.425C379.294 223.492 379.361 223.625 379.324 223.941C379.801 224.851 380.316 225.445 380.853 226.444C381.082 228.733 381.289 230.615 381.394 232.849C381.623 234.044 381.955 234.889 382.277 236.163C382.274 238.313 382.28 240.034 382.008 242.068C381.73 250.614 381.73 258.846 381.73 267.077C382.157 267.163 382.584 267.248 383.011 267.333C383.663 265.772 384.314 264.21 385.019 262.3C385.709 260.426 386.347 258.901 386.984 257.375C387.192 259.173 387.966 261.129 387.512 262.741C385.206 270.945 382.582 279.059 380.171 287.616C379.763 289.668 379.252 291.308 378.254 293.418C375.955 299.971 374.142 306.054 372.33 312.137C372.319 312.498 372.308 312.86 371.93 313.771C371.325 316.789 371.087 319.259 370.849 321.728Z" fill="#030302"/>
<path d="M72.9919 743.347C72.6986 743.748 72.5006 743.766 72.0049 743.804C74.6772 732.26 77.7771 720.729 80.5853 709.126C84.3378 693.623 87.8754 678.068 91.4584 662.525C91.673 661.594 91.8791 660.255 91.4021 659.634C87.6053 654.688 90.2807 649.63 91.2512 644.799C96.9376 616.491 111.202 592.546 129.523 570.734C131.764 568.066 134.103 565.479 136.724 562.792C132.609 568.672 128.201 574.64 123.718 580.552C110.631 597.811 99.7475 616.179 94.8892 637.592C93.7538 642.596 92.6371 647.605 91.571 652.625C91.3676 653.582 91.0098 654.903 91.4576 655.541C95.0898 660.716 92.578 666.02 91.4317 670.952C86.8401 690.71 81.7778 710.36 76.819 730.032C75.7229 734.38 74.3386 738.656 72.9919 743.347Z" fill="#493D18"/>
<path d="M331.04 458.349C331.04 458.349 330.752 458.731 330.225 458.8C329.147 459.348 328.595 459.829 328.044 460.31C328.044 460.31 327.75 460.705 327.14 460.795C319.849 464.522 313.279 468.388 306.457 471.739C296.531 476.616 286.424 481.122 276.146 485.56C274.958 484.805 274.016 484.277 273.271 483.471C275.18 482.641 276.893 482.088 278.988 481.558C281.963 480.227 284.554 478.873 287.444 477.282C295.747 472.898 303.749 468.75 312.059 464.612C312.952 464.136 313.538 463.65 314.279 462.986C314.434 462.809 314.882 462.666 315.171 462.668C316.019 462.212 316.577 461.753 317.379 461.055C319.019 460.086 320.416 459.359 322.107 458.639C322.979 458.19 323.556 457.734 324.369 457.013C327.024 455.052 329.445 453.355 332.201 451.642C333.391 450.725 334.245 449.825 335.266 448.658C336.558 447.47 337.683 446.549 339.148 445.617C340.356 444.694 341.223 443.783 342.281 442.626C343.463 442.117 344.455 441.853 345.383 442.101C344.56 444.464 343.8 446.316 343.04 448.169C342.316 448.976 341.592 449.784 340.205 450.739C336.707 453.374 333.874 455.861 331.04 458.349Z" fill="#362C16"/>
<path d="M147.81 478.805C155.588 481.956 163.398 485.031 171.112 488.332C172.389 488.878 174.103 490.364 174.158 491.487C174.496 498.371 174.415 505.276 174.183 512.479C173.596 506.543 173.188 500.306 173.054 494.063C172.995 491.283 171.743 490.322 169.254 489.231C153.832 482.47 138.553 475.386 123.483 468.072C129.552 470.517 135.365 473.298 141.42 476.27C143.711 477.242 145.761 478.023 147.81 478.805Z" fill="#493D18"/>
<path d="M141.178 476.08C135.365 473.298 129.553 470.516 123.359 467.764C122.219 467.424 121.459 467.054 120.384 466.159C116.409 463.332 112.749 461.031 109.09 458.729C108.588 458.399 108.087 458.069 107.365 457.137C106.454 454.175 105.763 451.816 105.356 449.627C106.751 450.833 107.862 451.868 109.018 453.224C109.769 453.918 110.474 454.292 111.482 454.803C121.991 461.046 132.196 467.151 142.278 473.622C141.829 474.686 141.504 475.383 141.178 476.08Z" fill="#090706"/>
<path d="M276.394 485.786C286.424 481.122 296.532 476.616 306.457 471.74C313.28 468.388 319.849 464.522 326.902 460.856C316.515 467.081 305.961 473.728 294.933 479.459C286.852 483.659 278.147 486.657 269.318 490.35C268.916 490.51 268.579 490.404 268.641 490.044C271.267 488.385 273.831 487.086 276.394 485.786Z" fill="#3D3315"/>
<path d="M173.522 515.665C173.922 520.29 174.066 525.189 174.146 530.586C169.739 534.182 165.349 537.215 161.072 540.401C158.863 542.046 156.856 543.962 154.41 545.754C157.787 542.075 161.055 537.697 165.35 534.892C171.107 531.134 174.027 526.766 172.899 519.869C172.694 518.612 173.127 517.251 173.522 515.665Z" fill="#493D18"/>
<path d="M370.914 322.118C371.087 319.259 371.325 316.79 371.835 314.027C371.428 326.017 378.387 336.486 380.157 348.45C377.016 339.997 373.998 331.253 370.914 322.118Z" fill="#3D3315"/>
<path d="M58.217 746.125C57.5122 746.56 56.4386 747.107 55.6122 746.852C45.781 743.82 37.1961 747.264 28.4346 751.788C34.4642 745.784 42.0906 743.558 50.6766 744.478C53.1268 744.741 55.5354 745.391 58.217 746.125Z" fill="#493D18"/>
<path d="M105.072 449.457C105.763 451.816 106.454 454.176 107.187 456.892C102.98 453.256 98.7303 449.264 94.4404 444.946C96.0171 445.875 97.5105 447.37 99.2998 448.288C100.264 448.782 101.735 448.29 103.393 447.942C104.231 448.247 104.652 448.852 105.072 449.457Z" fill="#493D18"/>
<path d="M63.9893 389.037C67.074 396.256 70.0289 403.756 72.9247 411.634C69.8636 404.447 66.8615 396.883 63.9893 389.037Z" fill="#493D18"/>
<path d="M372.607 311.927C374.142 306.054 375.954 299.971 378.057 293.733C376.527 299.625 374.706 305.671 372.607 311.927Z" fill="#3D3315"/>
<path d="M373.581 408.921C375.395 401.814 377.502 394.523 379.889 386.976C378.071 394.058 375.972 401.398 373.581 408.921Z" fill="#3D3315"/>
<path d="M151.932 547.339C148.22 551.523 144.185 555.697 139.82 559.893C143.53 555.72 147.569 551.524 151.932 547.339Z" fill="#493D18"/>
<path d="M382.38 367.42C381.493 362.24 380.809 356.708 380.251 350.729C381.113 355.876 381.847 361.473 382.38 367.42Z" fill="#3D3315"/>
<path d="M66.654 748.685C64.3258 748.149 62.3909 747.621 60.2363 746.8C62.0312 746.599 64.0583 746.869 66.0561 746.728C67.7688 746.606 69.4482 746.014 71.4191 745.312C72.1586 748.755 69.5701 748.683 66.654 748.685Z" fill="#493D18"/>
<path d="M109.144 459.058C112.749 461.031 116.408 463.333 120.141 465.953C116.542 463.976 112.87 461.681 109.144 459.058Z" fill="#493D18"/>
<path d="M331.362 458.304C333.874 455.862 336.708 453.374 339.896 450.853C337.395 453.299 334.539 455.779 331.362 458.304Z" fill="#3D3315"/>
<path d="M365.396 423.685C366.999 420.13 368.915 416.467 371.136 412.699C369.529 416.255 367.619 419.916 365.396 423.685Z" fill="#3D3315"/>
<path d="M79.5254 424.933C81.3911 427.08 83.2321 429.571 85.0587 432.413C83.1965 430.268 81.3485 427.772 79.5254 424.933Z" fill="#493D18"/>
<path d="M343.339 448.116C343.801 446.317 344.56 444.465 345.553 442.334C345.805 442.47 345.825 442.885 346.119 443.146C346.591 442.918 346.788 442.843 346.984 442.769C347.281 442.642 347.589 442.551 348.146 442.527C346.803 444.394 345.22 446.228 343.339 448.116Z" fill="#3D3315"/>
<path d="M381.632 378.997C381.447 377.584 381.495 375.943 381.838 374.014C382.044 375.407 381.955 377.088 381.632 378.997Z" fill="#3D3315"/>
<path d="M75.5117 417.914C76.4042 418.788 77.242 419.986 78.032 421.52C77.1418 420.65 76.2995 419.444 75.5117 417.914Z" fill="#493D18"/>
<path d="M358.32 433.61C358.664 432.685 359.31 431.697 360.263 430.66C359.921 431.59 359.271 432.569 358.32 433.61Z" fill="#3D3315"/>
<path d="M88.6133 437.875C89.4718 438.372 90.321 439.173 91.1547 440.286C90.2941 439.791 89.4491 438.985 88.6133 437.875Z" fill="#493D18"/>
<path d="M85.5898 433.882C86.4518 434.42 87.2797 435.268 88.0821 436.43C87.223 435.894 86.3894 435.043 85.5898 433.882Z" fill="#493D18"/>
<path d="M380.574 385.002C380.411 384.191 380.477 383.22 380.822 381.991C381.002 382.77 380.903 383.806 380.574 385.002Z" fill="#3D3315"/>
<path d="M62.9248 384.938C63.3589 385.328 63.6517 385.909 63.8398 386.817C63.418 386.472 63.1007 385.8 62.9248 384.938Z" fill="#493D18"/>
<path d="M363.419 426.791C363.414 426.167 363.7 425.468 364.281 424.693C364.287 425.317 363.998 426.017 363.419 426.791Z" fill="#3D3315"/>
<path d="M361.389 429.748C361.408 429.126 361.72 428.438 362.331 427.688C362.314 428.312 361.998 428.997 361.389 429.748Z" fill="#3D3315"/>
<path d="M351.209 440.247C351.432 439.706 351.94 439.196 352.74 438.709C352.519 439.247 352.007 439.763 351.209 440.247Z" fill="#3D3315"/>
<path d="M328.325 460.281C328.596 459.83 329.147 459.349 329.991 458.85C329.725 459.305 329.165 459.778 328.325 460.281Z" fill="#3D3315"/>
<path d="M345.843 443.299C345.824 442.884 345.805 442.47 345.616 441.823C344.455 441.854 343.463 442.117 341.968 442.682C340.579 443.867 339.693 444.748 338.807 445.629C337.682 446.549 336.557 447.47 334.958 448.717C333.61 449.916 332.737 450.787 331.865 451.658C329.444 453.355 327.024 455.052 324.08 456.997C322.975 457.707 322.394 458.169 321.812 458.631C320.415 459.359 319.019 460.086 317.092 461.028C316.002 461.716 315.442 462.191 314.882 462.666C314.882 462.666 314.434 462.809 313.981 462.98C312.936 463.634 312.344 464.118 311.751 464.602C303.749 468.75 295.747 472.898 287.106 477.227C283.847 478.784 281.226 480.16 278.605 481.536C276.892 482.088 275.18 482.641 272.911 483.483C270.257 484.421 268.16 485.069 265.892 485.536C265.053 485.719 264.384 486.083 263.447 486.466C261.464 486.954 259.75 487.424 257.885 487.702C257.062 487.82 256.388 488.128 255.343 488.397C253.996 488.513 253.021 488.67 251.892 488.636C251.054 488.765 250.371 489.085 249.32 489.374C247.988 489.492 247.023 489.641 245.888 489.613C245.179 489.676 244.64 489.915 243.684 490.125C241.881 490.205 240.497 490.314 238.715 490.277C235.733 490.489 233.148 490.848 230.206 491.193C228.919 491.369 227.988 491.557 226.733 491.532C223.18 491.699 219.952 492.081 216.293 492.465C212.948 492.496 210.035 492.524 207.121 492.552C207.121 492.552 207.388 492.558 207.204 492.191C205.374 491.527 203.728 491.23 202.082 490.933C199.804 490.391 197.525 489.849 194.669 489.084C192.417 488.528 190.744 488.196 189.071 487.863C186.628 487.281 184.185 486.699 181.145 485.855C178.978 485.334 177.409 485.073 175.839 484.813C174.811 484.635 173.782 484.457 172.276 484.054C171.215 483.832 170.632 483.834 170.05 483.837C169.715 483.685 169.381 483.534 168.557 483.078C166.937 482.596 165.808 482.418 164.678 482.24C164.359 482.072 164.041 481.904 163.349 481.412C162.262 480.886 161.546 480.684 160.83 480.482C160.487 480.254 160.143 480.026 159.401 479.432C158.275 478.939 157.549 478.811 156.822 478.683C154.064 477.605 151.305 476.526 147.985 475.127C145.75 474.29 144.076 473.773 142.401 473.256C132.196 467.151 121.99 461.046 111.413 454.502C110.352 453.676 109.662 453.289 108.972 452.902C107.861 451.867 106.75 450.833 105.356 449.627C104.651 448.851 104.23 448.246 103.519 447.61C101.186 445.175 99.1428 442.77 96.8752 439.836C96.1168 438.79 95.5828 438.274 95.0487 437.757C94.0821 436.288 93.1156 434.819 91.9503 432.808C91.2133 431.719 90.6751 431.171 90.1369 430.623C90.1369 430.623 89.9858 430.198 89.8634 429.734C89.2148 428.71 88.6885 428.149 88.1623 427.588C87.6945 426.717 87.2267 425.845 86.5293 424.407C74.2551 404.462 67.0955 383.396 64.35 360.767C63.8772 356.87 62.5291 356.798 59.0217 359.086C53.4783 362.701 47.9151 366.497 41.8658 369.041C38.7245 370.361 33.9308 370.359 30.9153 368.868C22.9162 364.913 16.0404 358.765 12.5347 350.575C7.55663 338.946 4.49572 326.737 6.29202 313.665C8.18396 299.897 11.2415 286.784 21.4525 276.54C28.7215 269.249 29.7373 268.039 41.4317 273.807C47.4616 276.782 53.1075 280.535 59.1156 284.2C61.1741 285.929 63.044 287.393 64.9958 289.179C70.1894 292.201 72.1317 291.028 72.9459 284.748C74.214 274.966 74.214 274.966 83.5151 273.212C84.539 273.29 85.2289 273.272 86.3134 273.434C88.6471 273.843 90.5863 274.072 91.8135 274.217C91.8135 281.372 91.8135 288.077 91.7548 295.187C91.6271 297.483 91.5581 299.373 91.2576 301.551C92.0427 309.791 92.2574 317.954 94.267 325.648C97.1579 336.717 105.281 343.153 116.608 346.113C117.675 346.263 118.396 346.304 119.375 346.605C128.848 350.706 138.52 350.661 148.539 350.333C149.26 350.435 149.678 350.448 150.412 350.718C158.903 350.697 167.08 350.419 175.612 350.225C176.94 350.291 177.911 350.273 179.272 350.393C192.577 348.916 202.051 341.9 206.063 329.913C210.732 315.961 213.75 301.427 216.956 287.028C218.906 278.271 218.455 278.141 227.328 277.283C229.304 277.092 231.31 277.222 233.302 277.163C236.153 277.079 237.577 278.299 237.614 281.289C237.676 286.273 237.777 291.268 238.164 296.235C238.409 299.383 236.994 300.188 234.203 300.541C231.095 300.934 227.962 301.66 225.047 302.779C223.924 303.21 223.37 305.124 222.557 306.363C223.854 306.595 225.204 307.182 226.438 306.997C231.093 306.299 235.713 303.001 240.391 305.881C243.533 307.815 246.04 310.78 248.95 313.573C250.772 316.301 252.475 318.741 254.154 321.327C254.13 321.474 254.298 321.718 254.311 322.177C254.504 325.968 254.684 329.301 254.785 332.97C254.704 333.998 254.705 334.69 254.433 335.597C252.174 344.786 247.455 351.522 238.621 354.959C237.925 355.23 237.43 356.019 236.502 356.654C234.763 358.096 233.365 359.451 231.992 361.122C233.505 361.349 234.994 361.259 236.758 361.131C237.377 360.958 237.72 360.822 238.302 360.852C240.079 360.287 241.619 359.555 243.372 358.765C243.585 358.706 243.936 358.439 244.312 358.48C247.846 356.394 251.035 356.497 254.56 357.816C256.914 358.697 259.584 358.735 262.409 359.224C263.312 359.305 263.92 359.313 264.843 359.54C283.414 361.201 301.712 362.238 319.77 358.402C324.865 357.32 329.522 354.179 334.619 351.859C335.235 351.352 335.611 350.969 336.321 350.553C338.549 347.677 341.344 345.076 342.189 341.948C346.95 324.308 351.712 306.609 351.495 288.111C351.447 284.017 352.777 282.351 357.011 282.795C360.638 283.176 364.332 283.151 367.983 282.989C372.001 282.81 372.923 284.51 372.016 288.164C370.171 295.589 368.246 303.013 366.901 310.536C366.251 314.166 366.394 318.085 366.945 321.757C369.313 337.516 376.624 352.262 376.631 368.532C376.631 369.103 377.219 369.673 377.533 370.243C377.419 370.456 377.381 370.682 377.246 371.374C376.766 373.629 376.55 375.453 376.134 377.23C374.287 385.128 372.382 393.013 370.498 400.903C367.404 407.594 364.309 414.284 360.803 421.389C360.152 422.517 359.912 423.233 359.671 423.948C355.318 428.729 350.888 433.442 346.667 438.336C345.581 439.595 345.156 441.426 345.091 443.131C345.754 443.268 345.843 443.299 345.843 443.299ZM173.145 414.142C173.802 414.076 174.459 414.01 175.088 414.192C175.088 414.192 175.329 414.261 175.666 414.644C176.471 414.702 177.275 414.76 178.805 415.145C183.042 416.137 187.279 417.129 191.77 418.565C192.541 418.658 193.311 418.751 194.502 419.095L194.975 419.22C194.975 419.22 195.464 419.194 195.746 419.618C196.517 419.663 197.288 419.709 198.694 420.039C199.831 420.2 200.968 420.362 202.388 420.877C202.941 420.817 203.493 420.758 204.882 420.91C210.607 421.19 216.331 421.471 222.524 422.053C223.567 421.766 224.609 421.48 226.381 421.173C232.552 418.937 238.498 415.266 245.761 418.597C246.537 418.688 247.313 418.78 248.735 419.122C249.875 419.203 251.014 419.285 252.721 419.796C254.806 419.684 256.891 419.572 259.74 419.519C260.472 419.314 261.204 419.109 262.501 419.124C263.226 418.833 263.951 418.541 265.148 418.291C265.474 418.259 265.762 418.139 266.461 418.138C267.202 417.838 267.944 417.539 269.413 417.161C271.256 416.499 273.1 415.836 275.541 415.277C276.202 414.867 276.863 414.456 278.062 413.962C278.365 413.768 278.668 413.575 279.655 413.41C281.548 412.243 283.44 411.076 286.021 409.733C288.448 409.273 290.875 408.813 293.689 408.746C294.747 408.398 295.805 408.049 297.406 407.126C297.442 406.364 297.477 405.602 297.663 404.365C297.14 403.798 296.618 403.23 295.691 401.984C291.463 397.212 289.547 401.696 286.528 404.119C285.952 404.618 285.376 405.117 284.149 405.758C282.805 406.553 281.462 407.347 279.521 408.125C278.906 408.601 278.292 409.077 277.095 409.648C276.775 409.868 276.455 410.089 275.537 410.251C274.869 410.658 274.202 411.065 272.877 411.522C272.297 411.819 271.717 412.116 270.536 412.283C269.824 412.636 269.112 412.989 267.654 413.363C266.482 413.751 265.31 414.14 263.548 414.381C262.809 414.656 262.07 414.932 260.751 415.17C260.195 415.329 259.638 415.488 258.613 415.401C257.789 415.607 256.965 415.812 255.428 415.853C254.946 415.905 254.465 415.958 253.444 415.66C251.951 415.586 250.458 415.512 248.603 415.197C248.31 415.085 248.03 415.11 247.288 414.834C245.53 414.428 243.773 414.022 241.222 413.27C239.521 413.35 237.821 413.43 235.646 413.305C234.891 413.647 234.135 413.989 232.764 414.386C232.219 414.663 231.673 414.941 230.395 415.23C224.921 416.324 219.447 417.418 213.171 418.196C211.451 418.101 209.732 418.007 207.371 417.559C205.907 417.484 204.443 417.409 202.354 417.044C201.899 417.029 201.444 417.013 200.427 416.614C198.284 416.264 196.142 415.913 193.642 415.303C193.36 415.16 193.073 415.147 192.268 414.75C188.837 413.978 185.406 413.205 181.371 412.087C180.914 412.042 180.458 411.998 179.399 411.537C178.559 411.049 177.508 410.738 176.925 410.036C175.787 408.667 174.91 407.08 173.925 405.583C172.031 407.05 169.889 408.302 168.352 410.079C167.644 410.898 168.123 412.742 168.063 414.121C169.537 414.136 171.011 414.151 173.145 414.142Z" fill="#E2B187"/>
<path d="M142.278 473.622C144.076 473.773 145.75 474.29 147.622 475.07C147.9 476.3 147.981 477.268 147.936 478.52C145.761 478.023 143.711 477.241 141.42 476.27C141.504 475.382 141.829 474.685 142.278 473.622Z" fill="#3D311C"/>
<path d="M189.292 488.156C190.744 488.196 192.418 488.529 194.283 489.104C192.822 489.047 191.168 488.748 189.292 488.156Z" fill="#4D3C2E"/>
<path d="M202.239 491.188C203.728 491.23 205.374 491.527 207.21 492.058C206.885 492.418 206.371 492.544 205.46 492.707C204.175 492.311 203.285 491.877 202.239 491.188Z" fill="#4D3C2E"/>
<path d="M175.988 485.064C177.409 485.074 178.979 485.334 180.778 485.862C179.383 485.859 177.76 485.587 175.988 485.064Z" fill="#4D3C2E"/>
<path d="M164.657 482.235C165.808 482.418 166.938 482.596 168.282 483.05C167.966 483.462 167.434 483.598 166.482 483.751C166.063 483.767 166.105 483.756 165.983 483.666C165.699 483.459 165.533 483.347 165.188 482.992C164.882 482.589 164.754 482.432 164.626 482.275C164.626 482.275 164.634 482.229 164.657 482.235Z" fill="#4D3C2E"/>
<path d="M156.948 478.944C157.549 478.811 158.275 478.939 159.101 479.353C158.491 479.494 157.782 479.349 156.948 478.944Z" fill="#4D3C2E"/>
<path d="M170.001 484.071C170.633 483.835 171.215 483.833 171.883 484.067C171.501 484.475 171.033 484.647 170.313 484.783C170.06 484.747 170.082 484.764 170.082 484.764C170.082 484.764 169.952 484.304 170.001 484.071Z" fill="#4D3C2E"/>
<path d="M160.935 480.764C161.546 480.684 162.262 480.887 163.081 481.372C162.469 481.452 161.754 481.249 160.935 480.764Z" fill="#4D3C2E"/>
<path d="M165.028 483.723C164.78 483.293 164.531 482.864 164.454 482.354C164.754 482.431 164.882 482.588 165.087 483.111C165.165 483.477 165.012 483.751 165.033 483.753C165.053 483.755 165.028 483.723 165.028 483.723Z" fill="#4D3C2E"/>
<path d="M170.052 484.737C170.044 484.726 169.962 484.79 170.022 484.777C170.081 484.764 170.06 484.747 170.052 484.737Z" fill="#4D3C2E"/>
<path d="M166.066 483.745C166.07 483.724 165.697 483.956 165.697 483.956C165.697 483.956 165.27 483.902 165.149 483.813C165.028 483.723 165.053 483.756 165.306 483.744C165.741 483.74 165.923 483.748 166.105 483.757C166.105 483.757 166.063 483.767 166.066 483.745Z" fill="#3D311C"/>
<path d="M182.517 492.229C209.626 501.38 236.411 496.894 263.889 492.302C263.622 495.695 263.37 498.563 263.173 501.435C262.548 510.542 261.785 519.644 261.41 528.762C261.261 532.369 259.552 533.989 256.49 535.31C239.489 542.642 222.008 541.774 204.58 537.904C197.382 536.305 190.518 533.049 183.641 530.21C179.933 528.68 178.452 525.678 178.764 521.369C179.376 512.916 179.343 504.417 179.829 495.951C179.905 494.639 181.319 493.403 182.517 492.229Z" fill="#DFAE85"/>
<path d="M252.046 488.827C253.021 488.67 253.996 488.513 255.652 488.534C256.9 488.438 257.468 488.166 258.036 487.893C259.75 487.424 261.465 486.955 263.774 486.585C264.933 486.362 265.498 486.039 266.063 485.717C268.16 485.069 270.257 484.421 272.715 483.761C274.016 484.277 274.958 484.805 276.147 485.56C273.83 487.085 271.267 488.385 268.478 489.977C267.705 491.922 267.159 493.575 266.33 496.082C266.465 489.904 263.586 489.902 259.206 490.812C255.135 491.658 250.787 491.173 246.353 490.773C246.144 490.271 246.058 489.79 246.058 489.79C247.023 489.641 247.988 489.493 249.636 489.515C250.894 489.4 251.47 489.114 252.046 488.827Z" fill="#05040C"/>
<path d="M207.153 492.967C210.035 492.524 212.948 492.496 216.744 492.612C220.77 492.42 223.914 492.083 227.058 491.746C227.989 491.557 228.919 491.369 230.632 491.414C233.298 491.686 235.18 491.723 237.06 491.755C237.058 491.749 237.062 491.752 237.062 491.752C236.219 492.735 235.432 494.513 234.523 494.577C226.453 495.152 218.363 495.513 210.274 495.673C209.259 495.694 208.215 494.183 207.153 492.967Z" fill="#05040C"/>
<path d="M239.114 490.424C240.498 490.315 241.882 490.206 243.738 490.318C244.41 490.725 244.643 490.845 244.91 490.901C243.264 496.288 240.408 493.409 237.411 491.85C237.063 491.753 237.058 491.75 237.282 491.644C238.042 491.167 238.578 490.795 239.114 490.424Z" fill="#05040C"/>
<path d="M245.191 490.847C244.643 490.845 244.41 490.724 244.156 490.347C244.641 489.915 245.18 489.676 245.888 489.613C246.058 489.79 246.145 490.272 246.094 490.511C245.853 490.764 245.663 490.778 245.191 490.847Z" fill="#4D3C2E"/>
<path d="M376.656 260.814C376.577 261.406 376.498 261.997 376.213 263.155C374.708 264.065 373.341 264.859 372.122 264.675C366.72 263.862 361.396 262.3 355.977 261.898C349.627 261.426 343.815 260.33 338.437 256.516C336.229 254.95 332.81 255.091 329.631 254.31C328.868 254.144 328.416 254.122 327.654 253.836C320.548 253.488 313.753 253.404 306.556 253.193C304.757 253.08 303.36 253.092 301.676 252.891C294.314 252.566 287.239 252.43 280.164 252.347C273.434 252.268 266.703 252.244 259.673 252.092C258.964 252.053 258.553 252.118 257.768 252.04C250.346 252.723 244.628 258.659 236.584 257.09C234.79 256.968 233.398 256.961 231.691 256.751C229.094 256.663 226.813 256.843 224.53 256.881C220.342 256.951 216.153 256.938 211.828 256.68C210.611 255.441 209.531 254.483 208.354 253.185C198.91 246.385 188.314 248.122 177.535 248.114C174.444 248.046 171.784 248.091 168.667 248.026C154.082 248.115 139.881 247.492 125.846 248.735C110.162 250.124 94.6071 253.076 79.0448 255.644C75.1958 256.279 74.092 255.084 74.5599 251.617C75.4711 244.867 76.2135 238.082 77.4438 231.388C79.7481 218.849 84.3729 207.144 90.4217 195.915C99.2488 179.528 110.49 165.322 126.356 155.264C132.649 151.275 139.766 149.003 147.257 149.771C156.017 150.669 164.173 150.136 171.18 144.095C171.458 143.856 172.123 144.065 172.751 144.065C173.015 144.981 173.286 145.92 173.557 146.858C173.466 147.56 173.374 148.262 173.306 149.673C174.57 151.798 175.783 154.406 177.06 154.438C185.757 154.653 194.468 154.325 203.174 154.173C203.605 154.276 204.036 154.379 205.101 154.683C207.699 155.215 209.652 155.67 211.629 155.854C220.554 156.684 229.553 156.994 238.402 158.317C253.575 160.585 268.647 162.629 283.917 159.122C290.615 157.584 297.314 155.475 304.317 158.42C306.323 159.264 308.907 158.811 311.227 158.821C317.539 158.847 323.866 159.064 330.158 158.692C334.275 158.449 336.495 160.167 338.486 163.499C341.689 168.858 345.344 173.948 348.808 179.151C348.808 179.151 348.893 179.497 349.056 179.935C355.176 189.53 361.789 198.334 366.927 207.928C373.795 220.754 378.764 234.321 376.615 249.469C376.09 253.174 376.614 257.028 376.656 260.814ZM286.312 218.462C285.314 218.42 284.315 218.376 283.316 218.335C278.999 218.156 274.668 217.723 270.372 217.951C269.025 218.022 267.771 219.871 266.475 220.906C267.733 221.703 268.902 222.906 270.268 223.204C272.353 223.657 274.576 223.594 276.738 223.561C289.429 223.371 301.568 225.172 312.141 232.976C312.817 233.475 313.847 233.495 314.79 233.759C315.101 228.606 309.809 222.375 303.45 220.915C298.139 219.697 292.643 219.284 286.312 218.462ZM179.098 221.367C180.312 220.814 181.526 220.262 182.74 219.709C181.827 218.668 181.044 217.449 179.955 216.646C179.223 216.108 178.062 215.999 177.085 215.969C161.384 215.488 147.861 221.231 135.8 230.796C134.606 231.743 134.472 234.026 133.846 235.688C134.331 236.001 134.816 236.313 135.301 236.626C148.367 227.874 162.237 221.473 179.098 221.367Z" fill="#E2B187"/>
<path d="M64.9145 288.857C63.0447 287.393 61.1748 285.929 59.1125 283.851C52.7151 275.734 44.0191 272.66 35.2141 269.603C29.4639 267.606 24.8766 269.471 21.2747 273.481C14.7929 280.698 9.63784 288.698 7.33272 298.44C2.23256 319.994 2.60327 340.64 15.9379 359.533C13.9192 357.939 11.0101 356.766 10.0241 354.683C2.72589 339.265 0.196268 323.228 3.14758 306.128C5.25005 293.947 9.14295 282.938 17.786 274.023C20.8471 270.865 24.4061 267.967 28.2338 265.846C31.3188 264.136 32.2488 262.248 31.7111 259.079C29.2679 244.679 25.8653 230.351 24.7319 215.847C23.7698 203.535 25.4393 191.017 25.9882 178.166C27.0379 179.834 28.0414 181.928 29.0503 184.019C29.7815 185.534 30.5197 187.046 31.635 189.024C32.0191 190.232 32.0229 190.977 31.6712 191.792C28.1873 192.62 26.6536 194.499 27.131 198.236C27.1787 200.419 27.2343 202.165 27.3347 204.303C27.6048 208.167 27.4641 211.713 28.14 215.096C29.192 220.361 30.799 225.515 32.1738 231.081C32.2876 232.167 32.3983 232.888 32.4463 233.901C32.6462 234.702 32.909 235.211 33.159 236.113C33.243 237.552 33.3396 238.596 33.3466 240.078C33.5636 243.249 33.8704 245.982 34.185 249.04C34.243 249.795 34.2932 250.225 34.2665 251.065C34.8408 254.225 35.4921 256.975 36.1638 260.039C36.2506 260.767 36.317 261.182 36.3861 261.934C38.5966 262.036 40.8043 261.799 43.3793 261.566C44.4782 261.515 45.2098 261.459 46.2411 261.456C47.037 261.215 47.5332 260.922 48.4357 260.612C53.2367 259.954 57.6313 259.312 62.4129 258.711C64.5264 258.063 66.253 257.376 68.2334 256.382C68.7179 253.306 68.9488 250.536 69.4002 247.491C70.0274 245.111 70.434 243.006 70.8908 240.454C71.6344 234.916 72.3278 229.827 73.2414 224.464C71.9926 219.575 71.3248 214.422 68.7361 210.556C67.3196 208.44 62.6936 208.327 59.4476 207.62C55.3433 206.725 52.1687 205.79 51.6423 200.363C51.3533 197.383 48.5896 194.187 46.1359 191.987C42.9234 189.106 40.2777 186.393 39.7256 181.826C39.4403 179.467 37.9278 177.257 36.9697 174.979C36.3885 175.05 35.8072 175.121 35.226 175.192C34.1683 178.709 33.1107 182.227 32.053 185.744C30.0484 180.268 30.5176 175.081 33.8442 170.215C36.03 167.018 38.9427 167.057 40.6965 170.518C41.8896 172.873 43.0087 175.375 43.5217 177.939C44.3933 182.296 46.2297 184.724 50.4722 183.117C51.9353 187.661 53.0788 191.926 54.6851 196.009C56.4108 200.395 59.548 202.832 64.4738 204.061C67.5041 204.818 69.9861 208.235 72.4076 210.752C73.4588 211.845 73.7384 213.68 74.503 215.498C76.406 214.502 77.9564 213.69 79.7874 213.138C77.9739 222.443 75.751 231.462 73.842 240.547C72.9288 244.893 72.3023 249.352 72.1188 253.783C71.9677 257.431 73.9894 259.087 77.9433 258.334C91.3849 255.776 104.814 253.077 118.347 251.114C123.257 250.402 128.779 248.775 132.961 252.8C128.261 253.165 124.014 253.503 119.762 253.738C109.767 254.292 104.651 257.914 102.753 265.918C100.927 268.34 99.3437 270.532 97.3981 272.727C96.0687 272.731 95.102 272.732 93.9533 272.503C93.2468 272.025 92.7223 271.776 92.1805 271.228C92.1762 270.327 92.1892 269.725 92.5224 268.982C95.2626 266.145 97.6826 263.45 100.358 260.609C100.357 259.649 100.101 258.836 99.5105 258.064C97.8645 258.415 96.5525 258.724 94.8113 258.978C90.9478 259.284 87.4724 259.432 84.0924 260.079C81.6484 260.547 79.331 261.676 76.5955 262.544C75.5065 262.577 74.7793 262.576 73.7273 262.369C63.2683 262.054 53.4067 263.598 43.28 266.328C47.0584 271.224 51.6271 270.805 56.5466 270.688C59.291 270.825 61.6006 270.943 63.7883 271.359C61.7811 272.652 59.8957 273.649 58.1336 274.967C60.4243 277.803 62.5918 280.319 64.7594 282.835C65.3197 282.701 65.88 282.566 66.4403 282.432C66.6934 279.846 66.9464 277.26 67.3934 274.427C67.7833 273.167 67.9793 272.152 68.5366 271.058C69.6308 270.866 70.3636 270.755 71.3284 270.899C72.4457 271.361 73.331 271.569 74.0312 272.098C70.226 275.145 70.9713 279.131 70.9826 282.817C70.9954 287.019 69.5094 289.424 64.9145 288.857Z" fill="#060504"/>
<path d="M32.0529 186.078C33.1106 182.228 34.1683 178.71 35.2259 175.193C35.8072 175.121 36.3884 175.05 36.9697 174.979C37.9277 177.257 39.4403 179.468 39.7255 181.827C40.2777 186.394 42.9233 189.107 46.1359 191.988C48.5895 194.187 51.3532 197.384 51.6422 200.363C52.1686 205.791 55.3433 206.726 59.4475 207.62C62.6935 208.327 67.3195 208.441 68.736 210.556C71.3247 214.423 71.9925 219.575 73.0203 224.203C71.6804 223.056 70.7817 221.898 68.9179 219.496C68.2652 223.883 67.8558 226.634 67.2884 230.446C62.8936 227.047 60.97 223.497 60.0345 219.226C59.29 215.827 57.8512 213.15 53.6013 214.516C48.3373 216.207 43.5146 215.49 40.5926 210.608C38.4892 207.094 37.4165 202.935 36.0831 198.996C34.8047 195.219 37.0607 190.192 32.0527 187.742C32.0528 187.298 32.0528 186.854 32.0529 186.078Z" fill="#11100D"/>
<path d="M32.0378 187.992C37.0609 190.191 34.8049 195.219 36.0833 198.995C37.4167 202.934 38.4893 207.093 40.5928 210.608C43.5148 215.489 48.3374 216.207 53.6015 214.515C57.8514 213.15 59.2902 215.827 60.0346 219.226C60.9702 223.497 62.8937 227.046 67.2886 230.446C67.8559 226.633 68.2653 223.882 68.9181 219.495C70.7819 221.897 71.6806 223.056 72.8003 224.476C72.3279 229.827 71.6345 234.917 70.4876 240.415C65.2978 241.099 61.3956 239.464 57.8988 236.206C52.2418 230.936 46.59 225.6 40.4573 220.92C35.8621 217.412 32.7633 213.445 31.3771 207.805C30.9987 206.265 28.7049 205.196 27.29 203.911C27.2344 202.165 27.1788 200.419 27.4793 198.155C30.9163 196.858 32.4521 194.985 32.0269 191.722C32.023 190.977 32.0192 190.233 31.9953 189.116C31.9911 188.577 32.0068 188.41 32.0378 187.992Z" fill="#1C1B18"/>
<path d="M133.411 252.728C128.778 248.775 123.256 250.402 118.347 251.114C104.814 253.077 91.3844 255.775 77.9427 258.334C73.9889 259.086 71.9671 257.431 72.1182 253.783C72.3018 249.351 72.9282 244.893 73.8414 240.547C75.7505 231.462 77.9734 222.443 80.1321 213.088C86.3697 199.446 92.3031 186.046 101.781 174.5C109.69 164.864 118.306 155.923 129.836 151.248C136.344 148.609 144.117 147.855 151.206 148.261C157.148 148.601 161.939 147.533 166.645 144.433C167.751 143.704 168.836 142.758 170.065 142.452C171.395 142.122 172.882 142.424 174.301 142.45C174.256 143.813 174.21 145.176 173.861 146.698C173.285 145.92 173.015 144.981 172.75 144.065C172.122 144.065 171.458 143.856 171.18 144.095C164.172 150.136 156.016 150.668 147.257 149.77C139.766 149.003 132.648 151.275 126.355 155.264C110.489 165.322 99.2482 179.528 90.4211 195.914C84.3723 207.143 79.7475 218.849 77.4431 231.387C76.2129 238.081 75.4705 244.866 74.5593 251.617C74.0914 255.083 75.1952 256.279 79.0442 255.644C94.6064 253.076 110.162 250.123 125.845 248.734C139.881 247.491 154.082 248.115 168.489 248.357C163.865 249.445 158.962 250.091 153.616 250.724C150.357 251.389 147.54 252.067 144.286 252.723C140.369 252.71 136.89 252.719 133.411 252.728Z" fill="#382A1E"/>
<path d="M381.495 232.499C381.288 230.616 381.082 228.733 380.863 226.127C380.354 224.811 379.857 224.218 379.361 223.625C379.361 223.625 379.294 223.492 379.25 223.318C379.207 223.143 379.18 222.922 379.18 222.922C379.152 222.726 379.125 222.531 379.497 222.045C385.252 220.453 390.606 219.151 395.961 217.849C393.36 229.52 390.765 241.192 388.146 252.859C387.857 254.145 387.426 255.398 387.022 257.021C386.347 258.901 385.709 260.426 384.652 262.183C383.824 260.583 383.187 258.768 383.052 256.917C382.684 251.871 382.527 246.809 382.286 241.754C382.28 240.034 382.273 238.314 382.437 235.932C382.236 234.347 381.866 233.423 381.495 232.499Z" fill="#454544"/>
<path d="M348.847 178.773C345.343 173.947 341.689 168.858 338.486 163.499C336.494 160.167 334.275 158.449 330.157 158.692C323.866 159.064 317.538 158.846 311.226 158.82C308.907 158.811 306.323 159.264 304.316 158.42C297.314 155.475 290.615 157.584 283.917 159.122C268.647 162.629 253.574 160.585 238.401 158.317C229.553 156.994 220.554 156.684 211.628 155.854C209.651 155.67 207.699 155.214 205.432 154.636C207.074 154.184 209.052 153.644 210.96 153.829C223.998 155.098 237.056 156.264 250.043 157.957C264.423 159.831 278.53 159.077 292.488 155.176C293.902 154.781 295.662 154.022 296.805 154.507C307.284 158.954 318.229 156.371 328.923 156.577C334.747 156.689 338.317 158.586 340.845 163.526C343.412 168.541 346.197 173.444 348.847 178.773Z" fill="#382A1E"/>
<path d="M376.97 260.525C376.614 257.028 376.089 253.174 376.615 249.469C378.763 234.32 373.794 220.754 366.926 207.928C361.789 198.334 355.175 189.53 349.204 180.034C352.487 183.265 356.597 186.376 358.923 190.495C364.926 201.128 370.14 212.207 375.831 223.425C379.588 235.795 378.902 247.999 376.97 260.525Z" fill="#382A1E"/>
<path d="M396.19 217.604C390.607 219.15 385.252 220.452 379.473 221.75C378.437 220.625 377.824 219.506 377.395 217.784C378.206 216.457 378.753 215.2 379.476 215.089C385.306 214.194 391.17 213.516 397.023 212.771C397.039 213.233 397.054 213.694 397.063 214.504C396.843 215.688 396.631 216.524 396.19 217.604Z" fill="#313130"/>
<path d="M396.975 212.426C391.17 213.517 385.306 214.195 379.476 215.089C378.753 215.2 378.206 216.457 377.348 217.461C374.375 212.958 377.416 209.286 379.445 204.738C382.038 206.087 384.258 207.495 386.664 208.411C388.445 209.089 390.547 208.899 392.362 209.518C393.986 210.072 395.413 211.203 396.975 212.426Z" fill="#1F1F1E"/>
<path d="M202.958 153.872C194.467 154.325 185.756 154.652 177.059 154.438C175.783 154.406 174.57 151.798 173.445 150.006C175.241 152.942 177.722 152.703 181.167 152.536C188.325 152.188 195.547 153.148 202.958 153.872Z" fill="#382A1E"/>
<path d="M379.007 222.983C379.18 222.922 379.207 223.143 379.22 223.251C379.233 223.358 378.811 223.511 378.594 223.554C378.479 223.371 378.631 223.187 379.007 222.983Z" fill="#313130"/>
<path d="M16.0358 359.72C2.60307 340.64 2.23237 319.994 7.33252 298.44C9.63765 288.698 14.7927 280.698 21.2745 273.481C24.8764 269.471 29.4637 267.606 35.2139 269.603C44.0189 272.66 52.7149 275.734 58.9237 283.587C53.108 280.535 47.4621 276.782 41.4322 273.808C29.7378 268.039 28.7219 269.249 21.453 276.54C11.242 286.784 8.18442 299.897 6.29248 313.665C4.49618 326.737 7.55709 338.946 12.5352 350.575C16.0409 358.765 22.9166 364.913 30.9158 368.868C33.9313 370.359 38.725 370.362 41.8663 369.041C47.9155 366.497 53.4788 362.702 59.0222 359.086C62.5296 356.798 63.8776 356.87 64.3504 360.767C67.096 383.396 74.2555 404.462 86.3077 424.208C85.1999 423.498 83.7982 422.597 83.0122 421.317C71.7953 403.061 65.5486 383.114 63.006 361.923C62.9343 361.326 62.5925 360.761 62.2301 359.787C57.7964 362.599 53.7226 365.339 49.5004 367.827C41.4788 372.553 33.3675 373.755 25.2299 367.969C24.7329 367.616 23.9605 367.65 22.868 367.456C20.3245 364.908 18.2292 362.407 16.0358 359.72Z" fill="#46362A"/>
<path d="M377.699 369.768C377.219 369.673 376.631 369.103 376.631 368.532C376.624 352.262 369.313 337.516 366.946 321.757C366.394 318.085 366.252 314.166 366.901 310.536C368.247 303.013 370.172 295.589 372.016 288.164C372.924 284.51 372.001 282.81 367.983 282.989C364.333 283.151 360.638 283.176 357.012 282.795C352.777 282.351 351.447 284.017 351.495 288.112C351.712 306.609 346.95 324.308 342.189 341.948C341.345 345.076 338.55 347.677 336.36 350.209C337.855 346.372 340.376 343.03 341.31 339.292C345.607 322.092 350.261 304.896 349.991 286.947C349.924 282.432 351.462 280.604 356.078 280.885C360.712 281.168 365.38 280.872 370.033 280.829C375.011 281.091 374.317 284.586 373.694 287.675C372.098 295.585 370.108 303.419 368.637 311.35C368.049 314.52 368.409 317.865 368.518 321.496C371.34 332.097 374.3 342.267 376.494 352.599C377.644 358.017 377.451 363.72 377.699 369.768Z" fill="#4D3C2E"/>
<path d="M370.795 400.753C372.382 393.013 374.287 385.128 376.134 377.23C376.55 375.453 376.766 373.629 377.304 371.539C378.212 381.655 375.419 391.298 370.795 400.753Z" fill="#4D3C2E"/>
<path d="M359.959 423.857C359.912 423.233 360.153 422.518 360.684 421.718C360.732 422.344 360.49 423.054 359.959 423.857Z" fill="#4D3C2E"/>
<path d="M346.119 443.145C345.844 443.299 345.754 443.268 345.705 443.245C345.937 443.05 346.218 442.879 346.742 442.738C346.787 442.843 346.591 442.917 346.119 443.145Z" fill="#3D311C"/>
<path d="M88.1172 427.897C88.6892 428.149 89.2154 428.71 89.7026 429.576C89.1329 429.323 88.6022 428.765 88.1172 427.897Z" fill="#46362A"/>
<path d="M90.1006 430.933C90.6752 431.171 91.2134 431.719 91.7181 432.571C91.1444 432.331 90.6043 431.787 90.1006 430.933Z" fill="#46362A"/>
<path d="M95.0283 438.055C95.5836 438.274 96.1177 438.79 96.6255 439.603C96.0686 439.383 95.5379 438.867 95.0283 438.055Z" fill="#46362A"/>
<path d="M370.041 280.457C365.38 280.872 360.712 281.168 356.079 280.886C351.462 280.604 349.924 282.433 349.992 286.947C350.262 304.896 345.607 322.092 341.31 339.293C340.376 343.031 337.855 346.372 336.026 350.241C335.612 350.969 335.235 351.352 334.242 351.836C330.127 353.3 326.629 354.665 323.115 355.65C323.084 354.765 323.07 354.259 323.424 353.725C325.897 352.399 328.001 351.1 330.392 349.63C332.15 347.569 333.621 345.68 335.429 343.673C336.378 342.801 337.337 342.134 337.554 341.279C342.945 320.039 349.101 298.876 346.91 276.569C346.244 269.789 341.81 261.576 333.013 258.93C326.108 256.852 319.585 258.045 312.895 257.732C299.14 257.088 285.389 256.354 271.63 255.799C266.364 255.587 261.081 255.764 254.8 255.764C256.613 253.822 257.377 253.003 258.142 252.184C258.553 252.118 258.964 252.053 259.874 252.405C271.346 253.431 282.313 254.176 293.292 254.556C296.162 254.655 299.072 253.619 301.963 253.105C303.36 253.092 304.757 253.079 306.773 253.492C314.249 253.979 321.106 254.039 327.964 254.1C328.416 254.122 328.868 254.143 329.799 254.584C334.021 256.669 337.709 258.474 341.524 259.953C344.463 261.093 347.523 261.99 350.597 262.703C357.74 264.358 364.924 265.836 372.091 267.387C372.077 267.629 372.062 267.871 371.588 268.457C363.961 267.778 356.793 266.753 348.512 265.569C349.674 268.69 350.242 270.218 350.848 272.159C350.633 275.62 352.099 277.172 355.087 277.332C357.369 277.454 359.655 277.506 362.322 277.624C363.217 277.607 363.728 277.554 364.609 277.53C365.964 277.575 366.948 277.592 368.293 277.653C369.134 277.75 369.616 277.804 370.097 277.858C370.081 278.601 370.065 279.343 370.041 280.457Z" fill="#100B07"/>
<path d="M350.81 271.745C350.242 270.218 349.673 268.691 348.512 265.569C356.792 266.753 363.96 267.778 371.566 268.821C372.561 269.662 373.119 270.485 373.88 271.897C374.118 273.25 374.151 274.014 374.185 274.778C373.072 275.784 371.958 276.79 370.471 277.827C369.616 277.805 369.134 277.75 368.301 277.284C366.754 275.792 365.702 274.045 364.338 273.753C359.89 272.798 355.328 272.374 350.81 271.745Z" fill="#312213"/>
<path d="M372.484 267.443C364.923 265.837 357.74 264.358 350.597 262.703C347.523 261.99 344.463 261.093 341.523 259.953C337.709 258.474 334.021 256.669 330.109 254.729C332.809 255.091 336.228 254.95 338.437 256.516C343.815 260.33 349.627 261.426 355.977 261.898C361.395 262.3 366.72 263.862 372.121 264.675C373.341 264.859 374.707 264.065 376.298 263.445C377.62 266.555 375.911 267.594 372.484 267.443Z" fill="#382A1E"/>
<path d="M382.008 242.068C382.527 246.81 382.684 251.871 383.052 256.917C383.187 258.768 383.824 260.583 384.599 262.531C384.314 264.21 383.662 265.772 383.011 267.334C382.584 267.249 382.157 267.163 381.729 267.078C381.729 258.846 381.729 250.614 382.008 242.068Z" fill="#232323"/>
<path d="M374.467 274.679C374.151 274.014 374.118 273.25 374.101 272.104C374.327 272.674 374.538 273.626 374.467 274.679Z" fill="#100B07"/>
<path d="M381.394 232.85C381.866 233.423 382.236 234.348 382.447 235.503C381.955 234.889 381.623 234.045 381.394 232.85Z" fill="#232323"/>
<path d="M379.323 223.941C379.857 224.218 380.354 224.811 380.841 225.722C380.315 225.445 379.801 224.851 379.323 223.941Z" fill="#313130"/>
<path d="M278.989 481.559C281.226 480.161 283.848 478.785 286.807 477.464C284.554 478.873 281.963 480.227 278.989 481.559Z" fill="#4D3C2E"/>
<path d="M339.148 445.617C339.693 444.748 340.579 443.866 341.778 442.929C341.223 443.783 340.356 444.694 339.148 445.617Z" fill="#4D3C2E"/>
<path d="M332.201 451.642C332.738 450.787 333.611 449.916 334.791 448.985C334.246 449.826 333.391 450.725 332.201 451.642Z" fill="#4D3C2E"/>
<path d="M322.107 458.639C322.394 458.17 322.976 457.707 323.846 457.262C323.557 457.734 322.979 458.191 322.107 458.639Z" fill="#4D3C2E"/>
<path d="M315.171 462.669C315.442 462.192 316.002 461.716 316.849 461.269C316.577 461.754 316.019 462.212 315.171 462.669Z" fill="#4D3C2E"/>
<path d="M312.059 464.613C312.344 464.119 312.937 463.635 313.827 463.157C313.539 463.65 312.953 464.136 312.059 464.613Z" fill="#4D3C2E"/>
<path d="M109.019 453.224C109.663 453.289 110.353 453.676 111.111 454.364C110.474 454.292 109.769 453.918 109.019 453.224Z" fill="#46362A"/>
<path d="M119.118 346.344C118.396 346.304 117.675 346.263 116.548 345.901C115.747 345.164 115.353 344.748 114.927 343.967C113.641 342.177 112.42 340.721 111.125 339.336C109.447 337.544 107.71 335.807 106.336 333.958C107.231 333.118 108.431 332.079 108.243 331.661C107.02 328.93 105.497 326.333 103.997 323.315C103.303 319.571 102.216 316.215 102.148 312.838C101.906 300.769 102.01 288.694 102.136 276.288C103.524 273.204 104.76 270.453 106.289 267.54C110.034 262.749 113.802 258.818 120.259 258.735C137.797 258.509 155.333 258.025 172.872 257.815C177.162 257.763 181.462 258.342 185.753 258.679C190.119 259.021 194.48 259.422 198.992 260.128C200.772 261.281 202.404 262.104 204.11 263.283C205.46 268.911 208.304 274.37 207.7 279.417C206.213 291.838 203.552 304.17 200.545 316.337C198.897 323.008 195.591 329.271 192.739 335.883C190.999 337.11 189.485 338.093 188.121 339.254C186.085 340.986 184.155 342.843 181.88 344.896C178.402 345.67 175.223 346.195 171.897 346.364C166.433 343.541 161.761 344.238 160.051 348.102C160.036 348.926 160.027 349.397 159.623 349.881C158.174 349.856 157.12 349.817 156.066 349.438C156.063 348.643 156.06 348.189 156.015 347.343C155.666 346.401 155.417 345.418 155.046 345.369C150.902 344.826 146.743 344.368 142.575 344.074C142.111 344.041 141.566 345.157 140.645 345.743C138.172 345.417 136.114 345.089 133.925 344.415C130.232 343.016 126.69 341.875 123.081 341.012C122.573 340.89 121.739 342.125 121.247 342.991C121.765 344.007 122.093 344.764 122.189 345.49C121.011 345.754 120.064 346.049 119.118 346.344ZM196.953 307.916C198.475 298.565 200.846 289.254 201.278 279.853C201.702 270.629 198.856 263.78 187.189 263.383C175.718 262.993 164.22 262.91 152.746 263.2C141.293 263.489 129.837 264.183 118.419 265.136C111.659 265.701 107.694 270.267 107.529 277.092C107.23 289.41 107.008 301.736 107.092 314.057C107.164 324.659 114.21 332.994 124.172 335.663C138.841 339.593 153.829 339.654 168.805 339.688C180.922 339.715 189.557 334.623 192.671 322.082C193.792 317.571 195.44 313.192 196.953 307.916Z" fill="#1A130E"/>
<path d="M172.044 346.721C175.223 346.195 178.402 345.67 182.211 344.919C188.077 345.061 194.725 340.555 196.383 335.674C198.352 333.217 200.596 331.04 201.484 328.405C203.37 322.81 204.263 316.885 206.082 311.263C209.307 301.292 211.643 291.266 211.155 280.667C211.051 278.395 212.385 276.057 213.451 273.743C216.584 273.013 219.323 272.289 222.391 271.815C228.33 272.289 233.939 272.595 239.553 272.699C242.611 272.756 244.28 273.93 244.121 277.133C243.901 281.593 243.595 286.05 243.46 290.512C243.341 294.434 242.086 298.539 245.385 302.266C248.908 295.13 249.295 287.368 250.542 279.735C251.318 279.738 251.764 279.736 252.238 280.198C251.528 290.465 250.805 300.271 250.017 310.072C249.971 310.645 249.394 311.176 248.867 311.455C245.718 308.185 242.765 305.187 239.899 302.275C239.899 295.425 240.14 288.129 239.72 280.872C239.622 279.174 237.389 276.326 235.954 276.205C230.694 275.764 225.321 275.952 220.07 276.573C218.569 276.751 216.501 278.997 216.112 280.632C212.541 295.647 209.502 310.79 205.862 325.788C202.916 337.924 194.26 344.737 182.859 348.58C181.5 349.038 180.206 349.692 178.882 350.255C177.911 350.274 176.94 350.292 175.411 349.981C169.907 349.724 164.962 349.796 160.018 349.867C160.027 349.397 160.036 348.926 160.494 348.103C164.643 347.407 168.343 347.064 172.044 346.721Z" fill="#0E0A07"/>
<path d="M323.055 353.753C323.07 354.259 323.084 354.765 322.762 355.824C316.857 357.218 311.305 358.619 305.718 358.781C293.963 359.121 282.189 358.783 270.423 358.791C268.458 358.793 266.493 359.136 264.528 359.321C263.92 359.313 263.313 359.306 262.172 358.932C258.205 357.436 254.814 355.622 251.325 355.412C248.932 355.268 246.404 357.352 243.937 358.44C243.937 358.44 243.585 358.706 243.019 358.709C240.99 359.37 239.527 360.029 238.064 360.687C237.721 360.823 237.377 360.958 236.324 360.984C234.399 360.852 233.184 360.829 231.968 360.806C233.366 359.451 234.764 358.096 236.883 356.724C249.033 353.091 255.457 345.08 254.706 335.382C254.705 334.69 254.705 333.999 255.126 333.062C259.458 334.673 257.224 337.927 256.671 340.172C255.728 344 257.259 345.953 260.472 346.165C270.726 346.839 281.01 347.402 291.28 347.382C298.209 347.37 305.136 346.302 312.062 346.047C312.059 346.84 312.059 347.293 311.676 347.914C302.56 348.618 293.829 349.54 285.093 349.582C276.174 349.624 267.254 348.707 258.328 348.464C257.045 348.429 255.723 349.818 254.42 350.548C255.187 351.633 255.844 352.826 256.763 353.762C257.298 354.306 258.254 354.436 259.394 354.913C264.144 355.541 268.52 356.008 273.326 356.533C276.382 356.371 279.005 356.008 281.633 355.962C291.203 355.793 300.781 355.904 310.342 355.55C314.596 355.392 318.819 354.378 323.055 353.753Z" fill="#0D0A06"/>
<path d="M179.273 350.393C180.206 349.692 181.5 349.038 182.859 348.58C194.26 344.737 202.916 337.924 205.862 325.788C209.502 310.79 212.54 295.647 216.112 280.632C216.501 278.997 218.569 276.751 220.069 276.573C225.321 275.952 230.694 275.764 235.954 276.205C237.389 276.326 239.621 279.174 239.72 280.872C240.14 288.129 239.899 295.425 239.899 302.275C242.765 305.187 245.718 308.185 248.816 311.846C248.919 312.766 248.875 313.025 248.832 313.284C246.041 310.78 243.533 307.815 240.391 305.881C235.713 303.002 231.093 306.299 226.439 306.997C225.204 307.182 223.855 306.595 222.558 306.363C223.371 305.124 223.925 303.211 225.048 302.779C227.963 301.66 231.096 300.935 234.204 300.541C236.994 300.188 238.41 299.383 238.164 296.235C237.777 291.268 237.677 286.273 237.615 281.289C237.578 278.299 236.154 277.079 233.302 277.163C231.311 277.222 229.305 277.092 227.328 277.283C218.455 278.141 218.906 278.271 216.957 287.028C213.75 301.427 210.733 315.962 206.063 329.913C202.051 341.9 192.577 348.917 179.273 350.393Z" fill="#544132"/>
<path d="M248.951 313.573C248.875 313.025 248.918 312.766 249.013 312.117C249.393 311.176 249.971 310.645 250.017 310.072C250.805 300.271 251.528 290.465 252.254 279.737C252.213 277.891 252.184 276.968 252.143 275.94C252.132 275.835 252.08 275.382 252.368 275.133C254.567 272.604 256.479 270.323 258.283 268.39C257.292 270.485 255.907 272.152 255.612 273.993C254.28 282.319 253.208 290.688 252.137 299.053C251.358 305.144 251.747 310.705 256.713 315.528C258.666 317.424 259.411 321.255 259.497 324.24C259.679 330.508 259.061 336.8 258.743 343.677C261.124 343.997 263.703 344.612 266.29 344.644C277.753 344.79 289.246 345.26 300.676 344.649C309.536 344.174 318.32 342.272 327.025 341.331C321.962 343.008 317.013 344.357 312.063 345.706C305.136 346.302 298.209 347.369 291.28 347.382C281.009 347.401 270.726 346.839 260.472 346.164C257.259 345.953 255.728 343.999 256.671 340.171C257.223 337.927 259.457 334.673 255.206 332.724C254.685 329.301 254.504 325.969 254.495 322.12C254.503 321.463 254.341 321.322 254.178 321.181C252.475 318.741 250.772 316.302 248.951 313.573Z" fill="#4C3B2D"/>
<path d="M192.78 415.264C193.073 415.147 193.361 415.16 194.058 415.697C196.645 416.394 198.817 416.696 200.989 416.998C201.444 417.014 201.899 417.029 202.828 417.455C204.872 417.881 206.442 417.897 208.013 417.913C209.732 418.007 211.451 418.102 213.803 418.622C220.657 420.637 226.227 419.387 231.128 415.218C231.673 414.941 232.219 414.664 233.45 414.418C234.797 414.136 235.458 413.824 236.12 413.511C237.821 413.431 239.522 413.35 241.881 413.717C244.281 414.534 246.021 414.904 247.762 415.274C248.03 415.111 248.31 415.085 249.013 415.584C250.943 415.984 252.463 415.997 253.983 416.01C254.465 415.958 254.947 415.906 256.006 416.116C257.417 416.135 258.25 415.891 259.083 415.647C259.639 415.488 260.195 415.329 261.345 415.299C262.672 415.128 263.405 414.829 264.139 414.53C265.31 414.141 266.482 413.752 268.339 413.432C269.729 413.138 270.433 412.775 271.138 412.413C271.718 412.116 272.298 411.819 273.52 411.551C274.82 411.156 275.477 410.733 276.135 410.309C276.455 410.089 276.775 409.869 277.699 409.624C278.908 409.114 279.514 408.628 280.119 408.143C281.462 407.348 282.806 406.553 284.782 405.699C285.982 405.135 286.55 404.63 287.118 404.126C289.547 401.696 291.463 397.212 295.946 402.662C296.638 403.84 297.076 404.341 297.513 404.841C297.477 405.603 297.442 406.364 296.681 407.435C295.071 407.948 294.186 408.15 293.301 408.353C290.875 408.813 288.448 409.273 285.315 409.804C282.729 411.044 280.85 412.213 278.971 413.382C278.668 413.576 278.365 413.769 277.485 413.94C276.254 414.336 275.599 414.755 274.944 415.174C273.1 415.836 271.257 416.499 268.687 417.119C267.313 417.362 266.664 417.647 266.015 417.932C265.763 418.14 265.474 418.259 264.619 418.159C263.372 418.32 262.654 418.612 261.936 418.905C261.204 419.11 260.472 419.314 259.063 419.292C256.309 419.165 254.232 419.266 252.154 419.366C251.014 419.285 249.875 419.204 248.15 418.748C246.87 418.306 246.174 418.238 245.478 418.171C238.498 415.267 232.552 418.938 225.643 421.061C223.955 421.216 223.005 421.484 222.055 421.752C216.331 421.472 210.607 421.191 204.325 420.611C203.213 420.382 202.659 420.453 202.106 420.523C200.968 420.362 199.831 420.201 198.111 419.659C196.841 419.251 196.152 419.223 195.464 419.194L194.975 419.221C194.975 419.221 194.502 419.095 194.039 418.718C192.889 418.268 192.202 418.195 191.516 418.121C187.279 417.129 183.042 416.138 178.15 414.755C176.773 414.33 176.051 414.296 175.329 414.262C175.329 414.262 175.088 414.193 175.071 413.663C175.077 412.319 175.101 411.505 175.384 410.875C177.096 411.357 178.549 411.656 180.001 411.954C180.458 411.998 180.915 412.043 181.872 412.53C185.842 413.736 189.311 414.5 192.78 415.264Z" fill="#241C16"/>
<path d="M105.998 334.047C107.709 335.807 109.447 337.544 111.124 339.336C112.42 340.721 113.64 342.177 114.573 343.835C102.746 339.289 95.6111 331.026 93.8649 318.474C93.0669 312.738 92.2808 307.001 91.4893 301.264C91.5583 299.373 91.6273 297.483 92.0282 294.873C92.9516 287.014 93.5431 279.874 94.1346 272.734C95.1014 272.732 96.0682 272.731 97.4782 273.108C98.0142 274.516 98.1068 275.546 98.084 276.986C94.8356 293.42 94.1535 309.404 99.0381 325.23C99.4612 326.6 100.866 327.668 101.92 329.194C103.349 331.023 104.674 332.535 105.998 334.047Z" fill="#0E0A07"/>
<path d="M92.2025 269.125C92.1895 269.726 92.1765 270.327 91.7971 271.26C89.7652 272.714 86.5761 268.787 85.9198 273.254C85.2298 273.272 84.5399 273.291 83.2881 272.941C79.8896 272.307 77.053 272.042 74.2165 271.777C73.3312 271.569 72.4459 271.362 71.6445 270.67C75.2724 269.674 78.8163 269.162 82.4188 268.642C80.2157 266.169 78.5865 264.34 76.9573 262.511C79.3312 261.677 81.6486 260.547 84.0927 260.079C87.4726 259.433 90.948 259.284 94.6913 259.285C92.7197 262.187 90.4392 264.726 87.734 267.739C89.088 268.159 90.6453 268.642 92.2025 269.125Z" fill="#302011"/>
<path d="M264.843 359.54C266.493 359.135 268.458 358.792 270.423 358.791C282.189 358.783 293.963 359.12 305.718 358.78C311.305 358.619 316.857 357.217 322.779 356.203C326.629 354.664 330.127 353.3 334.002 351.959C329.522 354.179 324.865 357.32 319.771 358.402C301.713 362.238 283.415 361.201 264.843 359.54Z" fill="#4D3C2E"/>
<path d="M91.2578 301.551C92.2808 307.001 93.067 312.738 93.8649 318.474C95.6111 331.026 102.746 339.289 114.605 344.201C115.353 344.748 115.747 345.164 116.202 345.791C105.281 343.154 97.1581 336.717 94.2672 325.648C92.2576 317.954 92.0429 309.791 91.2578 301.551Z" fill="#544132"/>
<path d="M134.055 344.761C136.114 345.089 138.172 345.417 141.073 345.748C146.629 346.412 151.344 347.074 156.058 347.735C156.06 348.189 156.063 348.643 155.675 349.456C153.555 350.03 151.826 350.246 150.098 350.462C149.679 350.449 149.26 350.435 148.311 350.041C144.993 349.348 142.184 349.17 139.425 348.697C133.743 347.722 128.088 346.59 122.421 345.522C122.093 344.765 121.765 344.007 121.656 343.002C125.935 343.423 129.995 344.092 134.055 344.761Z" fill="#0E0A07"/>
<path d="M74.0308 272.098C77.0525 272.042 79.889 272.307 82.9535 272.843C74.2143 274.966 74.2143 274.966 72.9462 284.748C72.1321 291.028 70.1897 292.201 64.9961 289.179C69.509 289.424 70.9951 287.019 70.9822 282.817C70.9709 279.131 70.2257 275.145 74.0308 272.098Z" fill="#544132"/>
<path d="M122.189 345.49C128.087 346.59 133.743 347.722 139.425 348.697C142.184 349.17 144.993 349.348 148.008 349.952C138.521 350.661 128.848 350.707 119.376 346.606C120.064 346.049 121.011 345.754 122.189 345.49Z" fill="#544132"/>
<path d="M254.433 335.598C255.457 345.08 249.032 353.091 237.223 356.637C237.431 356.02 237.925 355.231 238.621 354.96C247.455 351.522 252.174 344.787 254.433 335.598Z" fill="#544132"/>
<path d="M86.3135 273.434C86.5753 268.787 89.7644 272.713 91.8135 271.559C92.7218 271.777 93.2463 272.025 93.9527 272.503C93.5431 279.874 92.9516 287.014 92.0869 294.468C91.8136 288.078 91.8136 281.373 91.8136 274.217C90.5864 274.072 88.6472 273.844 86.3135 273.434Z" fill="#544132"/>
<path d="M150.413 350.718C151.826 350.246 153.555 350.03 155.675 349.797C157.12 349.817 158.174 349.856 159.623 349.881C164.962 349.796 169.907 349.724 175.054 349.896C167.08 350.419 158.904 350.697 150.413 350.718Z" fill="#544132"/>
<path d="M179.701 411.746C178.549 411.656 177.097 411.357 175.35 410.515C174.199 409.332 172.795 407.997 172.575 408.169C171.337 409.142 170.384 410.476 169.333 411.688C170.384 412.514 171.435 413.34 172.485 414.167C171.011 414.152 169.538 414.137 168.064 414.122C168.123 412.742 167.645 410.898 168.353 410.079C169.889 408.303 172.031 407.051 173.926 405.584C174.911 407.081 175.787 408.668 176.925 410.037C177.508 410.738 178.56 411.05 179.701 411.746Z" fill="#403226"/>
<path d="M244.312 358.48C246.404 357.351 248.932 355.267 251.325 355.411C254.814 355.622 258.205 357.435 261.876 358.858C259.584 358.735 256.914 358.697 254.56 357.816C251.036 356.497 247.847 356.394 244.312 358.48Z" fill="#4D3C2E"/>
<path d="M230.762 415.225C226.227 419.387 220.657 420.637 214.205 418.781C219.448 417.419 224.922 416.324 230.762 415.225Z" fill="#403226"/>
<path d="M172.815 414.155C171.435 413.34 170.384 412.514 169.333 411.688C170.384 410.477 171.337 409.142 172.575 408.169C172.795 407.997 174.199 409.332 175.09 410.332C175.101 411.506 175.078 412.319 175.085 413.538C174.459 414.01 173.802 414.076 172.815 414.155Z" fill="#030302"/>
<path d="M226.733 491.532C223.914 492.084 220.77 492.42 217.176 492.61C219.953 492.082 223.18 491.7 226.733 491.532Z" fill="#4D3C2E"/>
<path d="M192.524 415.008C189.311 414.5 185.842 413.737 182.174 412.703C185.406 413.206 188.837 413.979 192.524 415.008Z" fill="#403226"/>
<path d="M238.716 490.277C238.578 490.795 238.043 491.167 237.285 491.65C235.18 491.724 233.298 491.687 230.99 491.428C233.149 490.848 235.734 490.49 238.716 490.277Z" fill="#4D3C2E"/>
<path d="M252.438 419.582C254.232 419.266 256.309 419.165 258.681 419.262C256.891 419.572 254.806 419.684 252.438 419.582Z" fill="#4C3B2D"/>
<path d="M200.708 416.806C198.817 416.696 196.646 416.394 194.237 415.827C196.142 415.913 198.285 416.264 200.708 416.806Z" fill="#403226"/>
<path d="M279.313 413.396C280.85 412.213 282.729 411.044 284.971 409.892C283.441 411.076 281.548 412.243 279.313 413.396Z" fill="#4C3B2D"/>
<path d="M207.692 417.736C206.443 417.897 204.873 417.881 203.141 417.6C204.444 417.41 205.908 417.485 207.692 417.736Z" fill="#403226"/>
<path d="M253.714 415.835C252.464 415.997 250.944 415.984 249.194 415.705C250.458 415.512 251.951 415.586 253.714 415.835Z" fill="#403226"/>
<path d="M247.525 415.055C246.022 414.904 244.281 414.535 242.278 413.891C243.774 414.023 245.531 414.429 247.525 415.055Z" fill="#403226"/>
<path d="M238.302 360.852C239.527 360.028 240.99 359.369 242.806 358.768C241.62 359.556 240.079 360.287 238.302 360.852Z" fill="#544132"/>
<path d="M231.992 361.123C233.183 360.829 234.399 360.852 236.049 361.023C234.994 361.26 233.506 361.349 231.992 361.123Z" fill="#544132"/>
<path d="M258.848 415.524C258.25 415.891 257.417 416.135 256.363 416.199C256.965 415.813 257.789 415.607 258.848 415.524Z" fill="#403226"/>
<path d="M222.29 421.903C223.005 421.485 223.955 421.217 225.278 421.071C224.61 421.481 223.567 421.767 222.29 421.903Z" fill="#4C3B2D"/>
<path d="M293.496 408.55C294.187 408.15 295.071 407.947 296.41 407.723C295.805 408.049 294.747 408.398 293.496 408.55Z" fill="#403226"/>
<path d="M251.892 488.637C251.47 489.114 250.894 489.401 250.003 489.546C250.371 489.085 251.055 488.766 251.892 488.637Z" fill="#4D3C2E"/>
<path d="M265.893 485.536C265.498 486.039 264.933 486.362 264.042 486.566C264.384 486.083 265.053 485.72 265.893 485.536Z" fill="#4D3C2E"/>
<path d="M297.588 404.603C297.076 404.34 296.638 403.84 296.148 403.001C296.618 403.23 297.141 403.798 297.588 404.603Z" fill="#403226"/>
<path d="M257.885 487.703C257.468 488.166 256.9 488.439 256.023 488.574C256.388 488.129 257.062 487.821 257.885 487.703Z" fill="#4D3C2E"/>
<path d="M279.82 408.134C279.514 408.628 278.908 409.114 277.99 409.576C278.292 409.077 278.907 408.601 279.82 408.134Z" fill="#403226"/>
<path d="M286.823 404.122C286.55 404.63 285.982 405.135 285.107 405.628C285.377 405.117 285.952 404.618 286.823 404.122Z" fill="#403226"/>
<path d="M270.837 412.348C270.433 412.775 269.729 413.137 268.712 413.421C269.112 412.989 269.824 412.636 270.837 412.348Z" fill="#403226"/>
<path d="M275.836 410.28C275.477 410.732 274.82 411.156 273.848 411.526C274.202 411.065 274.869 410.658 275.836 410.28Z" fill="#403226"/>
<path d="M202.247 420.7C202.659 420.453 203.213 420.382 203.906 420.506C203.493 420.759 202.941 420.818 202.247 420.7Z" fill="#4C3B2D"/>
<path d="M195.605 419.406C196.152 419.223 196.841 419.251 197.794 419.517C197.288 419.709 196.517 419.664 195.605 419.406Z" fill="#4C3B2D"/>
<path d="M266.238 418.035C266.664 417.647 267.313 417.362 268.323 417.158C267.944 417.539 267.203 417.838 266.238 418.035Z" fill="#4C3B2D"/>
<path d="M275.243 415.226C275.599 414.755 276.254 414.336 277.216 413.981C276.863 414.456 276.202 414.867 275.243 415.226Z" fill="#4C3B2D"/>
<path d="M263.844 414.455C263.405 414.828 262.672 415.128 261.635 415.317C262.071 414.932 262.81 414.656 263.844 414.455Z" fill="#403226"/>
<path d="M175.498 414.453C176.051 414.296 176.773 414.33 177.787 414.591C177.275 414.761 176.471 414.703 175.498 414.453Z" fill="#403226"/>
<path d="M235.883 413.408C235.458 413.823 234.797 414.136 233.758 414.39C234.136 413.989 234.891 413.647 235.883 413.408Z" fill="#403226"/>
<path d="M191.643 418.343C192.203 418.194 192.889 418.268 193.829 418.593C193.312 418.751 192.541 418.658 191.643 418.343Z" fill="#4C3B2D"/>
<path d="M262.219 419.014C262.654 418.612 263.372 418.32 264.383 418.139C263.951 418.542 263.226 418.833 262.219 419.014Z" fill="#4C3B2D"/>
<path d="M245.62 418.384C246.174 418.238 246.87 418.306 247.828 418.622C247.314 418.78 246.538 418.688 245.62 418.384Z" fill="#4C3B2D"/>
<path d="M254.154 321.328C254.341 321.322 254.503 321.463 254.482 321.662C254.299 321.719 254.13 321.475 254.154 321.328Z" fill="#544132"/>
<path d="M165.983 483.665C165.923 483.748 165.741 483.74 165.285 483.742C165.012 483.751 165.166 483.477 165.266 483.357C165.533 483.346 165.699 483.459 165.983 483.665Z" fill="#05040C"/>
<path d="M250.211 279.73C249.295 287.368 248.908 295.13 245.385 302.266C242.086 298.539 243.341 294.434 243.46 290.512C243.595 286.05 243.901 281.593 244.121 277.133C244.28 273.93 242.611 272.756 239.552 272.699C233.939 272.595 228.33 272.289 222.3 271.498C218.69 268.115 215.707 269.068 213.057 273.749C212.385 276.057 211.051 278.395 211.155 280.668C211.643 291.266 209.307 301.292 206.082 311.263C204.263 316.885 203.37 322.811 201.484 328.405C200.596 331.04 198.352 333.217 196.007 335.679C194.539 335.744 193.786 335.731 193.032 335.718C195.591 329.271 198.897 323.009 200.545 316.337C203.552 304.171 206.213 291.838 207.7 279.417C208.304 274.371 205.46 268.911 204.257 262.988C205.273 261.465 206.217 260.595 207.498 259.803C211.578 264.127 215.913 262.984 220.869 262.309C227.943 261.346 235.324 261.433 242.424 262.298C247.142 262.873 248.408 261.113 249.176 258.68C244.919 258.165 240.953 257.686 236.987 257.206C244.628 258.659 250.346 252.723 257.768 252.04C257.378 253.003 256.613 253.822 254.8 255.764C261.081 255.764 266.364 255.587 271.63 255.799C285.389 256.354 299.14 257.088 312.895 257.732C319.585 258.045 326.108 256.852 333.013 258.93C341.81 261.576 346.244 269.789 346.91 276.569C349.101 298.876 342.945 320.039 337.554 341.279C337.337 342.134 336.378 342.801 335.472 343.319C335.095 341.573 335.01 340.063 334.963 338.14C337.11 326.392 339.698 315.12 341.179 303.704C342.415 294.179 346.13 284.703 343.219 274.596C343.774 269.725 338.323 263.105 334.062 263.135C333.377 263.14 332.701 264.195 331.695 264.751C330.937 264.72 330.503 264.703 329.764 264.476C325.459 263.41 321.495 262.066 317.457 261.79C304.544 260.906 291.6 260.475 278.675 259.757C269.358 259.238 260.319 259.521 252.794 266.807C246.318 270.677 245.452 275.075 249.979 279.75C250.056 279.741 250.211 279.73 250.211 279.73Z" fill="#382A1E"/>
<path d="M286.77 218.489C292.643 219.285 298.139 219.697 303.45 220.916C309.809 222.375 315.101 228.607 314.79 233.76C313.847 233.495 312.817 233.475 312.141 232.977C301.568 225.172 289.429 223.371 276.737 223.562C274.576 223.594 272.353 223.658 270.268 223.204C268.901 222.907 267.732 221.704 266.475 220.906C267.771 219.871 269.024 218.023 270.371 217.951C274.667 217.724 278.999 218.157 283.316 218.335C284.315 218.376 285.313 218.42 286.77 218.489Z" fill="#2D231B"/>
<path d="M178.673 221.344C162.237 221.473 148.366 227.874 135.301 236.625C134.816 236.313 134.33 236 133.845 235.688C134.471 234.025 134.606 231.743 135.8 230.796C147.86 221.23 161.384 215.488 177.084 215.968C178.062 215.998 179.223 216.107 179.955 216.646C181.044 217.448 181.827 218.667 182.74 219.709C181.526 220.261 180.312 220.814 178.673 221.344Z" fill="#2D231B"/>
<path d="M236.584 257.091C240.952 257.686 244.918 258.166 249.176 258.681C248.407 261.113 247.141 262.874 242.423 262.299C235.323 261.433 227.942 261.347 220.869 262.31C215.913 262.984 211.578 264.127 207.42 259.454C205.026 257.537 203.047 256.048 200.759 254.343C197.864 253.67 195.283 252.845 192.694 252.819C179.82 252.686 166.943 252.764 154.064 252.43C154.061 251.64 154.06 251.189 154.059 250.738C158.962 250.092 163.865 249.446 168.946 248.468C171.784 248.091 174.444 248.046 177.74 248.425C179.477 249.118 180.585 249.646 181.678 249.615C190.837 249.357 199.834 250.108 208.45 253.525C209.53 254.483 210.611 255.442 211.9 257.048C213.969 258.382 215.908 259.803 217.672 259.611C222.49 259.089 227.233 257.887 232.006 256.955C233.398 256.961 234.789 256.968 236.584 257.091Z" fill="#100B07"/>
<path d="M301.676 252.892C299.072 253.619 296.162 254.655 293.292 254.556C282.312 254.176 271.346 253.432 260.173 252.51C266.702 252.245 273.433 252.268 280.164 252.347C287.239 252.43 294.313 252.566 301.676 252.892Z" fill="#382A1E"/>
<path d="M208.354 253.185C199.834 250.108 190.838 249.357 181.678 249.615C180.585 249.646 179.478 249.118 178.171 248.539C188.313 248.123 198.91 246.386 208.354 253.185Z" fill="#382A1E"/>
<path d="M231.691 256.75C227.233 257.887 222.49 259.089 217.672 259.611C215.908 259.802 213.969 258.381 212.037 257.327C216.153 256.938 220.342 256.951 224.53 256.881C226.813 256.843 229.094 256.663 231.691 256.75Z" fill="#382A1E"/>
<path d="M327.654 253.836C321.107 254.04 314.249 253.979 307.174 253.619C313.753 253.403 320.548 253.488 327.654 253.836Z" fill="#382A1E"/>
<path d="M36.383 261.596C36.3167 261.182 36.2504 260.767 36.364 259.755C35.8103 256.324 35.0767 253.489 34.3431 250.655C34.2929 250.225 34.2427 249.795 34.395 248.719C34.2103 245.262 33.8232 242.451 33.4361 239.64C33.3394 238.596 33.2427 237.552 33.3073 235.932C33.1487 234.773 32.8287 234.191 32.5088 233.608C32.3981 232.888 32.2873 232.167 32.3414 230.801C32.18 227.255 31.8537 224.355 31.459 220.845C35.8121 224.304 39.135 227.518 42.9806 229.881C50.9237 234.762 56.8199 242.818 66.5214 245.02C67.5616 245.256 68.3006 246.819 69.1793 247.766C68.9485 250.536 68.7177 253.306 67.8397 256.386C65.4703 257.354 63.748 258.013 62.0257 258.671C57.6311 259.313 53.2364 259.954 48.2502 260.466C47.0862 260.692 46.5137 261.048 45.9412 261.404C45.2096 261.46 44.478 261.515 43.1018 261.389C40.4325 261.337 38.4078 261.466 36.383 261.596Z" fill="#464646"/>
<path d="M154.067 252.768C166.943 252.764 179.82 252.686 192.694 252.818C195.283 252.845 197.864 253.67 200.624 254.676C200.147 256.75 199.495 258.274 198.842 259.798C194.479 259.423 190.118 259.022 185.753 258.679C181.461 258.343 177.161 257.764 172.871 257.815C155.332 258.026 137.797 258.51 120.258 258.735C113.801 258.819 110.034 262.749 106.193 267.228C104.868 266.616 103.932 266.153 102.995 265.689C104.65 257.914 109.766 254.292 119.761 253.739C124.014 253.503 128.26 253.165 132.96 252.801C136.89 252.719 140.369 252.71 144.774 252.729C148.489 252.76 151.278 252.764 154.067 252.768Z" fill="#2B1F13"/>
<path d="M69.4004 247.491C68.3011 246.819 67.562 245.256 66.5219 245.02C56.8203 242.818 50.9241 234.762 42.981 229.881C39.1355 227.518 35.8125 224.304 31.4594 220.845C31.8542 224.355 32.1805 227.256 32.3389 230.436C30.7992 225.515 29.1922 220.361 28.1402 215.096C27.4643 211.713 27.6051 208.167 27.335 204.303C28.705 205.196 30.9988 206.265 31.3773 207.805C32.7634 213.446 35.8622 217.412 40.4575 220.92C46.5901 225.6 52.2419 230.936 57.8989 236.206C61.3958 239.464 65.2979 241.099 70.4375 240.863C70.4342 243.007 70.0277 245.111 69.4004 247.491Z" fill="#313130"/>
<path d="M76.5956 262.545C78.5864 264.34 80.2155 266.169 82.4187 268.642C78.8162 269.162 75.2723 269.674 71.4125 270.415C70.3637 270.756 69.6309 270.867 68.1178 270.952C66.1952 270.971 65.0528 271.017 63.9104 271.062C61.6007 270.944 59.2911 270.826 56.542 270.308C57.4607 268.855 58.6669 267.372 60.2057 266.825C64.7506 265.21 69.4271 263.965 74.0521 262.576C74.7794 262.577 75.5067 262.578 76.5956 262.545Z" fill="#653711"/>
<path d="M73.7266 262.37C69.4263 263.965 64.7498 265.21 60.2048 266.825C58.6661 267.372 57.4599 268.854 56.1064 270.29C51.6264 270.805 47.0577 271.224 43.2793 266.328C53.406 263.598 63.2677 262.054 73.7266 262.37Z" fill="#302011"/>
<path d="M92.522 268.982C90.6447 268.641 89.0874 268.158 87.7334 267.738C90.4386 264.726 92.7191 262.187 95.1198 259.341C96.5521 258.724 97.8641 258.415 99.5571 258.399C99.9929 259.381 100.048 260.068 100.102 260.755C97.6822 263.45 95.2622 266.145 92.522 268.982Z" fill="#613510"/>
<path d="M102.752 265.918C103.932 266.152 104.868 266.616 105.9 267.391C104.759 270.453 103.523 273.204 101.757 276.309C100.217 276.635 99.2083 276.606 98.1996 276.577C98.1069 275.546 98.0142 274.516 97.8408 273.105C99.3432 270.532 100.926 268.34 102.752 265.918Z" fill="#613510"/>
<path d="M67.1988 274.674C66.9458 277.26 66.6927 279.846 66.4397 282.432C65.8794 282.567 65.3191 282.701 64.7587 282.836C62.5912 280.32 60.4236 277.804 58.5889 275.01C61.6807 274.713 64.4398 274.693 67.1988 274.674Z" fill="#454544"/>
<path d="M67.3929 274.428C64.4399 274.694 61.6808 274.713 58.4658 274.69C59.8952 273.65 61.7805 272.653 63.7878 271.359C65.0521 271.016 66.1945 270.971 67.7559 271.032C67.9788 272.153 67.7828 273.167 67.3929 274.428Z" fill="#1F170F"/>
<path d="M31.6712 191.792C32.452 194.985 30.9162 196.858 27.487 197.717C26.6536 194.499 28.1873 192.62 31.6712 191.792Z" fill="#11100D"/>
<path d="M33.3467 240.078C33.8235 242.451 34.2107 245.262 34.3875 248.394C33.8705 245.982 33.5637 243.249 33.3467 240.078Z" fill="#313130"/>
<path d="M34.2666 251.065C35.0771 253.49 35.8107 256.324 36.3439 259.442C35.4922 256.975 34.8409 254.225 34.2666 251.065Z" fill="#313130"/>
<path d="M36.3857 261.934C38.4077 261.466 40.4324 261.337 42.7344 261.385C40.804 261.799 38.5963 262.036 36.3857 261.934Z" fill="#313130"/>
<path d="M62.4121 258.711C63.7475 258.013 65.4698 257.355 67.5855 256.692C66.2523 257.376 64.5257 258.064 62.4121 258.711Z" fill="#313130"/>
<path d="M100.358 260.609C100.048 260.068 99.9933 259.381 99.8916 258.358C100.101 258.836 100.357 259.65 100.358 260.609Z" fill="#302011"/>
<path d="M32.4463 233.901C32.829 234.191 33.1489 234.774 33.3203 235.538C32.909 235.211 32.6462 234.703 32.4463 233.901Z" fill="#313130"/>
<path d="M46.2412 261.456C46.514 261.048 47.0865 260.692 47.8443 260.482C47.5333 260.922 47.0371 261.215 46.2412 261.456Z" fill="#313130"/>
<path d="M154.065 252.43C151.279 252.764 148.489 252.76 145.212 252.751C147.54 252.067 150.357 251.389 153.617 250.725C154.06 251.189 154.061 251.64 154.065 252.43Z" fill="#060504"/>
<path d="M323.424 353.726C318.819 354.378 314.596 355.392 310.342 355.55C300.781 355.904 291.203 355.793 281.634 355.962C279.005 356.008 276.382 356.372 273.342 356.184C270.249 350.854 263.594 350.363 259.02 354.753C258.254 354.437 257.298 354.306 256.763 353.762C255.844 352.826 255.187 351.633 254.42 350.548C255.724 349.818 257.045 348.429 258.328 348.464C267.254 348.707 276.174 349.624 285.093 349.582C293.829 349.54 302.56 348.618 312.114 347.918C314.982 347.754 317.03 347.754 319.169 348.116C322.374 353.028 326.465 349.567 330.105 349.801C328.001 351.1 325.897 352.399 323.424 353.726Z" fill="#2B1F13"/>
<path d="M330.392 349.63C326.465 349.567 322.373 353.029 319.464 347.895C325.573 345.818 331.901 345.064 334.925 338.554C335.01 340.063 335.094 341.573 335.136 343.437C333.621 345.681 332.15 347.57 330.392 349.63Z" fill="#593210"/>
<path d="M350.848 272.159C355.328 272.373 359.89 272.797 364.338 273.752C365.702 274.045 366.754 275.791 367.94 277.241C366.948 277.592 365.964 277.574 364.499 277.303C363.325 277.229 362.632 277.409 361.939 277.59C359.655 277.506 357.369 277.453 355.087 277.332C352.1 277.172 350.633 275.62 350.848 272.159Z" fill="#613510"/>
<path d="M362.322 277.625C362.632 277.41 363.325 277.229 364.128 277.276C363.728 277.555 363.217 277.607 362.322 277.625Z" fill="#312213"/>
<path d="M196.901 308.335C195.441 313.192 193.792 317.572 192.672 322.083C189.557 334.623 180.922 339.716 168.805 339.689C153.83 339.655 138.841 339.593 124.172 335.663C114.21 332.994 107.164 324.659 107.092 314.057C107.008 301.737 107.23 289.411 107.529 277.092C107.695 270.268 111.659 265.701 118.419 265.137C129.837 264.184 141.293 263.49 152.746 263.2C164.22 262.911 175.718 262.994 187.189 263.384C198.856 263.781 201.702 270.629 201.278 279.853C200.846 289.254 198.476 298.566 196.901 308.335ZM169.123 307.366C174.854 309.164 178.063 308.515 179.78 303.579C181.71 298.031 182.75 292.059 183.308 286.188C183.697 282.096 180.631 279.812 176.713 278.543C172.767 277.264 169.558 277.784 166.787 280.908C160.719 287.747 161.572 301.035 169.123 307.366Z" fill="#DFAE85"/>
<path d="M98.0844 276.986C99.2087 276.606 100.217 276.635 101.605 276.642C102.01 288.694 101.906 300.769 102.148 312.838C102.216 316.215 103.303 319.571 103.75 323.57C102.99 325.761 102.403 327.319 101.816 328.877C100.867 327.668 99.4616 326.601 99.0385 325.23C94.1539 309.405 94.836 293.42 98.0844 276.986Z" fill="#291E13"/>
<path d="M192.739 335.883C193.785 335.732 194.539 335.745 195.668 335.752C194.725 340.556 188.077 345.061 182.51 344.671C184.155 342.844 186.085 340.987 188.121 339.254C189.484 338.094 190.998 337.111 192.739 335.883Z" fill="#502E10"/>
<path d="M198.992 260.128C199.495 258.274 200.147 256.749 200.935 254.892C203.048 256.048 205.026 257.537 207.083 259.375C206.217 260.595 205.273 261.465 204.182 262.631C202.404 262.104 200.772 261.281 198.992 260.128Z" fill="#653711"/>
<path d="M101.921 329.195C102.403 327.319 102.991 325.761 103.825 323.948C105.497 326.334 107.021 328.93 108.244 331.661C108.431 332.08 107.232 333.118 106.336 333.959C104.674 332.535 103.35 331.024 101.921 329.195Z" fill="#502E10"/>
<path d="M171.897 346.364C168.343 347.064 164.643 347.407 160.5 347.75C161.761 344.238 166.433 343.542 171.897 346.364Z" fill="#1F170F"/>
<path d="M156.015 347.343C151.343 347.074 146.629 346.412 141.487 345.746C141.566 345.158 142.111 344.041 142.575 344.074C146.743 344.369 150.902 344.827 155.046 345.37C155.417 345.418 155.666 346.402 156.015 347.343Z" fill="#1F170F"/>
<path d="M133.925 344.415C129.995 344.092 125.935 343.423 121.466 342.743C121.739 342.125 122.572 340.891 123.081 341.012C126.69 341.875 130.232 343.016 133.925 344.415Z" fill="#1F170F"/>
<path d="M213.451 273.743C215.707 269.068 218.691 268.115 221.972 271.247C219.323 272.289 216.584 273.013 213.451 273.743Z" fill="#502E10"/>
<path d="M252.154 276.046C252.184 276.968 252.213 277.89 252.227 279.274C251.764 279.736 251.318 279.738 250.541 279.735C250.211 279.73 250.056 279.741 250.09 279.412C250.801 278.07 251.477 277.058 252.154 276.046Z" fill="#100B07"/>
<path d="M334.963 338.14C331.901 345.064 325.573 345.817 319.374 347.532C317.03 347.753 314.982 347.753 312.496 347.749C312.058 347.292 312.059 346.839 312.061 346.046C317.013 344.357 321.962 343.008 327.169 341.187C327.427 340.714 327.813 340.577 328.176 340.58C329.711 339.098 331.606 337.751 331.925 336.101C333.066 330.179 333.674 324.154 334.457 317.867C334.534 316.975 334.638 316.384 335.022 315.542C338.465 307.566 340.107 299.573 339.493 290.955C339.464 290.395 339.544 290.091 339.996 289.505C342.314 282.712 340.609 276.515 339.074 270.542C340.564 272.129 341.778 273.501 342.992 274.873C346.129 284.703 342.414 294.179 341.179 303.704C339.697 315.12 337.11 326.392 334.963 338.14Z" fill="#150E08"/>
<path d="M259.394 354.913C263.594 350.363 270.249 350.854 272.912 356.127C268.52 356.008 264.144 355.54 259.394 354.913Z" fill="#502E10"/>
<path d="M327.813 340.577C327.813 340.577 327.427 340.714 327.283 340.859C318.32 342.272 309.536 344.175 300.676 344.649C289.246 345.261 277.754 344.79 266.29 344.645C263.703 344.612 261.124 343.997 258.744 343.678C259.061 336.8 259.679 330.509 259.497 324.24C259.411 321.255 258.666 317.425 256.713 315.528C251.747 310.705 251.358 305.144 252.138 299.054C253.208 290.688 254.28 282.319 255.612 273.993C255.907 272.152 257.292 270.485 258.53 268.274C259.254 267.417 259.623 267.024 260.385 266.613C263.964 265.909 267.142 264.7 270.343 264.638C279.289 264.464 288.277 264.327 297.189 264.984C309.756 265.91 322.876 263.33 334.804 270.533C336.501 274.526 338.328 278.142 339.394 281.971C340.076 284.421 339.636 287.184 339.7 289.807C339.544 290.091 339.465 290.396 339.249 291.236C337.605 299.766 336.174 307.779 334.743 315.792C334.638 316.384 334.534 316.975 334.21 318.139C333.463 321.094 333.064 323.513 332.38 325.849C330.937 330.782 329.344 335.671 327.813 340.577ZM273.127 292.348C272.96 294.991 272.479 297.66 272.694 300.271C273.07 304.839 277.054 308.846 281.586 309.873C285.153 310.682 287.981 309.493 289.575 306.366C293.068 299.514 293.769 292.328 290.336 285.279C287.19 278.82 279.881 278.551 276.093 284.665C274.809 286.738 274.238 289.252 273.127 292.348Z" fill="#E0AF86"/>
<path d="M259.993 266.631C259.623 267.024 259.254 267.417 258.637 267.926C256.479 270.322 254.567 272.604 252.346 274.65C252.407 271.858 252.777 269.301 253.148 266.744C260.319 259.521 269.358 259.238 278.675 259.756C291.6 260.475 304.544 260.905 317.456 261.79C321.494 262.066 325.459 263.41 329.748 264.809C330.028 265.575 330.017 265.796 329.615 265.94C326.478 265.221 323.746 264.101 320.984 264.019C303.528 263.503 286.065 263.038 268.604 263.031C265.734 263.03 262.864 265.372 259.993 266.631Z" fill="#100B07"/>
<path d="M252.794 266.807C252.777 269.301 252.406 271.858 252.058 274.898C252.08 275.382 252.132 275.835 252.143 275.94C251.477 277.058 250.8 278.07 250.013 279.421C245.452 275.075 246.318 270.677 252.794 266.807Z" fill="#502E10"/>
<path d="M343.219 274.597C341.778 273.502 340.564 272.13 339.025 270.456C338.699 270.155 338.433 269.802 338.152 269.587C336.908 268.728 335.946 268.083 334.804 267.324C334.231 267.099 333.839 266.989 333.253 266.624C332.713 265.835 332.366 265.3 332.02 264.766C332.7 264.196 333.377 263.141 334.061 263.136C338.322 263.106 343.774 269.725 343.219 274.597Z" fill="#502E10"/>
<path d="M331.695 264.751C332.366 265.3 332.713 265.834 332.875 266.63C331.796 266.601 330.901 266.31 330.007 266.019C330.017 265.797 330.028 265.575 330.053 265.02C330.503 264.703 330.936 264.72 331.695 264.751Z" fill="#150E08"/>
<path d="M168.801 307.179C161.571 301.034 160.719 287.747 166.787 280.908C169.558 277.784 172.767 277.264 176.713 278.543C180.631 279.812 183.696 282.096 183.307 286.188C182.749 292.058 181.709 298.031 179.78 303.579C178.063 308.515 174.854 309.163 168.801 307.179Z" fill="#0F0C09"/>
<path d="M335.022 315.542C336.174 307.779 337.605 299.766 339.282 291.472C340.107 299.573 338.466 307.566 335.022 315.542Z" fill="#4C3B2D"/>
<path d="M338.433 269.801C338.433 269.801 338.699 270.155 338.748 270.241C340.609 276.515 342.314 282.713 339.996 289.506C339.636 287.184 340.076 284.421 339.394 281.971C338.327 278.142 336.501 274.526 334.951 270.371C334.905 269.922 335.199 269.598 335.596 269.663C336.807 269.752 337.62 269.777 338.433 269.801Z" fill="#4C3B2D"/>
<path d="M328.177 340.58C329.345 335.67 330.937 330.781 332.38 325.849C333.064 323.513 333.463 321.093 334.237 318.439C333.674 324.153 333.066 330.179 331.925 336.101C331.607 337.751 329.712 339.098 328.177 340.58Z" fill="#4C3B2D"/>
<path d="M273.234 291.957C274.238 289.252 274.809 286.738 276.093 284.665C279.881 278.552 287.19 278.821 290.336 285.279C293.769 292.329 293.068 299.515 289.575 306.366C287.981 309.493 285.153 310.682 281.586 309.874C277.054 308.846 273.07 304.84 272.694 300.272C272.479 297.66 272.96 294.992 273.234 291.957Z" fill="#0F0C09"/>
<path d="M329.615 265.94C330.902 266.309 331.797 266.601 333.069 266.885C333.839 266.988 334.231 267.099 334.781 267.691C335.025 268.647 335.113 269.122 335.2 269.597C335.2 269.597 334.906 269.921 334.759 270.084C322.876 263.329 309.756 265.909 297.19 264.983C288.278 264.326 279.29 264.464 270.343 264.638C267.143 264.7 263.964 265.908 260.385 266.612C262.864 265.372 265.735 263.03 268.604 263.031C286.065 263.038 303.528 263.503 320.984 264.019C323.746 264.101 326.478 265.221 329.615 265.94Z" fill="#4C3B2D"/>
<path d="M335.596 269.662C335.112 269.122 335.025 268.647 334.961 267.805C335.946 268.082 336.908 268.727 338.152 269.587C337.62 269.776 336.807 269.752 335.596 269.662Z" fill="#150E08"/>
</svg>
