<svg width="110" height="30" viewBox="0 0 110 30" fill="none" xmlns="http://www.w3.org/2000/svg">
<path d="M15.5639 28.1766C15.5639 27.3558 15.5148 27.2332 14.7673 25.7263C14.3261 24.8565 13.9707 24.1093 13.9707 24.0725C13.9707 24.0357 14.1913 24.0112 14.4487 24.0112C14.9143 24.0112 14.9389 24.0235 15.2943 24.7953C15.4903 25.2241 15.7354 25.7754 15.8212 26.0204C16.0051 26.5349 16.1153 26.5716 16.2256 26.1674C16.2624 26.0081 16.4953 25.4568 16.7404 24.9423C17.1815 24.0235 17.1815 24.0112 17.6595 24.0112C17.9168 24.0112 18.1374 24.0357 18.1374 24.0725C18.1374 24.1093 17.782 24.8565 17.3409 25.7263C16.5933 27.2332 16.5443 27.3558 16.5443 28.1766V29.0341H16.0541H15.5639V28.1766Z" fill="#163546"/>
<path d="M18.787 28.9129C18.0885 28.6311 17.7576 27.0876 18.1988 26.1565C18.5174 25.5072 19.6081 25.2009 20.515 25.5072C21.1278 25.7154 21.4341 26.132 21.5199 26.8915C21.6302 27.7858 21.3974 28.5087 20.9194 28.7904C20.4905 29.0477 19.3017 29.1212 18.787 28.9129ZM20.3557 28.1044C20.6253 27.7858 20.564 26.4628 20.2822 26.2667C19.9513 26.0217 19.5223 26.0585 19.2405 26.3402C18.9709 26.6097 18.8973 27.6389 19.1179 28.0676C19.2895 28.3739 20.1106 28.3984 20.3557 28.1044Z" fill="#163546"/>
<path d="M22.6719 28.7892C22.4513 28.5687 22.4268 28.3849 22.4268 27.0128V25.4814H22.9171H23.4073V26.8291C23.4073 28.3604 23.4563 28.4339 24.2774 28.1889L24.7553 28.0419V26.7678V25.4814H25.2455H25.7357V27.2578V29.0342H25.3681C25.172 29.0342 25.0004 28.9974 25.0004 28.9484C24.9882 28.6054 24.7798 28.5565 24.3264 28.7892C23.7014 29.1077 22.9906 29.1077 22.6719 28.7892Z" fill="#163546"/>
<path d="M26.7163 27.259V25.4826H27.084C27.3168 25.4826 27.4516 25.5439 27.4516 25.6541C27.4516 25.9726 27.6354 25.9726 28.2482 25.6663C28.9467 25.2989 29.1673 25.2866 29.1673 25.5806C29.1673 26.1197 29.0203 26.3402 28.6649 26.3402C28.481 26.3402 28.1869 26.3892 28.0154 26.4627C27.6967 26.5729 27.6967 26.5974 27.6967 27.8103V29.0354H27.2065H26.7163V27.259Z" fill="#163546"/>
<path d="M31.3731 26.5966V24.1709L31.7531 24.0852C32.8438 23.8769 34.2286 24.0729 34.6208 24.5016C34.8904 24.8079 35.0007 25.8003 34.8168 26.3638C34.633 26.9396 34.2041 27.1356 33.1869 27.1356H32.3536V28.0789V29.0345H31.8634H31.3731V26.5966ZM33.6771 26.2658C33.8732 26.1311 33.9467 25.9595 33.9467 25.6043C33.9467 25.004 33.6158 24.7467 32.8805 24.7467H32.3536V25.6043V26.4619H32.8805C33.1624 26.4619 33.53 26.3761 33.6771 26.2658Z" fill="#163546"/>
<path d="M36.312 28.9129C35.6135 28.6311 35.2826 27.0876 35.7238 26.1565C36.0424 25.5072 37.1331 25.2009 38.04 25.5072C38.6528 25.7154 38.9591 26.132 39.0449 26.8915C39.1552 27.7858 38.9224 28.5087 38.4444 28.7904C38.0155 29.0477 36.8267 29.1212 36.312 28.9129ZM37.8807 28.1044C38.1503 27.7858 38.089 26.4628 37.8072 26.2667C37.4763 26.0217 37.0473 26.0585 36.7655 26.3402C36.4959 26.6097 36.4223 27.6389 36.6429 28.0676C36.8145 28.3739 37.6356 28.3984 37.8807 28.1044Z" fill="#163546"/>
<path d="M40.5034 28.9248C39.9887 28.7043 39.7804 28.3122 39.7314 27.5037C39.6701 26.5848 39.8539 25.9356 40.2583 25.6783C40.6505 25.421 41.4838 25.3108 42.0966 25.4455C42.501 25.5313 42.5868 25.6048 42.5868 25.8498C42.5868 26.1439 42.5378 26.1561 41.827 26.1929C41.202 26.2174 41.0304 26.2786 40.8711 26.4992C40.626 26.8421 40.6382 27.6752 40.8833 28.0304C41.0427 28.2632 41.1775 28.3 41.8392 28.3C42.5378 28.3 42.6236 28.3245 42.6848 28.5695C42.7339 28.7165 42.7339 28.8635 42.7094 28.9003C42.5991 29.0106 40.7485 29.0351 40.5034 28.9248Z" fill="#163546"/>
<path d="M43.506 26.5226V24.0112H43.9962H44.4864V25.3588C44.4864 26.5594 44.5109 26.7065 44.707 26.7065C44.8173 26.7065 45.0991 26.4247 45.332 26.0939C45.7241 25.5181 45.7732 25.4813 46.2879 25.4813H46.8394L46.2266 26.2409L45.6261 27.0005L46.2879 28.0173L46.9374 29.0341H46.4104C45.8835 29.0341 45.8712 29.0341 45.3932 28.1766C44.7437 27.0127 44.4864 27.0127 44.4864 28.1766V29.0341H43.9962H43.506V26.5226Z" fill="#163546"/>
<path d="M47.9666 28.8022C47.5254 28.5327 47.3048 28.0058 47.3048 27.1973C47.3048 25.8987 47.7827 25.4331 49.1063 25.4209C49.6823 25.4209 49.9396 25.4822 50.197 25.6781C50.6014 25.9722 50.7607 26.4745 50.6014 26.94C50.4421 27.3933 50.0377 27.5648 49.0818 27.5648C48.6406 27.5648 48.2852 27.6016 48.2852 27.6629C48.2852 27.7118 48.371 27.8834 48.4813 28.0303C48.6406 28.2631 48.7754 28.2998 49.5597 28.2998C50.3686 28.2998 50.4666 28.3243 50.5279 28.5571C50.6137 28.8879 50.2093 29.0349 49.1676 29.0349C48.5793 29.0349 48.2362 28.9737 47.9666 28.8022ZM49.6945 26.5847C49.6945 25.911 48.4077 25.9967 48.3097 26.6828C48.2729 26.9523 48.2975 26.9645 48.9837 26.9278C49.6455 26.891 49.6945 26.8665 49.6945 26.5847Z" fill="#163546"/>
<path d="M52.0968 28.8014C51.8762 28.5808 51.8394 28.3848 51.8394 27.3802C51.8394 26.2165 51.8394 26.2165 51.533 26.2165C51.2757 26.2165 51.2267 26.1552 51.2267 25.8489C51.2267 25.5427 51.2757 25.4814 51.533 25.4814C51.8149 25.4814 51.8394 25.4324 51.8394 24.9914C51.8394 24.5135 51.8517 24.5013 52.2683 24.5013C52.685 24.5013 52.6973 24.5135 52.6973 24.9914V25.4814H53.2488C53.7757 25.4814 53.8002 25.4936 53.8002 25.8489C53.8002 26.2042 53.7757 26.2165 53.2488 26.2165H52.6973V27.025C52.6973 28.0173 52.8321 28.299 53.3223 28.299C53.6532 28.299 53.6899 28.3358 53.6532 28.6421C53.6164 28.9484 53.5674 28.9729 52.9791 29.0096C52.4644 29.0342 52.2929 28.9974 52.0968 28.8014Z" fill="#163546"/>
<path d="M56.864 28.8145C56.1777 28.4837 55.9448 27.8589 55.9571 26.4623C55.9571 25.2617 56.1409 24.6491 56.6066 24.2938C56.9743 23.9998 57.7586 23.8651 58.5429 23.9508L59.315 24.0366V24.4531V24.8696H58.4204C57.1336 24.8696 57.0601 24.9432 57.011 26.3888C56.962 27.5158 56.9743 27.5648 57.2929 27.8834C57.5993 28.1774 57.6728 28.2019 58.5307 28.1529L59.4376 28.1161V28.4959C59.4376 28.9614 59.2537 29.035 58.0895 29.035C57.5748 29.035 57.1458 28.9614 56.864 28.8145Z" fill="#163546"/>
<path d="M60.5524 28.7156C60.3195 28.4093 60.295 28.2256 60.295 26.2042V24.0112H60.7852H61.2754V26.0939V28.1888L61.6431 28.2623C61.9495 28.3113 62.0107 28.3848 62.0107 28.6788C62.0107 29.0219 61.9862 29.0341 61.4102 29.0341C60.8955 29.0341 60.7607 28.9851 60.5524 28.7156Z" fill="#163546"/>
<path d="M62.8197 28.7764C62.5501 28.5681 62.5011 28.4211 62.5011 27.9433C62.5011 27.1102 62.7584 26.902 63.9227 26.853C64.707 26.804 64.8295 26.7673 64.8295 26.5712C64.8295 26.2404 64.4496 26.0935 63.5673 26.0935C62.7952 26.0935 62.6236 26.0077 62.6236 25.6035C62.6236 25.4319 64.5599 25.3339 65.0256 25.4809C65.6506 25.6892 65.81 26.1547 65.81 27.7473V29.0459L65.4178 29.0092C65.1114 28.9847 65.0011 28.9111 64.9766 28.7029L64.9398 28.4211L64.4864 28.7274C63.9227 29.1071 63.2731 29.1316 62.8197 28.7764ZM64.5232 28.1516C64.7193 28.0658 64.8295 27.9189 64.8295 27.7228C64.8295 27.4655 64.7805 27.441 64.1678 27.441C63.4325 27.441 63.2977 27.5391 63.408 28.0046C63.4692 28.2373 63.5673 28.2986 63.8491 28.2986C64.0452 28.2986 64.3516 28.2373 64.5232 28.1516Z" fill="#163546"/>
<path d="M66.8029 28.9234C66.7048 28.8622 66.6681 28.7275 66.7171 28.5682C66.7906 28.3354 66.9132 28.2986 67.8078 28.2741C68.6289 28.2497 68.8127 28.2007 68.8495 28.0291C68.8862 27.8699 68.6902 27.7596 67.9916 27.5636C66.8519 27.2206 66.6681 27.0614 66.6681 26.3875C66.6681 25.971 66.7293 25.8118 66.9499 25.6769C67.3789 25.4074 67.9549 25.334 68.8617 25.4197C69.6583 25.4932 69.6951 25.5177 69.6338 25.7872C69.5848 26.069 69.5235 26.0813 68.5799 26.118C67.6975 26.1548 67.5872 26.1793 67.5872 26.3875C67.5872 26.5713 67.7588 26.6693 68.4451 26.8653C68.923 26.9878 69.3887 27.1838 69.5113 27.2819C69.9892 27.7106 69.8667 28.6294 69.2907 28.8989C68.9353 29.0583 67.048 29.0828 66.8029 28.9234Z" fill="#163546"/>
<path d="M70.6017 28.9234C70.5037 28.8622 70.4669 28.7275 70.5159 28.5682C70.5895 28.3354 70.712 28.2986 71.6066 28.2741C72.4277 28.2497 72.6115 28.2007 72.6483 28.0291C72.6851 27.8699 72.489 27.7596 71.7904 27.5636C70.6507 27.2206 70.4669 27.0614 70.4669 26.3875C70.4669 25.971 70.5282 25.8118 70.7488 25.6769C71.1777 25.4074 71.7537 25.334 72.6606 25.4197C73.4571 25.4932 73.4939 25.5177 73.4326 25.7872C73.3836 26.069 73.3223 26.0813 72.3787 26.118C71.4963 26.1548 71.386 26.1793 71.386 26.3875C71.386 26.5713 71.5576 26.6693 72.2439 26.8653C72.7218 26.9878 73.1875 27.1838 73.3101 27.2819C73.788 27.7106 73.6655 28.6294 73.0895 28.8989C72.7341 29.0583 70.8468 29.0828 70.6017 28.9234Z" fill="#163546"/>
<path d="M74.3888 27.259V25.4826H74.7564C74.9893 25.4826 75.1241 25.5439 75.1241 25.6541C75.1241 25.9726 75.3079 25.9726 75.9207 25.6663C76.6192 25.2989 76.8398 25.2866 76.8398 25.5806C76.8398 26.1197 76.6927 26.3402 76.3373 26.3402C76.1535 26.3402 75.8594 26.3892 75.6878 26.4627C75.3692 26.5729 75.3692 26.5974 75.3692 27.8103V29.0354H74.879H74.3888V27.259Z" fill="#163546"/>
<path d="M77.9795 28.9129C77.281 28.6311 76.9501 27.0876 77.3913 26.1565C77.7099 25.5072 78.8006 25.2009 79.7075 25.5072C80.3202 25.7154 80.6267 26.132 80.7125 26.8915C80.8228 27.7858 80.59 28.5087 80.112 28.7904C79.6831 29.0477 78.4943 29.1212 77.9795 28.9129ZM79.5483 28.1044C79.8179 27.7858 79.7566 26.4628 79.4747 26.2667C79.1439 26.0217 78.7148 26.0585 78.433 26.3402C78.1633 26.6097 78.0899 27.6389 78.3105 28.0676C78.4821 28.3739 79.3032 28.3984 79.5483 28.1044Z" fill="#163546"/>
<path d="M82.2687 28.9129C81.5701 28.6311 81.2392 27.0876 81.6804 26.1565C81.9991 25.5072 83.0898 25.2009 83.9967 25.5072C84.6094 25.7154 84.9158 26.132 85.0016 26.8915C85.1119 27.7858 84.879 28.5087 84.4011 28.7904C83.9721 29.0477 82.7834 29.1212 82.2687 28.9129ZM83.8373 28.1044C84.1069 27.7858 84.0457 26.4628 83.7638 26.2667C83.4329 26.0217 83.004 26.0585 82.7221 26.3402C82.4525 26.6097 82.379 27.6389 82.5996 28.0676C82.7711 28.3739 83.5922 28.3984 83.8373 28.1044Z" fill="#163546"/>
<path d="M85.9084 27.2589V25.4825H86.2638C86.5089 25.4825 86.6315 25.5561 86.6805 25.7275C86.7417 25.9603 86.754 25.9603 87.3545 25.654C88.053 25.2988 88.6045 25.3233 88.8987 25.7521C89.0702 25.9971 89.0702 25.9971 89.4624 25.7153C89.9894 25.3233 90.7492 25.3233 91.0678 25.7153C91.2639 25.9603 91.3007 26.2053 91.3007 27.5162V29.0353H90.8104H90.3202V27.6265V26.2175H89.9403C89.156 26.2175 89.0947 26.3401 89.0947 27.7489V29.0353H88.6045H88.1143V27.6265V26.2175H87.7344C86.9501 26.2175 86.8888 26.3401 86.8888 27.7489V29.0353H86.3986H85.9084V27.2589Z" fill="#163546"/>
<path d="M0 13.2917V3.79726H2.13239H4.26479L4.35057 4.38529C4.39959 4.70381 4.46087 4.99784 4.48538 5.04685C4.52215 5.09585 4.86529 4.93658 5.25745 4.70381C5.63736 4.47105 6.45845 4.10352 7.05895 3.89525C8.10065 3.51548 8.23545 3.50323 9.98794 3.49098C11.6546 3.49098 11.8875 3.51548 12.4389 3.77274C13.7502 4.37304 14.5223 5.59814 14.6939 7.33775C14.7552 7.8768 14.7552 9.84919 14.7061 11.7236C14.6081 15.7174 14.5346 15.9869 13.4071 17.0159C12.3286 17.996 12.108 18.0451 8.14967 18.1062L4.70597 18.1553L4.75499 20.4707L4.80401 22.7861H2.402H0V13.2917ZM9.62028 14.284C10.0247 14.0145 10.0737 13.4877 10.0247 10.425C9.97568 7.2275 10.0492 7.35001 8.27222 7.35001C7.15699 7.35001 5.67413 7.57052 5.0001 7.8278L4.65695 7.96255V11.1968V14.4433L5.91923 14.4923C7.94133 14.5658 9.30165 14.4923 9.62028 14.284Z" fill="#163546"/>
<path d="M65.1358 19.6136C63.5304 19.2217 62.7705 18.6091 62.2191 17.237C61.9617 16.6367 61.9494 16.355 61.9127 12.1038L61.8759 7.59555H60.9568H60.0499V5.57416V3.55275H60.9445H61.8391L62.0597 2.18066C62.17 1.4211 62.3048 0.612543 62.3416 0.404277L62.4029 0H64.7191H67.0353V1.77638V3.55275H68.9349H70.8344V5.57416V7.59555H68.9349H67.0353V11.0013C67.0353 12.9614 67.0843 14.5908 67.1579 14.8481C67.3785 15.6321 67.55 15.6811 69.9398 15.6811H72.0722L72.0354 17.6167L71.9986 19.5402L71.2021 19.6259C70.7609 19.6627 69.4128 19.7239 68.1996 19.7607C66.3981 19.8097 65.8343 19.7729 65.1358 19.6136Z" fill="#163546"/>
<path d="M77.1217 19.6129C75.7368 19.1351 74.9402 18.3143 74.5113 16.93C74.2785 16.1949 74.2662 15.7907 74.2662 9.91021V3.67451H76.9133H79.5483L79.5359 9.22416C79.5237 12.2624 79.5237 14.8596 79.5237 14.9698C79.5359 15.0923 79.7076 15.2761 79.9282 15.3864C80.2591 15.5578 80.5776 15.5824 81.9258 15.5211C82.8449 15.4844 83.8866 15.3619 84.3768 15.227L85.2346 15.0066L85.2224 9.34668V3.67451H87.8327H90.4431V11.6376V19.6006H88.1881C85.6881 19.6006 85.8719 19.6619 85.7248 18.6941C85.6758 18.3879 85.6023 18.1305 85.5655 18.1305C85.5165 18.1305 85.0508 18.3511 84.4993 18.6084C82.6611 19.5149 81.2027 19.8457 79.0457 19.8457C78.1388 19.8335 77.5751 19.7722 77.1217 19.6129Z" fill="#163546"/>
<path d="M93.6291 11.5775V3.67572H95.884C98.3963 3.67572 98.2248 3.6022 98.3596 4.64353C98.4821 5.58685 98.5434 5.61135 99.2174 5.04781C100.48 4.00649 102.318 3.35719 104.193 3.28368L105.21 3.24693L105.247 5.5256L105.271 7.80426L103.408 7.87776C101.619 7.95127 100.051 8.20854 99.2419 8.57606C98.9601 8.71083 98.9233 8.80883 98.8498 9.6419C98.813 10.1564 98.7763 12.5821 98.7763 15.0323V19.4794H96.2027H93.6291V11.5775Z" fill="#163546"/>
<path d="M17.1572 10.9031V3.67513H19.2283C21.5813 3.67513 21.373 3.56487 21.52 4.81446C21.5568 5.19424 21.6303 5.51275 21.6549 5.51275C21.6916 5.51275 21.9367 5.31674 22.1941 5.08398C23.199 4.17742 24.8289 3.56487 26.4956 3.46686L27.6844 3.39336L27.7211 5.50051L27.7579 7.59541H26.1525C24.498 7.59541 23.15 7.82818 22.3166 8.2692L21.9367 8.46523V13.2921V18.1311H19.547H17.1572V10.9031Z" fill="#163546"/>
<path d="M107.404 4.11549C107.195 4.01748 106.864 3.73571 106.668 3.49069C106.386 3.12317 106.325 2.90264 106.325 2.40037C106.325 1.59181 106.693 1.04052 107.453 0.709739C109.156 -0.0498162 110.749 2.00833 109.622 3.50295C109.083 4.21349 108.188 4.45851 107.404 4.11549ZM108.96 3.85821C109.45 3.60095 109.806 2.9884 109.806 2.38811C109.806 0.734242 107.6 0.0971944 106.742 1.50605C105.86 2.95165 107.453 4.63002 108.96 3.85821Z" fill="#163546"/>
<path d="M107.355 2.38892V1.3476L107.759 1.33534C108.764 1.2986 109.071 1.43336 109.071 1.89889C109.071 2.25417 108.593 2.57269 108.029 2.57269C107.625 2.57269 107.6 2.59719 107.6 3.00147C107.6 3.23424 107.551 3.43025 107.478 3.43025C107.404 3.43025 107.355 3.00147 107.355 2.38892ZM108.789 2.13166C108.924 1.78863 108.654 1.53137 108.103 1.49461C107.6 1.45786 107.6 1.45786 107.6 1.88663C107.6 2.32767 107.6 2.32767 108.152 2.32767C108.556 2.32767 108.728 2.26641 108.789 2.13166Z" fill="#163546"/>
<path d="M108.715 3.05112C108.556 2.58558 108.556 2.57333 108.678 2.57333C108.788 2.57333 109.07 3.11237 109.07 3.30839C109.07 3.57791 108.837 3.4064 108.715 3.05112Z" fill="#163546"/>
<path d="M50.0009 19.4056C48.5916 19.1729 48.1136 19.0381 47.3415 18.6828C46.1773 18.1438 45.4297 17.617 44.5964 16.7594L43.9101 16.0489L43.0032 16.931C41.3365 18.5603 39.7801 19.2342 37.5374 19.3321C34.9149 19.4424 33.0398 18.7195 31.2383 16.9187C30.6623 16.343 30.0251 15.5588 29.8045 15.1914C29.2898 14.2725 28.8241 12.8392 28.726 11.8468L28.6402 11.026H30.2947H31.9491L32.0226 11.7365C32.1942 13.7458 33.9712 15.6078 36.1281 16.0612C38.6649 16.588 41.2507 15.0321 42.0351 12.5084C42.7949 10.0827 41.6797 7.48552 39.4002 6.35844C36.5203 4.94959 33.1133 6.40744 32.1575 9.47017L31.9369 10.1685H30.3069H28.677L28.7505 9.77643C29.302 6.60346 31.4957 4.00627 34.4982 2.98944C35.7605 2.56066 37.5129 2.46265 38.8365 2.74443C40.5032 3.0997 42.3782 4.19003 43.3954 5.39061L43.9224 6.01542L44.4616 5.39061C45.1234 4.63107 46.2876 3.78576 47.3293 3.30797C50.7485 1.76436 54.9642 2.80569 57.2927 5.77039C57.8932 6.52995 58.6653 7.98781 58.7755 8.5636L58.8613 8.94338H57.1579H55.4544L55.2828 8.5636C54.9765 7.8653 53.8245 6.76272 52.9544 6.33394C52.1823 5.96642 52.1007 5.83767 50.7649 5.83767C49.4046 5.83767 49.2901 5.95416 48.4935 6.34618C47.4396 6.87297 46.5817 7.73054 46.0547 8.78411C45.6626 9.58042 45.5568 9.62876 45.5568 10.9886C45.5568 12.3239 45.6748 12.4716 46.0425 13.2434C46.545 14.2603 47.5131 15.1914 48.6161 15.7181C49.3881 16.0856 49.5639 16.1967 50.7649 16.1967C52.0026 16.1967 52.072 16.0979 52.9544 15.6569C53.5549 15.3628 54.0818 14.983 54.4618 14.5788L55.0377 13.9663H56.8025C57.7829 13.9663 58.5795 14.003 58.5795 14.0397C58.5795 14.0765 58.3711 14.5053 58.126 14.9953C57.4397 16.3062 55.8833 17.813 54.5353 18.4745C53.9593 18.7563 53.1872 19.0626 52.8073 19.1606C52.0598 19.3444 50.4788 19.4914 50.0009 19.4056Z" fill="#0675B5"/>
</svg>
