<svg width="275" height="300" viewBox="0 0 275 300" fill="none" xmlns="http://www.w3.org/2000/svg">
<rect width="275" height="300" rx="4" fill="#1DA1F2"/>
<path d="M34.9318 105.369L32.1193 105.676C32.0398 105.392 31.9006 105.125 31.7017 104.875C31.5085 104.625 31.2472 104.423 30.9176 104.27C30.5881 104.116 30.1847 104.04 29.7074 104.04C29.0653 104.04 28.5256 104.179 28.0881 104.457C27.6562 104.736 27.4432 105.097 27.4489 105.54C27.4432 105.92 27.5824 106.23 27.8665 106.469C28.1563 106.707 28.6335 106.903 29.2983 107.057L31.5312 107.534C32.7699 107.801 33.6903 108.224 34.2926 108.804C34.9006 109.384 35.2074 110.142 35.2131 111.08C35.2074 111.903 34.9659 112.631 34.4886 113.261C34.017 113.886 33.3608 114.375 32.5199 114.727C31.679 115.08 30.7131 115.256 29.6222 115.256C28.0199 115.256 26.7301 114.92 25.7528 114.25C24.7756 113.574 24.1932 112.634 24.0057 111.429L27.0142 111.139C27.1506 111.73 27.4403 112.176 27.8835 112.477C28.3267 112.778 28.9034 112.929 29.6136 112.929C30.3466 112.929 30.9347 112.778 31.3778 112.477C31.8267 112.176 32.0511 111.804 32.0511 111.361C32.0511 110.986 31.9063 110.676 31.6165 110.432C31.3324 110.187 30.8892 110 30.2869 109.869L28.054 109.401C26.7983 109.139 25.8693 108.699 25.267 108.08C24.6648 107.455 24.3665 106.665 24.3722 105.71C24.3665 104.903 24.5852 104.205 25.0284 103.614C25.4773 103.017 26.0994 102.557 26.8949 102.233C27.696 101.903 28.6193 101.739 29.6648 101.739C31.1989 101.739 32.4063 102.065 33.2869 102.719C34.1733 103.372 34.7216 104.256 34.9318 105.369ZM42.7473 115.256C41.4689 115.256 40.361 114.974 39.4235 114.412C38.486 113.849 37.7587 113.062 37.2416 112.051C36.7303 111.04 36.4746 109.858 36.4746 108.506C36.4746 107.153 36.7303 105.969 37.2416 104.952C37.7587 103.935 38.486 103.145 39.4235 102.582C40.361 102.02 41.4689 101.739 42.7473 101.739C44.0257 101.739 45.1337 102.02 46.0712 102.582C47.0087 103.145 47.7331 103.935 48.2445 104.952C48.7615 105.969 49.0201 107.153 49.0201 108.506C49.0201 109.858 48.7615 111.04 48.2445 112.051C47.7331 113.062 47.0087 113.849 46.0712 114.412C45.1337 114.974 44.0257 115.256 42.7473 115.256ZM42.7644 112.784C43.4576 112.784 44.0371 112.594 44.503 112.213C44.9689 111.827 45.3155 111.31 45.5428 110.662C45.7757 110.014 45.8922 109.293 45.8922 108.497C45.8922 107.696 45.7757 106.972 45.5428 106.324C45.3155 105.67 44.9689 105.151 44.503 104.764C44.0371 104.378 43.4576 104.185 42.7644 104.185C42.0541 104.185 41.4632 104.378 40.9916 104.764C40.5257 105.151 40.1763 105.67 39.9434 106.324C39.7161 106.972 39.6024 107.696 39.6024 108.497C39.6024 109.293 39.7161 110.014 39.9434 110.662C40.1763 111.31 40.5257 111.827 40.9916 112.213C41.4632 112.594 42.0541 112.784 42.7644 112.784ZM50.9187 115V101.909H53.8675V104.134H54.0209C54.2937 103.384 54.7454 102.798 55.3761 102.378C56.0067 101.952 56.7596 101.739 57.6346 101.739C58.5209 101.739 59.2681 101.955 59.8761 102.386C60.4897 102.812 60.9215 103.395 61.1715 104.134H61.3079C61.5976 103.406 62.0863 102.827 62.7738 102.395C63.467 101.957 64.288 101.739 65.2368 101.739C66.4414 101.739 67.4243 102.119 68.1857 102.881C68.9471 103.642 69.3278 104.753 69.3278 106.213V115H66.234V106.69C66.234 105.878 66.0181 105.284 65.5863 104.909C65.1545 104.528 64.6261 104.338 64.0011 104.338C63.2567 104.338 62.6743 104.571 62.2539 105.037C61.8391 105.497 61.6317 106.097 61.6317 106.835V115H58.6062V106.562C58.6062 105.886 58.4016 105.347 57.9925 104.943C57.5891 104.54 57.0607 104.338 56.4073 104.338C55.9641 104.338 55.5607 104.452 55.1971 104.679C54.8334 104.901 54.5437 105.216 54.3278 105.625C54.1118 106.028 54.0039 106.5 54.0039 107.04V115H50.9187ZM77.5332 115.256C76.2207 115.256 75.0872 114.983 74.1326 114.438C73.1838 113.886 72.4536 113.108 71.9423 112.102C71.4309 111.091 71.1752 109.901 71.1752 108.531C71.1752 107.185 71.4309 106.003 71.9423 104.986C72.4593 103.963 73.1809 103.168 74.107 102.599C75.0332 102.026 76.1213 101.739 77.3713 101.739C78.1781 101.739 78.9394 101.869 79.6553 102.131C80.3769 102.386 81.0133 102.784 81.5644 103.324C82.1213 103.864 82.5588 104.551 82.8769 105.386C83.1951 106.216 83.3542 107.205 83.3542 108.352V109.298H72.6241V107.219H80.3968C80.3911 106.628 80.2633 106.102 80.0133 105.642C79.7633 105.176 79.4139 104.81 78.965 104.543C78.5218 104.276 78.0048 104.142 77.4139 104.142C76.7832 104.142 76.2292 104.295 75.7519 104.602C75.2747 104.903 74.9025 105.301 74.6355 105.795C74.3741 106.284 74.2406 106.821 74.2349 107.406V109.222C74.2349 109.983 74.3741 110.636 74.6525 111.182C74.9309 111.722 75.3201 112.136 75.8201 112.426C76.3201 112.71 76.9053 112.852 77.5758 112.852C78.0247 112.852 78.4309 112.79 78.7945 112.665C79.1582 112.534 79.4735 112.344 79.7406 112.094C80.0076 111.844 80.2093 111.534 80.3457 111.165L83.2264 111.489C83.0445 112.25 82.698 112.915 82.1866 113.483C81.6809 114.045 81.0332 114.483 80.2434 114.795C79.4536 115.102 78.5502 115.256 77.5332 115.256ZM97.0143 101.909V104.295H89.4888V101.909H97.0143ZM91.3467 98.7727H94.432V111.062C94.432 111.477 94.4945 111.795 94.6195 112.017C94.7501 112.233 94.9206 112.381 95.1308 112.46C95.3411 112.54 95.574 112.58 95.8297 112.58C96.0229 112.58 96.199 112.565 96.3581 112.537C96.5229 112.509 96.6479 112.483 96.7331 112.46L97.253 114.872C97.0882 114.929 96.8524 114.991 96.5456 115.06C96.2445 115.128 95.8751 115.168 95.4376 115.179C94.6649 115.202 93.9689 115.085 93.3496 114.83C92.7303 114.568 92.2388 114.165 91.8751 113.619C91.5172 113.074 91.3411 112.392 91.3467 111.574V98.7727ZM101.576 115L97.8774 101.909H101.022L103.323 111.114H103.443L105.795 101.909H108.906L111.258 111.062H111.386L113.653 101.909H116.806L113.099 115H109.886L107.431 106.153H107.252L104.798 115H101.576ZM123.661 115.256C122.348 115.256 121.215 114.983 120.26 114.438C119.312 113.886 118.581 113.108 118.07 112.102C117.559 111.091 117.303 109.901 117.303 108.531C117.303 107.185 117.559 106.003 118.07 104.986C118.587 103.963 119.309 103.168 120.235 102.599C121.161 102.026 122.249 101.739 123.499 101.739C124.306 101.739 125.067 101.869 125.783 102.131C126.505 102.386 127.141 102.784 127.692 103.324C128.249 103.864 128.687 104.551 129.005 105.386C129.323 106.216 129.482 107.205 129.482 108.352V109.298H118.752V107.219H126.525C126.519 106.628 126.391 106.102 126.141 105.642C125.891 105.176 125.542 104.81 125.093 104.543C124.65 104.276 124.133 104.142 123.542 104.142C122.911 104.142 122.357 104.295 121.88 104.602C121.402 104.903 121.03 105.301 120.763 105.795C120.502 106.284 120.368 106.821 120.363 107.406V109.222C120.363 109.983 120.502 110.636 120.78 111.182C121.059 111.722 121.448 112.136 121.948 112.426C122.448 112.71 123.033 112.852 123.704 112.852C124.152 112.852 124.559 112.79 124.922 112.665C125.286 112.534 125.601 112.344 125.868 112.094C126.135 111.844 126.337 111.534 126.473 111.165L129.354 111.489C129.172 112.25 128.826 112.915 128.314 113.483C127.809 114.045 127.161 114.483 126.371 114.795C125.581 115.102 124.678 115.256 123.661 115.256ZM137.168 115.256C135.855 115.256 134.722 114.983 133.767 114.438C132.818 113.886 132.088 113.108 131.577 112.102C131.065 111.091 130.81 109.901 130.81 108.531C130.81 107.185 131.065 106.003 131.577 104.986C132.094 103.963 132.815 103.168 133.741 102.599C134.668 102.026 135.756 101.739 137.006 101.739C137.812 101.739 138.574 101.869 139.29 102.131C140.011 102.386 140.648 102.784 141.199 103.324C141.756 103.864 142.193 104.551 142.511 105.386C142.829 106.216 142.989 107.205 142.989 108.352V109.298H132.258V107.219H140.031C140.026 106.628 139.898 106.102 139.648 105.642C139.398 105.176 139.048 104.81 138.599 104.543C138.156 104.276 137.639 104.142 137.048 104.142C136.418 104.142 135.864 104.295 135.386 104.602C134.909 104.903 134.537 105.301 134.27 105.795C134.008 106.284 133.875 106.821 133.869 107.406V109.222C133.869 109.983 134.008 110.636 134.287 111.182C134.565 111.722 134.954 112.136 135.454 112.426C135.954 112.71 136.54 112.852 137.21 112.852C137.659 112.852 138.065 112.79 138.429 112.665C138.793 112.534 139.108 112.344 139.375 112.094C139.642 111.844 139.844 111.534 139.98 111.165L142.861 111.489C142.679 112.25 142.332 112.915 141.821 113.483C141.315 114.045 140.668 114.483 139.878 114.795C139.088 115.102 138.185 115.256 137.168 115.256ZM151.416 101.909V104.295H143.89V101.909H151.416ZM145.748 98.7727H148.833V111.062C148.833 111.477 148.896 111.795 149.021 112.017C149.151 112.233 149.322 112.381 149.532 112.46C149.742 112.54 149.975 112.58 150.231 112.58C150.424 112.58 150.6 112.565 150.759 112.537C150.924 112.509 151.049 112.483 151.134 112.46L151.654 114.872C151.489 114.929 151.254 114.991 150.947 115.06C150.646 115.128 150.276 115.168 149.839 115.179C149.066 115.202 148.37 115.085 147.751 114.83C147.132 114.568 146.64 114.165 146.276 113.619C145.918 113.074 145.742 112.392 145.748 111.574V98.7727ZM163.435 105.369L160.622 105.676C160.543 105.392 160.404 105.125 160.205 104.875C160.012 104.625 159.75 104.423 159.421 104.27C159.091 104.116 158.688 104.04 158.211 104.04C157.568 104.04 157.029 104.179 156.591 104.457C156.159 104.736 155.946 105.097 155.952 105.54C155.946 105.92 156.086 106.23 156.37 106.469C156.659 106.707 157.137 106.903 157.801 107.057L160.034 107.534C161.273 107.801 162.193 108.224 162.796 108.804C163.404 109.384 163.711 110.142 163.716 111.08C163.711 111.903 163.469 112.631 162.992 113.261C162.52 113.886 161.864 114.375 161.023 114.727C160.182 115.08 159.216 115.256 158.125 115.256C156.523 115.256 155.233 114.92 154.256 114.25C153.279 113.574 152.696 112.634 152.509 111.429L155.517 111.139C155.654 111.73 155.943 112.176 156.387 112.477C156.83 112.778 157.407 112.929 158.117 112.929C158.85 112.929 159.438 112.778 159.881 112.477C160.33 112.176 160.554 111.804 160.554 111.361C160.554 110.986 160.409 110.676 160.12 110.432C159.836 110.187 159.392 110 158.79 109.869L156.557 109.401C155.301 109.139 154.372 108.699 153.77 108.08C153.168 107.455 152.87 106.665 152.875 105.71C152.87 104.903 153.088 104.205 153.532 103.614C153.98 103.017 154.603 102.557 155.398 102.233C156.199 101.903 157.122 101.739 158.168 101.739C159.702 101.739 160.909 102.065 161.79 102.719C162.676 103.372 163.225 104.256 163.435 105.369ZM170.773 115V101.909H173.859V115H170.773ZM172.324 100.051C171.836 100.051 171.415 99.8892 171.063 99.5653C170.711 99.2358 170.535 98.8409 170.535 98.3807C170.535 97.9148 170.711 97.5199 171.063 97.196C171.415 96.8665 171.836 96.7017 172.324 96.7017C172.819 96.7017 173.239 96.8665 173.586 97.196C173.938 97.5199 174.114 97.9148 174.114 98.3807C174.114 98.8409 173.938 99.2358 173.586 99.5653C173.239 99.8892 172.819 100.051 172.324 100.051ZM184.63 97.5455V115H181.544V97.5455H184.63ZM187.082 115V101.909H190.167V115H187.082ZM188.633 100.051C188.145 100.051 187.724 99.8892 187.372 99.5653C187.02 99.2358 186.843 98.8409 186.843 98.3807C186.843 97.9148 187.02 97.5199 187.372 97.196C187.724 96.8665 188.145 96.7017 188.633 96.7017C189.128 96.7017 189.548 96.8665 189.895 97.196C190.247 97.5199 190.423 97.9148 190.423 98.3807C190.423 98.8409 190.247 99.2358 189.895 99.5653C189.548 99.8892 189.128 100.051 188.633 100.051ZM195.432 110.892L195.424 107.168H195.918L200.623 101.909H204.228L198.441 108.352H197.802L195.432 110.892ZM192.62 115V97.5455H195.705V115H192.62ZM200.836 115L196.574 109.043L198.654 106.869L204.526 115H200.836ZM210.82 115.256C209.508 115.256 208.374 114.983 207.42 114.438C206.471 113.886 205.741 113.108 205.229 112.102C204.718 111.091 204.462 109.901 204.462 108.531C204.462 107.185 204.718 106.003 205.229 104.986C205.747 103.963 206.468 103.168 207.394 102.599C208.32 102.026 209.408 101.739 210.658 101.739C211.465 101.739 212.227 101.869 212.943 102.131C213.664 102.386 214.3 102.784 214.852 103.324C215.408 103.864 215.846 104.551 216.164 105.386C216.482 106.216 216.641 107.205 216.641 108.352V109.298H205.911V107.219H213.684C213.678 106.628 213.55 106.102 213.3 105.642C213.05 105.176 212.701 104.81 212.252 104.543C211.809 104.276 211.292 104.142 210.701 104.142C210.07 104.142 209.516 104.295 209.039 104.602C208.562 104.903 208.19 105.301 207.923 105.795C207.661 106.284 207.528 106.821 207.522 107.406V109.222C207.522 109.983 207.661 110.636 207.94 111.182C208.218 111.722 208.607 112.136 209.107 112.426C209.607 112.71 210.193 112.852 210.863 112.852C211.312 112.852 211.718 112.79 212.082 112.665C212.445 112.534 212.761 112.344 213.028 112.094C213.295 111.844 213.497 111.534 213.633 111.165L216.514 111.489C216.332 112.25 215.985 112.915 215.474 113.483C214.968 114.045 214.32 114.483 213.531 114.795C212.741 115.102 211.837 115.256 210.82 115.256ZM223.389 115.23C222.361 115.23 221.441 114.966 220.628 114.438C219.816 113.909 219.174 113.142 218.702 112.136C218.23 111.131 217.995 109.909 217.995 108.472C217.995 107.017 218.233 105.79 218.71 104.79C219.193 103.784 219.844 103.026 220.662 102.514C221.48 101.997 222.392 101.739 223.398 101.739C224.165 101.739 224.796 101.869 225.29 102.131C225.784 102.386 226.176 102.696 226.466 103.06C226.756 103.418 226.98 103.756 227.139 104.074H227.267V97.5455H230.361V115H227.327V112.938H227.139C226.98 113.256 226.75 113.594 226.449 113.952C226.148 114.304 225.75 114.605 225.256 114.855C224.762 115.105 224.139 115.23 223.389 115.23ZM224.25 112.699C224.904 112.699 225.46 112.523 225.921 112.17C226.381 111.812 226.73 111.315 226.969 110.679C227.208 110.043 227.327 109.301 227.327 108.455C227.327 107.608 227.208 106.872 226.969 106.247C226.736 105.622 226.389 105.136 225.929 104.79C225.475 104.443 224.915 104.27 224.25 104.27C223.563 104.27 222.989 104.449 222.529 104.807C222.068 105.165 221.722 105.659 221.489 106.29C221.256 106.92 221.139 107.642 221.139 108.455C221.139 109.273 221.256 110.003 221.489 110.645C221.727 111.281 222.077 111.784 222.537 112.153C223.003 112.517 223.574 112.699 224.25 112.699ZM234.829 115.188C234.312 115.188 233.869 115.006 233.5 114.642C233.13 114.278 232.949 113.835 232.954 113.312C232.949 112.801 233.13 112.364 233.5 112C233.869 111.636 234.312 111.455 234.829 111.455C235.329 111.455 235.764 111.636 236.133 112C236.508 112.364 236.699 112.801 236.704 113.312C236.699 113.659 236.608 113.974 236.431 114.259C236.261 114.543 236.034 114.77 235.75 114.94C235.471 115.105 235.164 115.188 234.829 115.188Z" fill="white"/>
<path d="M32.929 138.494V130.909H36.0142V144H33.0227V141.673H32.8864C32.5909 142.406 32.1051 143.006 31.429 143.472C30.7585 143.937 29.9318 144.17 28.9489 144.17C28.0909 144.17 27.3324 143.98 26.6733 143.599C26.0199 143.213 25.5085 142.653 25.1392 141.92C24.7699 141.182 24.5852 140.29 24.5852 139.244V130.909H27.6705V138.767C27.6705 139.597 27.8977 140.256 28.3523 140.744C28.8068 141.233 29.4034 141.477 30.142 141.477C30.5966 141.477 31.0369 141.366 31.4631 141.145C31.8892 140.923 32.2386 140.594 32.5114 140.156C32.7898 139.713 32.929 139.159 32.929 138.494ZM38.4668 148.909V130.909H41.5009V133.074H41.6799C41.8389 132.756 42.0634 132.418 42.3532 132.06C42.6429 131.696 43.035 131.386 43.5293 131.131C44.0236 130.869 44.6543 130.739 45.4213 130.739C46.4327 130.739 47.3446 130.997 48.1571 131.514C48.9753 132.026 49.623 132.784 50.1003 133.79C50.5833 134.79 50.8247 136.017 50.8247 137.472C50.8247 138.909 50.5889 140.131 50.1174 141.136C49.6458 142.142 49.0037 142.909 48.1912 143.438C47.3787 143.966 46.4583 144.23 45.4299 144.23C44.6799 144.23 44.0577 144.105 43.5634 143.855C43.0691 143.605 42.6713 143.304 42.3702 142.952C42.0747 142.594 41.8446 142.256 41.6799 141.938H41.552V148.909H38.4668ZM41.4924 137.455C41.4924 138.301 41.6117 139.043 41.8503 139.679C42.0946 140.315 42.4441 140.812 42.8986 141.17C43.3588 141.523 43.9157 141.699 44.5691 141.699C45.2509 141.699 45.8219 141.517 46.2821 141.153C46.7424 140.784 47.0889 140.281 47.3219 139.645C47.5605 139.003 47.6799 138.273 47.6799 137.455C47.6799 136.642 47.5634 135.92 47.3304 135.29C47.0975 134.659 46.7509 134.165 46.2907 133.807C45.8304 133.449 45.2566 133.27 44.5691 133.27C43.91 133.27 43.3503 133.443 42.8901 133.79C42.4299 134.136 42.0804 134.622 41.8418 135.247C41.6088 135.872 41.4924 136.608 41.4924 137.455ZM57.6047 144.23C56.5763 144.23 55.6559 143.966 54.8434 143.438C54.0309 142.909 53.3888 142.142 52.9172 141.136C52.4457 140.131 52.2099 138.909 52.2099 137.472C52.2099 136.017 52.4485 134.79 52.9258 133.79C53.4087 132.784 54.0593 132.026 54.8775 131.514C55.6957 130.997 56.6076 130.739 57.6133 130.739C58.3803 130.739 59.011 130.869 59.5053 131.131C59.9996 131.386 60.3917 131.696 60.6814 132.06C60.9712 132.418 61.1957 132.756 61.3547 133.074H61.4826V126.545H64.5763V144H61.5422V141.938H61.3547C61.1957 142.256 60.9655 142.594 60.6644 142.952C60.3633 143.304 59.9655 143.605 59.4712 143.855C58.9769 144.105 58.3547 144.23 57.6047 144.23ZM58.4655 141.699C59.1189 141.699 59.6758 141.523 60.136 141.17C60.5962 140.812 60.9457 140.315 61.1843 139.679C61.4229 139.043 61.5422 138.301 61.5422 137.455C61.5422 136.608 61.4229 135.872 61.1843 135.247C60.9513 134.622 60.6047 134.136 60.1445 133.79C59.69 133.443 59.1303 133.27 58.4655 133.27C57.778 133.27 57.2042 133.449 56.7439 133.807C56.2837 134.165 55.9371 134.659 55.7042 135.29C55.4712 135.92 55.3547 136.642 55.3547 137.455C55.3547 138.273 55.4712 139.003 55.7042 139.645C55.9428 140.281 56.2922 140.784 56.7525 141.153C57.2184 141.517 57.7894 141.699 58.4655 141.699ZM70.911 144.264C70.0815 144.264 69.3343 144.116 68.6695 143.821C68.0105 143.52 67.4877 143.077 67.1014 142.491C66.7207 141.906 66.5303 141.185 66.5303 140.327C66.5303 139.588 66.6667 138.977 66.9394 138.494C67.2122 138.011 67.5843 137.625 68.0559 137.335C68.5275 137.045 69.0588 136.827 69.6497 136.679C70.2463 136.526 70.8627 136.415 71.4991 136.347C72.2661 136.267 72.8883 136.196 73.3656 136.134C73.8428 136.065 74.1894 135.963 74.4053 135.827C74.6269 135.685 74.7377 135.466 74.7377 135.17V135.119C74.7377 134.477 74.5474 133.98 74.1667 133.628C73.786 133.276 73.2377 133.099 72.5218 133.099C71.7661 133.099 71.1667 133.264 70.7235 133.594C70.286 133.923 69.9906 134.312 69.8372 134.761L66.9565 134.352C67.1838 133.557 67.5588 132.892 68.0815 132.358C68.6042 131.818 69.2434 131.415 69.9991 131.148C70.7548 130.875 71.59 130.739 72.5048 130.739C73.1355 130.739 73.7633 130.812 74.3883 130.96C75.0133 131.108 75.5843 131.352 76.1014 131.693C76.6184 132.028 77.0332 132.486 77.3457 133.065C77.6639 133.645 77.823 134.369 77.823 135.239V144H74.857V142.202H74.7548C74.5673 142.565 74.3031 142.906 73.9622 143.224C73.6269 143.537 73.2036 143.79 72.6923 143.983C72.1866 144.17 71.5928 144.264 70.911 144.264ZM71.7122 141.997C72.3315 141.997 72.8684 141.875 73.323 141.631C73.7775 141.381 74.1269 141.051 74.3713 140.642C74.6213 140.233 74.7463 139.787 74.7463 139.304V137.761C74.6497 137.841 74.4849 137.915 74.2519 137.983C74.0247 138.051 73.769 138.111 73.4849 138.162C73.2008 138.213 72.9195 138.259 72.6411 138.298C72.3627 138.338 72.1213 138.372 71.9167 138.401C71.4565 138.463 71.0445 138.565 70.6809 138.707C70.3173 138.849 70.0303 139.048 69.8201 139.304C69.6099 139.554 69.5048 139.878 69.5048 140.276C69.5048 140.844 69.7122 141.273 70.1269 141.562C70.5417 141.852 71.0701 141.997 71.7122 141.997ZM86.7422 130.909V133.295H79.2166V130.909H86.7422ZM81.0745 127.773H84.1598V140.062C84.1598 140.477 84.2223 140.795 84.3473 141.017C84.478 141.233 84.6484 141.381 84.8586 141.46C85.0689 141.54 85.3018 141.58 85.5575 141.58C85.7507 141.58 85.9268 141.565 86.0859 141.537C86.2507 141.509 86.3757 141.483 86.4609 141.46L86.9808 143.872C86.816 143.929 86.5802 143.991 86.2734 144.06C85.9723 144.128 85.603 144.168 85.1655 144.179C84.3927 144.202 83.6967 144.085 83.0774 143.83C82.4581 143.568 81.9666 143.165 81.603 142.619C81.245 142.074 81.0689 141.392 81.0745 140.574V127.773ZM94.2572 144.256C92.9447 144.256 91.8112 143.983 90.8567 143.438C89.9078 142.886 89.1777 142.108 88.6663 141.102C88.155 140.091 87.8993 138.901 87.8993 137.531C87.8993 136.185 88.155 135.003 88.6663 133.986C89.1834 132.963 89.905 132.168 90.8311 131.599C91.7572 131.026 92.8453 130.739 94.0953 130.739C94.9021 130.739 95.6635 130.869 96.3794 131.131C97.101 131.386 97.7374 131.784 98.2885 132.324C98.8453 132.864 99.2828 133.551 99.601 134.386C99.9192 135.216 100.078 136.205 100.078 137.352V138.298H89.3482V136.219H97.1209C97.1152 135.628 96.9874 135.102 96.7374 134.642C96.4874 134.176 96.1379 133.81 95.6891 133.543C95.2459 133.276 94.7288 133.142 94.1379 133.142C93.5072 133.142 92.9533 133.295 92.476 133.602C91.9987 133.903 91.6266 134.301 91.3595 134.795C91.0982 135.284 90.9646 135.821 90.959 136.406V138.222C90.959 138.983 91.0982 139.636 91.3766 140.182C91.655 140.722 92.0442 141.136 92.5442 141.426C93.0442 141.71 93.6294 141.852 94.2999 141.852C94.7487 141.852 95.155 141.79 95.5186 141.665C95.8822 141.534 96.1976 141.344 96.4646 141.094C96.7317 140.844 96.9334 140.534 97.0697 140.165L99.9504 140.489C99.7686 141.25 99.422 141.915 98.9107 142.483C98.405 143.045 97.7572 143.483 96.9675 143.795C96.1777 144.102 95.2743 144.256 94.2572 144.256ZM106.826 144.23C105.798 144.23 104.877 143.966 104.065 143.438C103.252 142.909 102.61 142.142 102.139 141.136C101.667 140.131 101.431 138.909 101.431 137.472C101.431 136.017 101.67 134.79 102.147 133.79C102.63 132.784 103.281 132.026 104.099 131.514C104.917 130.997 105.829 130.739 106.835 130.739C107.602 130.739 108.233 130.869 108.727 131.131C109.221 131.386 109.613 131.696 109.903 132.06C110.193 132.418 110.417 132.756 110.576 133.074H110.704V126.545H113.798V144H110.764V141.938H110.576C110.417 142.256 110.187 142.594 109.886 142.952C109.585 143.304 109.187 143.605 108.693 143.855C108.198 144.105 107.576 144.23 106.826 144.23ZM107.687 141.699C108.341 141.699 108.897 141.523 109.358 141.17C109.818 140.812 110.167 140.315 110.406 139.679C110.644 139.043 110.764 138.301 110.764 137.455C110.764 136.608 110.644 135.872 110.406 135.247C110.173 134.622 109.826 134.136 109.366 133.79C108.912 133.443 108.352 133.27 107.687 133.27C107 133.27 106.426 133.449 105.966 133.807C105.505 134.165 105.159 134.659 104.926 135.29C104.693 135.92 104.576 136.642 104.576 137.455C104.576 138.273 104.693 139.003 104.926 139.645C105.164 140.281 105.514 140.784 105.974 141.153C106.44 141.517 107.011 141.699 107.687 141.699ZM124.3 144L120.602 130.909H123.746L126.048 140.114H126.167L128.519 130.909H131.63L133.982 140.062H134.11L136.377 130.909H139.53L135.823 144H132.61L130.155 135.153H129.977L127.522 144H124.3ZM146.385 144.256C145.073 144.256 143.939 143.983 142.984 143.438C142.036 142.886 141.306 142.108 140.794 141.102C140.283 140.091 140.027 138.901 140.027 137.531C140.027 136.185 140.283 135.003 140.794 133.986C141.311 132.963 142.033 132.168 142.959 131.599C143.885 131.026 144.973 130.739 146.223 130.739C147.03 130.739 147.791 130.869 148.507 131.131C149.229 131.386 149.865 131.784 150.416 132.324C150.973 132.864 151.411 133.551 151.729 134.386C152.047 135.216 152.206 136.205 152.206 137.352V138.298H141.476V136.219H149.249C149.243 135.628 149.115 135.102 148.865 134.642C148.615 134.176 148.266 133.81 147.817 133.543C147.374 133.276 146.857 133.142 146.266 133.142C145.635 133.142 145.081 133.295 144.604 133.602C144.127 133.903 143.754 134.301 143.487 134.795C143.226 135.284 143.092 135.821 143.087 136.406V138.222C143.087 138.983 143.226 139.636 143.504 140.182C143.783 140.722 144.172 141.136 144.672 141.426C145.172 141.71 145.757 141.852 146.428 141.852C146.877 141.852 147.283 141.79 147.646 141.665C148.01 141.534 148.325 141.344 148.592 141.094C148.859 140.844 149.061 140.534 149.198 140.165L152.078 140.489C151.896 141.25 151.55 141.915 151.038 142.483C150.533 143.045 149.885 143.483 149.095 143.795C148.306 144.102 147.402 144.256 146.385 144.256ZM159.892 144.256C158.579 144.256 157.446 143.983 156.491 143.438C155.542 142.886 154.812 142.108 154.301 141.102C153.789 140.091 153.534 138.901 153.534 137.531C153.534 136.185 153.789 135.003 154.301 133.986C154.818 132.963 155.539 132.168 156.465 131.599C157.392 131.026 158.48 130.739 159.73 130.739C160.537 130.739 161.298 130.869 162.014 131.131C162.735 131.386 163.372 131.784 163.923 132.324C164.48 132.864 164.917 133.551 165.235 134.386C165.554 135.216 165.713 136.205 165.713 137.352V138.298H154.983V136.219H162.755C162.75 135.628 162.622 135.102 162.372 134.642C162.122 134.176 161.772 133.81 161.323 133.543C160.88 133.276 160.363 133.142 159.772 133.142C159.142 133.142 158.588 133.295 158.11 133.602C157.633 133.903 157.261 134.301 156.994 134.795C156.733 135.284 156.599 135.821 156.593 136.406V138.222C156.593 138.983 156.733 139.636 157.011 140.182C157.289 140.722 157.679 141.136 158.179 141.426C158.679 141.71 159.264 141.852 159.934 141.852C160.383 141.852 160.789 141.79 161.153 141.665C161.517 141.534 161.832 141.344 162.099 141.094C162.366 140.844 162.568 140.534 162.704 140.165L165.585 140.489C165.403 141.25 165.056 141.915 164.545 142.483C164.039 143.045 163.392 143.483 162.602 143.795C161.812 144.102 160.909 144.256 159.892 144.256ZM170.415 139.892L170.407 136.168H170.901L175.606 130.909H179.211L173.424 137.352H172.785L170.415 139.892ZM167.603 144V126.545H170.688V144H167.603ZM175.819 144L171.557 138.043L173.637 135.869L179.509 144H175.819ZM183.632 126.545V144H180.547V126.545H183.632ZM188.002 148.909C187.582 148.909 187.193 148.875 186.835 148.807C186.482 148.744 186.201 148.67 185.991 148.585L186.707 146.182C187.156 146.313 187.556 146.375 187.908 146.369C188.261 146.364 188.57 146.253 188.837 146.037C189.11 145.827 189.34 145.474 189.528 144.98L189.792 144.273L185.045 130.909H188.318L191.335 140.795H191.471L194.497 130.909H197.778L192.536 145.585C192.292 146.278 191.968 146.872 191.565 147.366C191.161 147.866 190.667 148.247 190.082 148.509C189.502 148.776 188.809 148.909 188.002 148.909ZM200.273 144.188C199.756 144.188 199.313 144.006 198.943 143.642C198.574 143.278 198.392 142.835 198.398 142.312C198.392 141.801 198.574 141.364 198.943 141C199.313 140.636 199.756 140.455 200.273 140.455C200.773 140.455 201.208 140.636 201.577 141C201.952 141.364 202.142 141.801 202.148 142.312C202.142 142.659 202.051 142.974 201.875 143.259C201.705 143.543 201.478 143.77 201.193 143.94C200.915 144.105 200.608 144.188 200.273 144.188ZM24.5852 173V159.909H27.5341V162.134H27.6875C27.9602 161.384 28.4119 160.798 29.0426 160.378C29.6733 159.952 30.4261 159.739 31.3011 159.739C32.1875 159.739 32.9347 159.955 33.5426 160.386C34.1563 160.812 34.5881 161.395 34.8381 162.134H34.9744C35.2642 161.406 35.7528 160.827 36.4403 160.395C37.1335 159.957 37.9545 159.739 38.9034 159.739C40.108 159.739 41.0909 160.119 41.8523 160.881C42.6136 161.642 42.9943 162.753 42.9943 164.213V173H39.9006V164.69C39.9006 163.878 39.6847 163.284 39.2528 162.909C38.821 162.528 38.2926 162.338 37.6676 162.338C36.9233 162.338 36.3409 162.571 35.9205 163.037C35.5057 163.497 35.2983 164.097 35.2983 164.835V173H32.2727V164.562C32.2727 163.886 32.0682 163.347 31.6591 162.943C31.2557 162.54 30.7273 162.338 30.0739 162.338C29.6307 162.338 29.2273 162.452 28.8636 162.679C28.5 162.901 28.2102 163.216 27.9943 163.625C27.7784 164.028 27.6705 164.5 27.6705 165.04V173H24.5852ZM51.1145 173.256C49.8361 173.256 48.7282 172.974 47.7907 172.412C46.8532 171.849 46.1259 171.062 45.6088 170.051C45.0975 169.04 44.8418 167.858 44.8418 166.506C44.8418 165.153 45.0975 163.969 45.6088 162.952C46.1259 161.935 46.8532 161.145 47.7907 160.582C48.7282 160.02 49.8361 159.739 51.1145 159.739C52.3929 159.739 53.5009 160.02 54.4384 160.582C55.3759 161.145 56.1003 161.935 56.6117 162.952C57.1287 163.969 57.3872 165.153 57.3872 166.506C57.3872 167.858 57.1287 169.04 56.6117 170.051C56.1003 171.062 55.3759 171.849 54.4384 172.412C53.5009 172.974 52.3929 173.256 51.1145 173.256ZM51.1316 170.784C51.8247 170.784 52.4043 170.594 52.8702 170.213C53.3361 169.827 53.6827 169.31 53.91 168.662C54.1429 168.014 54.2594 167.293 54.2594 166.497C54.2594 165.696 54.1429 164.972 53.91 164.324C53.6827 163.67 53.3361 163.151 52.8702 162.764C52.4043 162.378 51.8247 162.185 51.1316 162.185C50.4213 162.185 49.8304 162.378 49.3588 162.764C48.8929 163.151 48.5435 163.67 48.3105 164.324C48.0833 164.972 47.9696 165.696 47.9696 166.497C47.9696 167.293 48.0833 168.014 48.3105 168.662C48.5435 169.31 48.8929 169.827 49.3588 170.213C49.8304 170.594 50.4213 170.784 51.1316 170.784ZM69.6324 163.369L66.8199 163.676C66.7404 163.392 66.6012 163.125 66.4023 162.875C66.2091 162.625 65.9478 162.423 65.6182 162.27C65.2887 162.116 64.8853 162.04 64.408 162.04C63.766 162.04 63.2262 162.179 62.7887 162.457C62.3569 162.736 62.1438 163.097 62.1495 163.54C62.1438 163.92 62.283 164.23 62.5671 164.469C62.8569 164.707 63.3341 164.903 63.9989 165.057L66.2319 165.534C67.4705 165.801 68.391 166.224 68.9932 166.804C69.6012 167.384 69.908 168.142 69.9137 169.08C69.908 169.903 69.6665 170.631 69.1893 171.261C68.7177 171.886 68.0614 172.375 67.2205 172.727C66.3796 173.08 65.4137 173.256 64.3228 173.256C62.7205 173.256 61.4307 172.92 60.4535 172.25C59.4762 171.574 58.8938 170.634 58.7063 169.429L61.7148 169.139C61.8512 169.73 62.141 170.176 62.5841 170.477C63.0273 170.778 63.604 170.929 64.3143 170.929C65.0472 170.929 65.6353 170.778 66.0785 170.477C66.5273 170.176 66.7518 169.804 66.7518 169.361C66.7518 168.986 66.6069 168.676 66.3171 168.432C66.033 168.187 65.5898 168 64.9876 167.869L62.7546 167.401C61.4989 167.139 60.5699 166.699 59.9677 166.08C59.3654 165.455 59.0671 164.665 59.0728 163.71C59.0671 162.903 59.2859 162.205 59.729 161.614C60.1779 161.017 60.8001 160.557 61.5955 160.233C62.3966 159.903 63.3199 159.739 64.3654 159.739C65.8995 159.739 67.1069 160.065 67.9876 160.719C68.8739 161.372 69.4222 162.256 69.6324 163.369ZM78.2747 159.909V162.295H70.7491V159.909H78.2747ZM72.607 156.773H75.6923V169.062C75.6923 169.477 75.7548 169.795 75.8798 170.017C76.0105 170.233 76.1809 170.381 76.3911 170.46C76.6014 170.54 76.8343 170.58 77.09 170.58C77.2832 170.58 77.4593 170.565 77.6184 170.537C77.7832 170.509 77.9082 170.483 77.9934 170.46L78.5133 172.872C78.3485 172.929 78.1127 172.991 77.8059 173.06C77.5048 173.128 77.1355 173.168 76.698 173.179C75.9252 173.202 75.2292 173.085 74.6099 172.83C73.9906 172.568 73.4991 172.165 73.1355 171.619C72.7775 171.074 72.6014 170.392 72.607 169.574V156.773ZM83.5014 155.545V173H80.4162V155.545H83.5014ZM87.8716 177.909C87.4511 177.909 87.0619 177.875 86.704 177.807C86.3517 177.744 86.0705 177.67 85.8602 177.585L86.5761 175.182C87.025 175.313 87.4256 175.375 87.7778 175.369C88.1301 175.364 88.4398 175.253 88.7068 175.037C88.9795 174.827 89.2097 174.474 89.3972 173.98L89.6614 173.273L84.9142 159.909H88.1869L91.204 169.795H91.3403L94.3659 159.909H97.6472L92.4057 174.585C92.1614 175.278 91.8375 175.872 91.4341 176.366C91.0307 176.866 90.5364 177.247 89.9511 177.509C89.3716 177.776 88.6784 177.909 87.8716 177.909ZM100.142 173.188C99.6253 173.188 99.1821 173.006 98.8128 172.642C98.4435 172.278 98.2617 171.835 98.2674 171.312C98.2617 170.801 98.4435 170.364 98.8128 170C99.1821 169.636 99.6253 169.455 100.142 169.455C100.642 169.455 101.077 169.636 101.446 170C101.821 170.364 102.012 170.801 102.017 171.312C102.012 171.659 101.921 171.974 101.745 172.259C101.574 172.543 101.347 172.77 101.063 172.94C100.784 173.105 100.478 173.188 100.142 173.188Z" fill="white" fill-opacity="0.6"/>
<path d="M24.14 275L24.67 273.15H23.47V272.3H24.91L25.51 270.24H24.31V269.39H25.75L26.28 267.55H27.25L26.72 269.39H28.67L29.2 267.55H30.18L29.65 269.39H30.85V270.24H29.4L28.81 272.3H30.01V273.15H28.57L28.04 275H27.06L27.59 273.15H25.64L25.11 275H24.14ZM25.89 272.3H27.84L28.43 270.24H26.48L25.89 272.3ZM34.3653 275.12C33.8586 275.12 33.402 274.997 32.9953 274.75C32.5953 274.503 32.2786 274.167 32.0453 273.74C31.812 273.313 31.6953 272.837 31.6953 272.31C31.6953 271.77 31.812 271.29 32.0453 270.87C32.2786 270.443 32.5953 270.107 32.9953 269.86C33.402 269.613 33.8586 269.49 34.3653 269.49C34.812 269.49 35.2086 269.587 35.5553 269.78C35.902 269.967 36.1753 270.22 36.3753 270.54L36.2253 270.77V267.43H37.1653V275H36.2553V273.85L36.3753 274.01C36.1886 274.363 35.9153 274.637 35.5553 274.83C35.202 275.023 34.8053 275.12 34.3653 275.12ZM34.4453 274.22C34.7853 274.22 35.0886 274.137 35.3553 273.97C35.622 273.803 35.832 273.577 35.9853 273.29C36.1453 272.997 36.2253 272.67 36.2253 272.31C36.2253 271.943 36.1453 271.617 35.9853 271.33C35.832 271.037 35.622 270.807 35.3553 270.64C35.0886 270.473 34.7853 270.39 34.4453 270.39C34.112 270.39 33.8086 270.477 33.5353 270.65C33.2686 270.817 33.0586 271.043 32.9053 271.33C32.752 271.61 32.6753 271.937 32.6753 272.31C32.6753 272.67 32.752 272.997 32.9053 273.29C33.0586 273.577 33.2686 273.803 33.5353 273.97C33.802 274.137 34.1053 274.22 34.4453 274.22ZM40.9598 275.12C40.4398 275.12 39.9764 274.997 39.5698 274.75C39.1631 274.503 38.8431 274.167 38.6098 273.74C38.3764 273.307 38.2598 272.823 38.2598 272.29C38.2598 271.75 38.3731 271.27 38.5998 270.85C38.8331 270.43 39.1464 270.1 39.5398 269.86C39.9398 269.613 40.3864 269.49 40.8798 269.49C41.2798 269.49 41.6331 269.563 41.9398 269.71C42.2531 269.85 42.5164 270.043 42.7298 270.29C42.9498 270.53 43.1164 270.807 43.2298 271.12C43.3498 271.427 43.4098 271.747 43.4098 272.08C43.4098 272.153 43.4031 272.237 43.3898 272.33C43.3831 272.417 43.3731 272.5 43.3598 272.58H38.9398V271.78H42.8198L42.3798 272.14C42.4398 271.793 42.4064 271.483 42.2798 271.21C42.1531 270.937 41.9664 270.72 41.7198 270.56C41.4731 270.4 41.1931 270.32 40.8798 270.32C40.5664 270.32 40.2798 270.4 40.0198 270.56C39.7598 270.72 39.5564 270.95 39.4098 271.25C39.2698 271.543 39.2131 271.893 39.2398 272.3C39.2131 272.693 39.2731 273.04 39.4198 273.34C39.5731 273.633 39.7864 273.863 40.0598 274.03C40.3398 274.19 40.6431 274.27 40.9698 274.27C41.3298 274.27 41.6331 274.187 41.8798 274.02C42.1264 273.853 42.3264 273.64 42.4798 273.38L43.2598 273.78C43.1531 274.027 42.9864 274.253 42.7598 274.46C42.5398 274.66 42.2764 274.82 41.9698 274.94C41.6698 275.06 41.3331 275.12 40.9598 275.12ZM46.4273 275.12C45.8873 275.12 45.4173 274.987 45.0173 274.72C44.6173 274.453 44.334 274.093 44.1673 273.64L44.9073 273.28C45.0607 273.6 45.2707 273.853 45.5373 274.04C45.804 274.227 46.1007 274.32 46.4273 274.32C46.7207 274.32 46.964 274.25 47.1573 274.11C47.3507 273.97 47.4473 273.787 47.4473 273.56C47.4473 273.4 47.4007 273.273 47.3073 273.18C47.2207 273.08 47.114 273.003 46.9873 272.95C46.8607 272.89 46.744 272.847 46.6373 272.82L45.8273 272.59C45.3407 272.45 44.984 272.25 44.7573 271.99C44.5373 271.73 44.4273 271.427 44.4273 271.08C44.4273 270.76 44.5073 270.483 44.6673 270.25C44.834 270.01 45.0573 269.823 45.3373 269.69C45.624 269.557 45.944 269.49 46.2973 269.49C46.7707 269.49 47.194 269.61 47.5673 269.85C47.9473 270.09 48.2173 270.427 48.3773 270.86L47.6173 271.21C47.4973 270.93 47.3173 270.71 47.0773 270.55C46.8373 270.383 46.5673 270.3 46.2673 270.3C45.994 270.3 45.7773 270.37 45.6173 270.51C45.4573 270.643 45.3773 270.813 45.3773 271.02C45.3773 271.173 45.4173 271.3 45.4973 271.4C45.5773 271.493 45.674 271.567 45.7873 271.62C45.9007 271.667 46.0107 271.707 46.1173 271.74L46.9973 272C47.4373 272.127 47.7773 272.323 48.0173 272.59C48.264 272.857 48.3873 273.177 48.3873 273.55C48.3873 273.85 48.304 274.12 48.1373 274.36C47.9707 274.6 47.7407 274.787 47.4473 274.92C47.154 275.053 46.814 275.12 46.4273 275.12ZM49.4798 275V269.61H50.4098V275H49.4798ZM49.4798 268.75V267.55H50.4098V268.75H49.4798ZM54.2978 277.2C53.9178 277.2 53.5645 277.14 53.2378 277.02C52.9178 276.9 52.6411 276.733 52.4078 276.52C52.1811 276.313 52.0078 276.07 51.8878 275.79L52.7578 275.39C52.8511 275.643 53.0278 275.857 53.2878 276.03C53.5545 276.21 53.8878 276.3 54.2878 276.3C54.5945 276.3 54.8711 276.24 55.1178 276.12C55.3711 276.007 55.5711 275.833 55.7178 275.6C55.8645 275.373 55.9378 275.097 55.9378 274.77V273.56L56.1078 273.74C55.9211 274.107 55.6511 274.387 55.2978 274.58C54.9511 274.773 54.5678 274.87 54.1478 274.87C53.6411 274.87 53.1878 274.753 52.7878 274.52C52.3878 274.28 52.0745 273.957 51.8478 273.55C51.6211 273.137 51.5078 272.68 51.5078 272.18C51.5078 271.673 51.6211 271.217 51.8478 270.81C52.0745 270.403 52.3845 270.083 52.7778 269.85C53.1778 269.61 53.6311 269.49 54.1378 269.49C54.5578 269.49 54.9378 269.587 55.2778 269.78C55.6245 269.967 55.9011 270.227 56.1078 270.56L55.9678 270.81V269.61H56.8778V274.77C56.8778 275.237 56.7678 275.653 56.5478 276.02C56.3278 276.387 56.0211 276.673 55.6278 276.88C55.2411 277.093 54.7978 277.2 54.2978 277.2ZM54.2278 273.97C54.5478 273.97 54.8345 273.89 55.0878 273.73C55.3478 273.57 55.5545 273.357 55.7078 273.09C55.8611 272.817 55.9378 272.513 55.9378 272.18C55.9378 271.853 55.8611 271.553 55.7078 271.28C55.5545 271.007 55.3478 270.79 55.0878 270.63C54.8345 270.47 54.5478 270.39 54.2278 270.39C53.9011 270.39 53.6045 270.47 53.3378 270.63C53.0711 270.79 52.8611 271.007 52.7078 271.28C52.5611 271.547 52.4878 271.847 52.4878 272.18C52.4878 272.513 52.5611 272.817 52.7078 273.09C52.8611 273.357 53.0678 273.57 53.3278 273.73C53.5945 273.89 53.8945 273.97 54.2278 273.97ZM58.1946 275V269.61H59.1046V270.66L58.9546 270.57C59.0879 270.23 59.3013 269.967 59.5946 269.78C59.8946 269.587 60.2446 269.49 60.6446 269.49C61.0313 269.49 61.3746 269.577 61.6746 269.75C61.9813 269.923 62.2213 270.163 62.3946 270.47C62.5746 270.777 62.6646 271.123 62.6646 271.51V275H61.7246V271.81C61.7246 271.51 61.6713 271.257 61.5646 271.05C61.4579 270.843 61.3046 270.683 61.1046 270.57C60.9113 270.45 60.6879 270.39 60.4346 270.39C60.1813 270.39 59.9546 270.45 59.7546 270.57C59.5613 270.683 59.4079 270.847 59.2946 271.06C59.1813 271.267 59.1246 271.517 59.1246 271.81V275H58.1946Z" fill="white" fill-opacity="0.75"/>
<path d="M69.14 275L69.67 273.15H68.47V272.3H69.91L70.51 270.24H69.31V269.39H70.75L71.28 267.55H72.25L71.72 269.39H73.67L74.2 267.55H75.18L74.65 269.39H75.85V270.24H74.4L73.81 272.3H75.01V273.15H73.57L73.04 275H72.06L72.59 273.15H70.64L70.11 275H69.14ZM70.89 272.3H72.84L73.43 270.24H71.48L70.89 272.3ZM77.4853 275V270.5H76.4553V269.61H77.4853V269.23C77.4853 268.843 77.5686 268.517 77.7353 268.25C77.9086 267.983 78.1353 267.78 78.4153 267.64C78.702 267.5 79.0186 267.43 79.3653 267.43C79.4386 267.43 79.5186 267.437 79.6053 267.45C79.6986 267.457 79.7753 267.467 79.8353 267.48V268.31C79.782 268.297 79.7186 268.29 79.6453 268.29C79.572 268.283 79.5153 268.28 79.4753 268.28C79.1686 268.28 78.9153 268.353 78.7153 268.5C78.522 268.647 78.4253 268.89 78.4253 269.23V269.61H79.7053V270.5H78.4253V275H77.4853ZM83.071 275.12C82.551 275.12 82.081 275 81.661 274.76C81.241 274.513 80.9077 274.177 80.661 273.75C80.4143 273.323 80.291 272.84 80.291 272.3C80.291 271.76 80.411 271.28 80.651 270.86C80.8977 270.44 81.231 270.107 81.651 269.86C82.071 269.613 82.5443 269.49 83.071 269.49C83.591 269.49 84.061 269.613 84.481 269.86C84.901 270.1 85.231 270.43 85.471 270.85C85.7177 271.27 85.841 271.753 85.841 272.3C85.841 272.847 85.7143 273.333 85.461 273.76C85.2077 274.18 84.871 274.513 84.451 274.76C84.0377 275 83.5777 275.12 83.071 275.12ZM83.071 274.22C83.4043 274.22 83.7043 274.137 83.971 273.97C84.2443 273.803 84.4577 273.573 84.611 273.28C84.771 272.987 84.851 272.66 84.851 272.3C84.851 271.933 84.771 271.61 84.611 271.33C84.4577 271.043 84.2443 270.817 83.971 270.65C83.7043 270.477 83.4043 270.39 83.071 270.39C82.731 270.39 82.4243 270.477 82.151 270.65C81.8843 270.817 81.671 271.043 81.511 271.33C81.351 271.61 81.271 271.933 81.271 272.3C81.271 272.66 81.351 272.987 81.511 273.28C81.671 273.573 81.8843 273.803 82.151 273.97C82.4243 274.137 82.731 274.22 83.071 274.22ZM89.489 275.12C88.969 275.12 88.499 275 88.079 274.76C87.659 274.513 87.3257 274.177 87.079 273.75C86.8323 273.323 86.709 272.84 86.709 272.3C86.709 271.76 86.829 271.28 87.069 270.86C87.3157 270.44 87.649 270.107 88.069 269.86C88.489 269.613 88.9623 269.49 89.489 269.49C90.009 269.49 90.479 269.613 90.899 269.86C91.319 270.1 91.649 270.43 91.889 270.85C92.1357 271.27 92.259 271.753 92.259 272.3C92.259 272.847 92.1323 273.333 91.879 273.76C91.6257 274.18 91.289 274.513 90.869 274.76C90.4557 275 89.9957 275.12 89.489 275.12ZM89.489 274.22C89.8223 274.22 90.1223 274.137 90.389 273.97C90.6623 273.803 90.8757 273.573 91.029 273.28C91.189 272.987 91.269 272.66 91.269 272.3C91.269 271.933 91.189 271.61 91.029 271.33C90.8757 271.043 90.6623 270.817 90.389 270.65C90.1223 270.477 89.8223 270.39 89.489 270.39C89.149 270.39 88.8423 270.477 88.569 270.65C88.3023 270.817 88.089 271.043 87.929 271.33C87.769 271.61 87.689 271.933 87.689 272.3C87.689 272.66 87.769 272.987 87.929 273.28C88.089 273.573 88.3023 273.803 88.569 273.97C88.8423 274.137 89.149 274.22 89.489 274.22ZM95.4393 275.06C94.9126 275.06 94.506 274.91 94.2193 274.61C93.9393 274.31 93.7993 273.887 93.7993 273.34V270.5H92.8193V269.61H93.0193C93.2593 269.61 93.4493 269.537 93.5893 269.39C93.7293 269.243 93.7993 269.05 93.7993 268.81V268.37H94.7293V269.61H95.9393V270.5H94.7293V273.31C94.7293 273.49 94.756 273.647 94.8093 273.78C94.8693 273.913 94.966 274.02 95.0993 274.1C95.2326 274.173 95.4093 274.21 95.6293 274.21C95.676 274.21 95.7326 274.207 95.7993 274.2C95.8726 274.193 95.9393 274.187 95.9993 274.18V275C95.9126 275.02 95.816 275.033 95.7093 275.04C95.6026 275.053 95.5126 275.06 95.4393 275.06ZM99.8791 275.12C99.4458 275.12 99.0491 275.023 98.6891 274.83C98.3358 274.637 98.0625 274.363 97.8691 274.01L97.9991 273.85V275H97.0891V267.43H98.0191V270.77L97.8791 270.54C98.0791 270.22 98.3525 269.967 98.6991 269.78C99.0458 269.587 99.4425 269.49 99.8891 269.49C100.396 269.49 100.849 269.613 101.249 269.86C101.656 270.107 101.976 270.443 102.209 270.87C102.442 271.29 102.559 271.77 102.559 272.31C102.559 272.837 102.442 273.313 102.209 273.74C101.976 274.167 101.656 274.503 101.249 274.75C100.849 274.997 100.392 275.12 99.8791 275.12ZM99.8091 274.22C100.149 274.22 100.452 274.137 100.719 273.97C100.986 273.803 101.192 273.577 101.339 273.29C101.492 272.997 101.569 272.67 101.569 272.31C101.569 271.937 101.492 271.61 101.339 271.33C101.192 271.043 100.986 270.817 100.719 270.65C100.452 270.477 100.149 270.39 99.8091 270.39C99.4691 270.39 99.1625 270.473 98.8891 270.64C98.6225 270.807 98.4091 271.037 98.2491 271.33C98.0958 271.617 98.0191 271.943 98.0191 272.31C98.0191 272.67 98.0958 272.997 98.2491 273.29C98.4091 273.577 98.6225 273.803 98.8891 273.97C99.1625 274.137 99.4691 274.22 99.8091 274.22ZM105.234 275.12C104.88 275.12 104.567 275.057 104.294 274.93C104.027 274.797 103.817 274.617 103.664 274.39C103.51 274.157 103.434 273.89 103.434 273.59C103.434 273.303 103.494 273.047 103.614 272.82C103.74 272.587 103.934 272.39 104.194 272.23C104.46 272.07 104.794 271.957 105.194 271.89L107.194 271.56V272.34L105.404 272.64C105.057 272.7 104.804 272.81 104.644 272.97C104.49 273.13 104.414 273.327 104.414 273.56C104.414 273.78 104.5 273.963 104.674 274.11C104.854 274.257 105.077 274.33 105.344 274.33C105.684 274.33 105.977 274.26 106.224 274.12C106.477 273.973 106.674 273.777 106.814 273.53C106.96 273.283 107.034 273.01 107.034 272.71V271.34C107.034 271.047 106.924 270.81 106.704 270.63C106.49 270.443 106.207 270.35 105.854 270.35C105.547 270.35 105.274 270.43 105.034 270.59C104.8 270.743 104.627 270.95 104.514 271.21L103.704 270.79C103.804 270.543 103.964 270.323 104.184 270.13C104.404 269.93 104.66 269.773 104.954 269.66C105.247 269.547 105.554 269.49 105.874 269.49C106.287 269.49 106.65 269.57 106.964 269.73C107.277 269.883 107.52 270.1 107.694 270.38C107.874 270.653 107.964 270.973 107.964 271.34V275H107.054V273.98L107.224 274.04C107.11 274.253 106.957 274.44 106.764 274.6C106.57 274.76 106.344 274.887 106.084 274.98C105.824 275.073 105.54 275.12 105.234 275.12ZM109.281 275V267.43H110.211V275H109.281ZM111.529 275V267.43H112.459V275H111.529Z" fill="white" fill-opacity="0.75"/>
<path d="M119.14 275L119.67 273.15H118.47V272.3H119.91L120.51 270.24H119.31V269.39H120.75L121.28 267.55H122.25L121.72 269.39H123.67L124.2 267.55H125.18L124.65 269.39H125.85V270.24H124.4L123.81 272.3H125.01V273.15H123.57L123.04 275H122.06L122.59 273.15H120.64L120.11 275H119.14ZM120.89 272.3H122.84L123.43 270.24H121.48L120.89 272.3ZM126.915 275V267.43H127.845V270.66L127.675 270.57C127.809 270.23 128.022 269.967 128.315 269.78C128.615 269.587 128.965 269.49 129.365 269.49C129.752 269.49 130.095 269.577 130.395 269.75C130.702 269.923 130.942 270.163 131.115 270.47C131.295 270.777 131.385 271.123 131.385 271.51V275H130.445V271.81C130.445 271.51 130.389 271.257 130.275 271.05C130.169 270.843 130.019 270.683 129.825 270.57C129.632 270.45 129.409 270.39 129.155 270.39C128.909 270.39 128.685 270.45 128.485 270.57C128.285 270.683 128.129 270.847 128.015 271.06C127.902 271.267 127.845 271.517 127.845 271.81V275H126.915ZM132.591 275V269.61H133.521V275H132.591ZM132.591 268.75V267.55H133.521V268.75H132.591ZM136.769 275.12C136.229 275.12 135.759 274.987 135.359 274.72C134.959 274.453 134.676 274.093 134.509 273.64L135.249 273.28C135.402 273.6 135.612 273.853 135.879 274.04C136.146 274.227 136.442 274.32 136.769 274.32C137.062 274.32 137.306 274.25 137.499 274.11C137.692 273.97 137.789 273.787 137.789 273.56C137.789 273.4 137.742 273.273 137.649 273.18C137.562 273.08 137.456 273.003 137.329 272.95C137.202 272.89 137.086 272.847 136.979 272.82L136.169 272.59C135.682 272.45 135.326 272.25 135.099 271.99C134.879 271.73 134.769 271.427 134.769 271.08C134.769 270.76 134.849 270.483 135.009 270.25C135.176 270.01 135.399 269.823 135.679 269.69C135.966 269.557 136.286 269.49 136.639 269.49C137.112 269.49 137.536 269.61 137.909 269.85C138.289 270.09 138.559 270.427 138.719 270.86L137.959 271.21C137.839 270.93 137.659 270.71 137.419 270.55C137.179 270.383 136.909 270.3 136.609 270.3C136.336 270.3 136.119 270.37 135.959 270.51C135.799 270.643 135.719 270.813 135.719 271.02C135.719 271.173 135.759 271.3 135.839 271.4C135.919 271.493 136.016 271.567 136.129 271.62C136.242 271.667 136.352 271.707 136.459 271.74L137.339 272C137.779 272.127 138.119 272.323 138.359 272.59C138.606 272.857 138.729 273.177 138.729 273.55C138.729 273.85 138.646 274.12 138.479 274.36C138.312 274.6 138.082 274.787 137.789 274.92C137.496 275.053 137.156 275.12 136.769 275.12ZM142.012 275.06C141.485 275.06 141.078 274.91 140.792 274.61C140.512 274.31 140.372 273.887 140.372 273.34V270.5H139.392V269.61H139.592C139.832 269.61 140.022 269.537 140.162 269.39C140.302 269.243 140.372 269.05 140.372 268.81V268.37H141.302V269.61H142.512V270.5H141.302V273.31C141.302 273.49 141.328 273.647 141.382 273.78C141.442 273.913 141.538 274.02 141.672 274.1C141.805 274.173 141.982 274.21 142.202 274.21C142.248 274.21 142.305 274.207 142.372 274.2C142.445 274.193 142.512 274.187 142.572 274.18V275C142.485 275.02 142.388 275.033 142.282 275.04C142.175 275.053 142.085 275.06 142.012 275.06ZM146.075 275.12C145.555 275.12 145.085 275 144.665 274.76C144.245 274.513 143.912 274.177 143.665 273.75C143.418 273.323 143.295 272.84 143.295 272.3C143.295 271.76 143.415 271.28 143.655 270.86C143.902 270.44 144.235 270.107 144.655 269.86C145.075 269.613 145.548 269.49 146.075 269.49C146.595 269.49 147.065 269.613 147.485 269.86C147.905 270.1 148.235 270.43 148.475 270.85C148.722 271.27 148.845 271.753 148.845 272.3C148.845 272.847 148.718 273.333 148.465 273.76C148.212 274.18 147.875 274.513 147.455 274.76C147.042 275 146.582 275.12 146.075 275.12ZM146.075 274.22C146.408 274.22 146.708 274.137 146.975 273.97C147.248 273.803 147.462 273.573 147.615 273.28C147.775 272.987 147.855 272.66 147.855 272.3C147.855 271.933 147.775 271.61 147.615 271.33C147.462 271.043 147.248 270.817 146.975 270.65C146.708 270.477 146.408 270.39 146.075 270.39C145.735 270.39 145.428 270.477 145.155 270.65C144.888 270.817 144.675 271.043 144.515 271.33C144.355 271.61 144.275 271.933 144.275 272.3C144.275 272.66 144.355 272.987 144.515 273.28C144.675 273.573 144.888 273.803 145.155 273.97C145.428 274.137 145.735 274.22 146.075 274.22ZM149.933 275V269.61H150.843V270.6L150.743 270.46C150.87 270.153 151.063 269.927 151.323 269.78C151.583 269.627 151.9 269.55 152.273 269.55H152.603V270.43H152.133C151.753 270.43 151.446 270.55 151.213 270.79C150.98 271.023 150.863 271.357 150.863 271.79V275H149.933ZM153.594 277.2C153.474 277.2 153.354 277.19 153.234 277.17C153.114 277.157 153.001 277.127 152.894 277.08V276.25C152.967 276.257 153.057 276.27 153.164 276.29C153.277 276.31 153.387 276.32 153.494 276.32C153.807 276.32 154.044 276.25 154.204 276.11C154.371 275.97 154.527 275.733 154.674 275.4L155.014 274.59L154.994 275.4L152.694 269.61H153.704L155.494 274.21H155.194L156.974 269.61H158.004L155.574 275.64C155.461 275.927 155.314 276.19 155.134 276.43C154.961 276.67 154.747 276.857 154.494 276.99C154.241 277.13 153.941 277.2 153.594 277.2Z" fill="white" fill-opacity="0.75"/>
<path d="M164.14 275L164.67 273.15H163.47V272.3H164.91L165.51 270.24H164.31V269.39H165.75L166.28 267.55H167.25L166.72 269.39H168.67L169.2 267.55H170.18L169.65 269.39H170.85V270.24H169.4L168.81 272.3H170.01V273.15H168.57L168.04 275H167.06L167.59 273.15H165.64L165.11 275H164.14ZM165.89 272.3H167.84L168.43 270.24H166.48L165.89 272.3ZM174.475 275.12C173.955 275.12 173.485 275 173.065 274.76C172.645 274.513 172.312 274.177 172.065 273.75C171.819 273.323 171.695 272.84 171.695 272.3C171.695 271.76 171.815 271.28 172.055 270.86C172.302 270.44 172.635 270.107 173.055 269.86C173.475 269.613 173.949 269.49 174.475 269.49C174.995 269.49 175.465 269.613 175.885 269.86C176.305 270.1 176.635 270.43 176.875 270.85C177.122 271.27 177.245 271.753 177.245 272.3C177.245 272.847 177.119 273.333 176.865 273.76C176.612 274.18 176.275 274.513 175.855 274.76C175.442 275 174.982 275.12 174.475 275.12ZM174.475 274.22C174.809 274.22 175.109 274.137 175.375 273.97C175.649 273.803 175.862 273.573 176.015 273.28C176.175 272.987 176.255 272.66 176.255 272.3C176.255 271.933 176.175 271.61 176.015 271.33C175.862 271.043 175.649 270.817 175.375 270.65C175.109 270.477 174.809 270.39 174.475 270.39C174.135 270.39 173.829 270.477 173.555 270.65C173.289 270.817 173.075 271.043 172.915 271.33C172.755 271.61 172.675 271.933 172.675 272.3C172.675 272.66 172.755 272.987 172.915 273.28C173.075 273.573 173.289 273.803 173.555 273.97C173.829 274.137 174.135 274.22 174.475 274.22ZM178.333 277V269.61H179.243V270.77L179.123 270.54C179.323 270.22 179.597 269.967 179.943 269.78C180.29 269.587 180.687 269.49 181.133 269.49C181.64 269.49 182.093 269.613 182.493 269.86C182.9 270.107 183.22 270.443 183.453 270.87C183.687 271.29 183.803 271.77 183.803 272.31C183.803 272.837 183.687 273.313 183.453 273.74C183.22 274.167 182.9 274.503 182.493 274.75C182.093 274.997 181.637 275.12 181.123 275.12C180.69 275.12 180.293 275.023 179.933 274.83C179.58 274.637 179.307 274.363 179.113 274.01L179.263 273.85V277H178.333ZM181.053 274.22C181.393 274.22 181.697 274.137 181.963 273.97C182.23 273.803 182.437 273.577 182.583 273.29C182.737 272.997 182.813 272.67 182.813 272.31C182.813 271.937 182.737 271.61 182.583 271.33C182.437 271.043 182.23 270.817 181.963 270.65C181.697 270.477 181.393 270.39 181.053 270.39C180.713 270.39 180.407 270.473 180.133 270.64C179.867 270.807 179.653 271.037 179.493 271.33C179.34 271.617 179.263 271.943 179.263 272.31C179.263 272.67 179.34 272.997 179.493 273.29C179.653 273.577 179.867 273.803 180.133 273.97C180.407 274.137 180.713 274.22 181.053 274.22ZM184.898 275V269.61H185.828V275H184.898ZM184.898 268.75V267.55H185.828V268.75H184.898ZM187.146 275V269.61H188.056V270.66L187.906 270.57C188.039 270.23 188.252 269.967 188.546 269.78C188.846 269.587 189.196 269.49 189.596 269.49C189.982 269.49 190.326 269.577 190.626 269.75C190.932 269.923 191.172 270.163 191.346 270.47C191.526 270.777 191.616 271.123 191.616 271.51V275H190.676V271.81C190.676 271.51 190.622 271.257 190.516 271.05C190.409 270.843 190.256 270.683 190.056 270.57C189.862 270.45 189.639 270.39 189.386 270.39C189.132 270.39 188.906 270.45 188.706 270.57C188.512 270.683 188.359 270.847 188.246 271.06C188.132 271.267 188.076 271.517 188.076 271.81V275H187.146ZM192.822 275V269.61H193.752V275H192.822ZM192.822 268.75V267.55H193.752V268.75H192.822ZM197.63 275.12C197.11 275.12 196.64 275 196.22 274.76C195.8 274.513 195.466 274.177 195.22 273.75C194.973 273.323 194.85 272.84 194.85 272.3C194.85 271.76 194.97 271.28 195.21 270.86C195.456 270.44 195.79 270.107 196.21 269.86C196.63 269.613 197.103 269.49 197.63 269.49C198.15 269.49 198.62 269.613 199.04 269.86C199.46 270.1 199.79 270.43 200.03 270.85C200.276 271.27 200.4 271.753 200.4 272.3C200.4 272.847 200.273 273.333 200.02 273.76C199.766 274.18 199.43 274.513 199.01 274.76C198.596 275 198.136 275.12 197.63 275.12ZM197.63 274.22C197.963 274.22 198.263 274.137 198.53 273.97C198.803 273.803 199.016 273.573 199.17 273.28C199.33 272.987 199.41 272.66 199.41 272.3C199.41 271.933 199.33 271.61 199.17 271.33C199.016 271.043 198.803 270.817 198.53 270.65C198.263 270.477 197.963 270.39 197.63 270.39C197.29 270.39 196.983 270.477 196.71 270.65C196.443 270.817 196.23 271.043 196.07 271.33C195.91 271.61 195.83 271.933 195.83 272.3C195.83 272.66 195.91 272.987 196.07 273.28C196.23 273.573 196.443 273.803 196.71 273.97C196.983 274.137 197.29 274.22 197.63 274.22ZM201.488 275V269.61H202.398V270.66L202.248 270.57C202.381 270.23 202.594 269.967 202.888 269.78C203.188 269.587 203.538 269.49 203.938 269.49C204.324 269.49 204.668 269.577 204.968 269.75C205.274 269.923 205.514 270.163 205.688 270.47C205.868 270.777 205.958 271.123 205.958 271.51V275H205.018V271.81C205.018 271.51 204.964 271.257 204.858 271.05C204.751 270.843 204.598 270.683 204.398 270.57C204.204 270.45 203.981 270.39 203.728 270.39C203.474 270.39 203.248 270.45 203.048 270.57C202.854 270.683 202.701 270.847 202.588 271.06C202.474 271.267 202.418 271.517 202.418 271.81V275H201.488ZM209.093 275.12C208.553 275.12 208.083 274.987 207.683 274.72C207.283 274.453 207 274.093 206.833 273.64L207.573 273.28C207.727 273.6 207.937 273.853 208.203 274.04C208.47 274.227 208.767 274.32 209.093 274.32C209.387 274.32 209.63 274.25 209.823 274.11C210.017 273.97 210.113 273.787 210.113 273.56C210.113 273.4 210.067 273.273 209.973 273.18C209.887 273.08 209.78 273.003 209.653 272.95C209.527 272.89 209.41 272.847 209.303 272.82L208.493 272.59C208.007 272.45 207.65 272.25 207.423 271.99C207.203 271.73 207.093 271.427 207.093 271.08C207.093 270.76 207.173 270.483 207.333 270.25C207.5 270.01 207.723 269.823 208.003 269.69C208.29 269.557 208.61 269.49 208.963 269.49C209.437 269.49 209.86 269.61 210.233 269.85C210.613 270.09 210.883 270.427 211.043 270.86L210.283 271.21C210.163 270.93 209.983 270.71 209.743 270.55C209.503 270.383 209.233 270.3 208.933 270.3C208.66 270.3 208.443 270.37 208.283 270.51C208.123 270.643 208.043 270.813 208.043 271.02C208.043 271.173 208.083 271.3 208.163 271.4C208.243 271.493 208.34 271.567 208.453 271.62C208.567 271.667 208.677 271.707 208.783 271.74L209.663 272C210.103 272.127 210.443 272.323 210.683 272.59C210.93 272.857 211.053 273.177 211.053 273.55C211.053 273.85 210.97 274.12 210.803 274.36C210.637 274.6 210.407 274.787 210.113 274.92C209.82 275.053 209.48 275.12 209.093 275.12Z" fill="white" fill-opacity="0.75"/>
<rect x="23" y="30.1006" width="44" height="44" rx="22" transform="rotate(-2.73598 23 30.1006)" fill="white"/>
<path d="M57 44.1176C56.1902 44.4882 55.3174 44.7318 54.413 44.8482C55.3384 44.2871 56.0535 43.3976 56.3901 42.3282C55.5172 42.8576 54.5497 43.2282 53.5296 43.44C52.6989 42.5294 51.5316 42 50.2065 42C47.7352 42 45.7161 44.0329 45.7161 46.5424C45.7161 46.9024 45.7581 47.2518 45.8317 47.58C42.088 47.3894 38.7543 45.5788 36.5354 42.8365C36.1463 43.5035 35.9254 44.2871 35.9254 45.1129C35.9254 46.6906 36.7141 48.0882 37.934 48.8824C37.1874 48.8824 36.4933 48.6706 35.8834 48.3529C35.8834 48.3529 35.8834 48.3529 35.8834 48.3847C35.8834 50.5871 37.4398 52.4294 39.501 52.8424C39.1224 52.9482 38.7228 53.0012 38.3126 53.0012C38.0287 53.0012 37.7447 52.9694 37.4713 52.9165C38.0392 54.7059 39.6902 56.04 41.6778 56.0718C40.1424 57.3 38.1969 58.02 36.0727 58.02C35.7151 58.02 35.3576 57.9988 35 57.9565C36.9981 59.2482 39.3748 60 41.9197 60C50.2065 60 54.76 53.0753 54.76 47.0718C54.76 46.8706 54.76 46.68 54.7495 46.4788C55.6329 45.8435 56.3901 45.0388 57 44.1176Z" fill="#1DA1F2"/>
</svg>
