<svg width="275" height="275" viewBox="0 0 275 275" fill="none" xmlns="http://www.w3.org/2000/svg">
<g clip-path="url(#clip0_32_160)">
<rect width="275" height="275" rx="4" fill="#161616"/>
<path d="M-12.0369 154V121.273H-4.66477V126.834H-4.28125C-3.59943 124.959 -2.47017 123.496 -0.893466 122.445C0.683239 121.379 2.56534 120.847 4.75284 120.847C6.96875 120.847 8.83665 121.386 10.3565 122.466C11.8906 123.531 12.9702 124.987 13.5952 126.834H13.9361C14.6605 125.016 15.8821 123.567 17.6009 122.487C19.3338 121.393 21.3864 120.847 23.7585 120.847C26.7699 120.847 29.2273 121.798 31.1307 123.702C33.0341 125.605 33.9858 128.382 33.9858 132.033V154H26.2514V133.226C26.2514 131.195 25.7116 129.71 24.6321 128.773C23.5526 127.821 22.2315 127.345 20.669 127.345C18.8082 127.345 17.3523 127.928 16.3011 129.092C15.2642 130.243 14.7457 131.741 14.7457 133.588V154H7.18182V132.906C7.18182 131.216 6.67046 129.866 5.64773 128.858C4.63921 127.849 3.31818 127.345 1.68466 127.345C0.576705 127.345 -0.431818 127.629 -1.34091 128.197C-2.25 128.751 -2.97443 129.54 -3.5142 130.562C-4.05398 131.571 -4.32386 132.75 -4.32386 134.099V154H-12.0369ZM43.9329 166.273C42.8817 166.273 41.9087 166.188 41.0138 166.017C40.1332 165.861 39.43 165.676 38.9045 165.463L40.6942 159.455C41.8164 159.781 42.8178 159.938 43.6985 159.923C44.5792 159.909 45.3533 159.632 46.021 159.092C46.7028 158.567 47.2781 157.686 47.7468 156.45L48.4073 154.682L36.5394 121.273H44.7212L52.2639 145.989H52.6048L60.1687 121.273H68.3718L55.2681 157.963C54.6573 159.696 53.8477 161.18 52.8391 162.416C51.8306 163.666 50.5948 164.618 49.1317 165.271C47.6829 165.939 45.9499 166.273 43.9329 166.273ZM85.592 154V121.273H93.0707V126.727H93.4116C94.0082 124.838 95.0309 123.382 96.4798 122.359C97.9428 121.322 99.6119 120.804 101.487 120.804C101.913 120.804 102.389 120.825 102.914 120.868C103.454 120.896 103.902 120.946 104.257 121.017V128.112C103.93 127.999 103.412 127.899 102.701 127.814C102.005 127.714 101.331 127.665 100.677 127.665C99.271 127.665 98.0067 127.97 96.8846 128.581C95.7766 129.178 94.9031 130.009 94.2638 131.074C93.6246 132.139 93.305 133.368 93.305 134.76V154H85.592ZM121.022 154.639C117.741 154.639 114.907 153.957 112.521 152.594C110.148 151.216 108.323 149.27 107.045 146.756C105.766 144.227 105.127 141.251 105.127 137.828C105.127 134.462 105.766 131.507 107.045 128.964C108.337 126.408 110.141 124.419 112.457 122.999C114.772 121.564 117.492 120.847 120.617 120.847C122.634 120.847 124.538 121.173 126.327 121.827C128.131 122.466 129.722 123.46 131.1 124.81C132.492 126.159 133.586 127.878 134.381 129.966C135.177 132.04 135.575 134.511 135.575 137.381V139.746H108.749V134.547H128.181C128.167 133.07 127.847 131.756 127.222 130.605C126.597 129.44 125.724 128.524 124.602 127.857C123.494 127.189 122.201 126.855 120.724 126.855C119.147 126.855 117.762 127.239 116.569 128.006C115.376 128.759 114.445 129.753 113.778 130.989C113.124 132.21 112.79 133.553 112.776 135.016V139.554C112.776 141.457 113.124 143.091 113.82 144.455C114.516 145.804 115.489 146.841 116.739 147.565C117.989 148.276 119.452 148.631 121.129 148.631C122.251 148.631 123.266 148.474 124.175 148.162C125.085 147.835 125.873 147.359 126.54 146.734C127.208 146.109 127.712 145.335 128.053 144.412L135.255 145.222C134.8 147.125 133.934 148.787 132.656 150.207C131.391 151.614 129.772 152.707 127.798 153.489C125.823 154.256 123.565 154.639 121.022 154.639ZM166.466 129.923L159.435 130.69C159.236 129.98 158.888 129.312 158.391 128.688C157.908 128.062 157.255 127.558 156.431 127.175C155.607 126.791 154.598 126.599 153.405 126.599C151.8 126.599 150.451 126.947 149.357 127.643C148.277 128.339 147.745 129.241 147.759 130.349C147.745 131.301 148.093 132.075 148.803 132.672C149.527 133.268 150.721 133.759 152.382 134.142L157.965 135.335C161.061 136.003 163.363 137.061 164.868 138.51C166.388 139.959 167.155 141.855 167.169 144.199C167.155 146.259 166.551 148.077 165.358 149.653C164.179 151.216 162.539 152.437 160.436 153.318C158.334 154.199 155.919 154.639 153.192 154.639C149.186 154.639 145.962 153.801 143.519 152.125C141.076 150.435 139.62 148.084 139.151 145.072L146.672 144.348C147.013 145.825 147.738 146.94 148.846 147.693C149.953 148.446 151.395 148.822 153.171 148.822C155.003 148.822 156.473 148.446 157.581 147.693C158.703 146.94 159.265 146.01 159.265 144.902C159.265 143.964 158.902 143.19 158.178 142.58C157.468 141.969 156.36 141.5 154.854 141.173L149.272 140.001C146.132 139.348 143.81 138.247 142.304 136.699C140.799 135.136 140.053 133.162 140.067 130.776C140.053 128.759 140.6 127.011 141.708 125.534C142.83 124.043 144.385 122.892 146.374 122.082C148.377 121.259 150.685 120.847 153.299 120.847C157.134 120.847 160.152 121.663 162.354 123.297C164.57 124.93 165.941 127.139 166.466 129.923ZM192.889 140.236V121.273H200.602V154H193.123V148.183H192.782C192.044 150.016 190.829 151.514 189.139 152.679C187.463 153.844 185.396 154.426 182.939 154.426C180.794 154.426 178.897 153.95 177.25 152.999C175.616 152.033 174.338 150.634 173.414 148.801C172.491 146.955 172.029 144.724 172.029 142.111V121.273H179.743V140.918C179.743 142.991 180.311 144.639 181.447 145.861C182.583 147.082 184.075 147.693 185.922 147.693C187.058 147.693 188.159 147.416 189.224 146.862C190.289 146.308 191.163 145.484 191.845 144.391C192.541 143.283 192.889 141.898 192.889 140.236ZM207.033 154V121.273H214.406V126.834H214.789C215.471 124.959 216.6 123.496 218.177 122.445C219.754 121.379 221.636 120.847 223.823 120.847C226.039 120.847 227.907 121.386 229.427 122.466C230.961 123.531 232.04 124.987 232.665 126.834H233.006C233.731 125.016 234.952 123.567 236.671 122.487C238.404 121.393 240.457 120.847 242.829 120.847C245.84 120.847 248.298 121.798 250.201 123.702C252.104 125.605 253.056 128.382 253.056 132.033V154H245.322V133.226C245.322 131.195 244.782 129.71 243.702 128.773C242.623 127.821 241.302 127.345 239.739 127.345C237.879 127.345 236.423 127.928 235.371 129.092C234.335 130.243 233.816 131.741 233.816 133.588V154H226.252V132.906C226.252 131.216 225.741 129.866 224.718 128.858C223.71 127.849 222.388 127.345 220.755 127.345C219.647 127.345 218.638 127.629 217.729 128.197C216.82 128.751 216.096 129.54 215.556 130.562C215.016 131.571 214.746 132.75 214.746 134.099V154H207.033ZM273.87 154.639C270.588 154.639 267.755 153.957 265.368 152.594C262.996 151.216 261.171 149.27 259.892 146.756C258.614 144.227 257.975 141.251 257.975 137.828C257.975 134.462 258.614 131.507 259.892 128.964C261.185 126.408 262.989 124.419 265.304 122.999C267.62 121.564 270.34 120.847 273.465 120.847C275.482 120.847 277.385 121.173 279.175 121.827C280.979 122.466 282.57 123.46 283.948 124.81C285.34 126.159 286.434 127.878 287.229 129.966C288.025 132.04 288.422 134.511 288.422 137.381V139.746H261.597V134.547H281.029C281.015 133.07 280.695 131.756 280.07 130.605C279.445 129.44 278.571 128.524 277.449 127.857C276.341 127.189 275.049 126.855 273.571 126.855C271.995 126.855 270.61 127.239 269.417 128.006C268.223 128.759 267.293 129.753 266.625 130.989C265.972 132.21 265.638 133.553 265.624 135.016V139.554C265.624 141.457 265.972 143.091 266.668 144.455C267.364 145.804 268.337 146.841 269.587 147.565C270.837 148.276 272.3 148.631 273.976 148.631C275.098 148.631 276.114 148.474 277.023 148.162C277.932 147.835 278.721 147.359 279.388 146.734C280.056 146.109 280.56 145.335 280.901 144.412L288.103 145.222C287.648 147.125 286.782 148.787 285.503 150.207C284.239 151.614 282.62 152.707 280.645 153.489C278.671 154.256 276.412 154.639 273.87 154.639ZM270.29 116.969L275.063 107.232H282.605L276.064 116.969H270.29Z" fill="url(#paint0_linear_32_160)"/>
</g>
<defs>
<linearGradient id="paint0_linear_32_160" x1="-19.5031" y1="141.876" x2="296.095" y2="141.876" gradientUnits="userSpaceOnUse">
<stop stop-color="#8DFF92"/>
<stop offset="0.25" stop-color="#FAFD6A"/>
<stop offset="0.677083" stop-color="#3FEAAC"/>
<stop offset="1" stop-color="#1FD7D7"/>
</linearGradient>
<clipPath id="clip0_32_160">
<rect width="275" height="275" rx="4" fill="white"/>
</clipPath>
</defs>
</svg>
